<?xml version="1.0" encoding="UTF-8" standalone="no"?>
<!-- Created with Inkscape (http://www.inkscape.org/) -->

<svg
   xmlns:dc="http://purl.org/dc/elements/1.1/"
   xmlns:cc="http://creativecommons.org/ns#"
   xmlns:rdf="http://www.w3.org/1999/02/22-rdf-syntax-ns#"
   xmlns:svg="http://www.w3.org/2000/svg"
   xmlns="http://www.w3.org/2000/svg"
   xmlns:sodipodi="http://sodipodi.sourceforge.net/DTD/sodipodi-0.dtd"
   xmlns:inkscape="http://www.inkscape.org/namespaces/inkscape"
   width="396"
   height="558.94604"
   id="svg2"
   version="1.1"
   inkscape:version="0.48.4 r9939"
   sodipodi:docname="New document 1">
  <defs
     id="defs4" />
  <sodipodi:namedview
     id="base"
     pagecolor="#ffffff"
     bordercolor="#666666"
     borderopacity="1.0"
     inkscape:pageopacity="0.0"
     inkscape:pageshadow="2"
     inkscape:zoom="0.7"
     inkscape:cx="253.1086"
     inkscape:cy="487.95325"
     inkscape:document-units="px"
     inkscape:current-layer="layer1"
     showgrid="true"
     inkscape:snap-bbox="false"
     inkscape:snap-object-midpoints="true"
     fit-margin-top="0"
     fit-margin-left="0"
     fit-margin-right="0"
     fit-margin-bottom="0"
     inkscape:window-width="960"
     inkscape:window-height="1028"
     inkscape:window-x="960"
     inkscape:window-y="24"
     inkscape:window-maximized="0">
    <inkscape:grid
       type="xygrid"
       id="grid2985"
       empspacing="5"
       visible="true"
       enabled="false"
       snapvisiblegridlinesonly="true"
       units="cm"
       spacingx="1cm"
       spacingy="1cm"
       originx="1.1027978e-07cm"
       originy="0cm" />
    <inkscape:grid
       type="axonomgrid"
       id="grid2987"
       units="cm"
       empspacing="5"
       visible="true"
       enabled="true"
       snapvisiblegridlinesonly="true"
       spacingy="1cm"
       originx="1.1027978e-07cm"
       originy="0cm" />
  </sodipodi:namedview>
  <metadata
     id="metadata7">
    <rdf:RDF>
      <cc:Work
         rdf:about="">
        <dc:format>image/svg+xml</dc:format>
        <dc:type
           rdf:resource="http://purl.org/dc/dcmitype/StillImage" />
        <dc:title></dc:title>
      </cc:Work>
    </rdf:RDF>
  </metadata>
  <g
     inkscape:label="Layer 1"
     inkscape:groupmode="layer"
     id="layer1"
     transform="translate(3.9075512e-6,-493.41613)">
    <path
       sodipodi:type="arc"
       style="fill:#000000;fill-opacity:1;stroke:none"
       id="path2989"
       sodipodi:cx="153.4297"
       sodipodi:cy="361.4173"
       sodipodi:rx="30.68594"
       sodipodi:ry="17.716536"
       d="m 184.11564,361.4173 c 0,9.78457 -13.73856,17.71653 -30.68594,17.71653 -16.94737,0 -30.68594,-7.93196 -30.68594,-17.71653 0,-9.78458 13.73857,-17.71654 30.68594,-17.71654 16.94738,0 30.68594,7.93196 30.68594,17.71654 z"
       transform="matrix(1.0754129,0,0,1.8626697,-99.000234,196.16108)" />
    <path
       sodipodi:type="arc"
       style="fill:#000000;fill-opacity:1;stroke:none"
       id="path2989-9"
       sodipodi:cx="153.4297"
       sodipodi:cy="361.4173"
       sodipodi:rx="30.68594"
       sodipodi:ry="17.716536"
       d="m 184.11564,361.4173 c 0,9.78457 -13.73856,17.71653 -30.68594,17.71653 -16.94737,0 -30.68594,-7.93196 -30.68594,-17.71653 0,-9.78458 13.73857,-17.71654 30.68594,-17.71654 16.94738,0 30.68594,7.93196 30.68594,17.71654 z"
       transform="matrix(1.0754129,0,0,1.8626697,-33.000256,196.16108)" />
    <path
       sodipodi:type="arc"
       style="fill:#000000;fill-opacity:1;stroke:none"
       id="path2989-9-5"
       sodipodi:cx="153.4297"
       sodipodi:cy="361.4173"
       sodipodi:rx="30.68594"
       sodipodi:ry="17.716536"
       d="m 184.11564,361.4173 c 0,9.78457 -13.73856,17.71653 -30.68594,17.71653 -16.94737,0 -30.68594,-7.93196 -30.68594,-17.71653 0,-9.78458 13.73857,-17.71654 30.68594,-17.71654 16.94738,0 30.68594,7.93196 30.68594,17.71654 z"
       transform="matrix(1.0754129,0,0,1.8626697,32.999725,196.16108)" />
    <path
       sodipodi:type="arc"
       style="fill:#000000;fill-opacity:1;stroke:none"
       id="path2989-9-4"
       sodipodi:cx="153.4297"
       sodipodi:cy="361.4173"
       sodipodi:rx="30.68594"
       sodipodi:ry="17.716536"
       d="m 184.11564,361.4173 c 0,9.78457 -13.73856,17.71653 -30.68594,17.71653 -16.94737,0 -30.68594,-7.93196 -30.68594,-17.71653 0,-9.78458 13.73857,-17.71654 30.68594,-17.71654 16.94738,0 30.68594,7.93196 30.68594,17.71654 z"
       transform="matrix(1.0754129,0,0,1.8626697,98.999695,196.16108)" />
    <path
       sodipodi:type="arc"
       style="fill:#000000;fill-opacity:1;stroke:none"
       id="path2989-9-4-0"
       sodipodi:cx="153.4297"
       sodipodi:cy="361.4173"
       sodipodi:rx="30.68594"
       sodipodi:ry="17.716536"
       d="m 184.11564,361.4173 c 0,9.78457 -13.73856,17.71653 -30.68594,17.71653 -16.94737,0 -30.68594,-7.93196 -30.68594,-17.71653 0,-9.78458 13.73857,-17.71654 30.68594,-17.71654 16.94738,0 30.68594,7.93196 30.68594,17.71654 z"
       transform="matrix(1.0754129,0,0,1.8626697,164.99967,196.16108)" />
    <path
       sodipodi:type="arc"
       style="fill:#000000;fill-opacity:1;stroke:none"
       id="path2989-4"
       sodipodi:cx="153.4297"
       sodipodi:cy="361.4173"
       sodipodi:rx="30.68594"
       sodipodi:ry="17.716536"
       d="m 184.11564,361.4173 c 0,9.78457 -13.73856,17.71653 -30.68594,17.71653 -16.94737,0 -30.68594,-7.93196 -30.68594,-17.71653 0,-9.78458 13.73857,-17.71654 30.68594,-17.71654 16.94738,0 30.68594,7.93196 30.68594,17.71654 z"
       transform="matrix(1.0754129,0,0,1.8626697,-132.00022,139.00343)" />
    <path
       sodipodi:type="arc"
       style="fill:#000000;fill-opacity:1;stroke:none"
       id="path2989-9-2"
       sodipodi:cx="153.4297"
       sodipodi:cy="361.4173"
       sodipodi:rx="30.68594"
       sodipodi:ry="17.716536"
       d="m 184.11564,361.4173 c 0,9.78457 -13.73856,17.71653 -30.68594,17.71653 -16.94737,0 -30.68594,-7.93196 -30.68594,-17.71653 0,-9.78458 13.73857,-17.71654 30.68594,-17.71654 16.94738,0 30.68594,7.93196 30.68594,17.71654 z"
       transform="matrix(1.0754129,0,0,1.8626697,-66.000244,139.00343)" />
    <path
       sodipodi:type="arc"
       style="fill:#000000;fill-opacity:1;stroke:none"
       id="path2989-9-5-0"
       sodipodi:cx="153.4297"
       sodipodi:cy="361.4173"
       sodipodi:rx="30.68594"
       sodipodi:ry="17.716536"
       d="m 184.11564,361.4173 c 0,9.78457 -13.73856,17.71653 -30.68594,17.71653 -16.94737,0 -30.68594,-7.93196 -30.68594,-17.71653 0,-9.78458 13.73857,-17.71654 30.68594,-17.71654 16.94738,0 30.68594,7.93196 30.68594,17.71654 z"
       transform="matrix(1.0754129,0,0,1.8626697,-2.6709245e-4,139.00343)" />
    <path
       sodipodi:type="arc"
       style="fill:#000000;fill-opacity:1;stroke:none"
       id="path2989-9-4-3"
       sodipodi:cx="153.4297"
       sodipodi:cy="361.4173"
       sodipodi:rx="30.68594"
       sodipodi:ry="17.716536"
       d="m 184.11564,361.4173 c 0,9.78457 -13.73856,17.71653 -30.68594,17.71653 -16.94737,0 -30.68594,-7.93196 -30.68594,-17.71653 0,-9.78458 13.73857,-17.71654 30.68594,-17.71654 16.94738,0 30.68594,7.93196 30.68594,17.71654 z"
       transform="matrix(1.0754129,0,0,1.8626697,65.999715,139.00343)" />
    <path
       sodipodi:type="arc"
       style="fill:#000000;fill-opacity:1;stroke:none"
       id="path2989-9-4-0-1"
       sodipodi:cx="153.4297"
       sodipodi:cy="361.4173"
       sodipodi:rx="30.68594"
       sodipodi:ry="17.716536"
       d="m 184.11564,361.4173 c 0,9.78457 -13.73856,17.71653 -30.68594,17.71653 -16.94737,0 -30.68594,-7.93196 -30.68594,-17.71653 0,-9.78458 13.73857,-17.71654 30.68594,-17.71654 16.94738,0 30.68594,7.93196 30.68594,17.71654 z"
       transform="matrix(1.0754129,0,0,1.8626697,131.99968,139.00343)" />
    <path
       sodipodi:type="arc"
       style="fill:#000000;fill-opacity:1;stroke:none"
       id="path2989-9-4-0-1-9"
       sodipodi:cx="153.4297"
       sodipodi:cy="361.4173"
       sodipodi:rx="30.68594"
       sodipodi:ry="17.716536"
       d="m 184.11564,361.4173 c 0,9.78457 -13.73856,17.71653 -30.68594,17.71653 -16.94737,0 -30.68594,-7.93196 -30.68594,-17.71653 0,-9.78458 13.73857,-17.71654 30.68594,-17.71654 16.94738,0 30.68594,7.93196 30.68594,17.71654 z"
       transform="matrix(1.0754129,0,0,1.8626697,197.99966,139.00343)" />
    <path
       sodipodi:type="arc"
       style="fill:#000000;fill-opacity:1;stroke:none"
       id="path2989-91"
       sodipodi:cx="153.4297"
       sodipodi:cy="361.4173"
       sodipodi:rx="30.68594"
       sodipodi:ry="17.716536"
       d="m 184.11564,361.4173 c 0,9.78457 -13.73856,17.71653 -30.68594,17.71653 -16.94737,0 -30.68594,-7.93196 -30.68594,-17.71653 0,-9.78458 13.73857,-17.71654 30.68594,-17.71654 16.94738,0 30.68594,7.93196 30.68594,17.71654 z"
       transform="matrix(1.0754129,0,0,1.8626697,-99.000236,81.84576)" />
    <path
       sodipodi:type="arc"
       style="fill:#000000;fill-opacity:1;stroke:none"
       id="path2989-9-8"
       sodipodi:cx="153.4297"
       sodipodi:cy="361.4173"
       sodipodi:rx="30.68594"
       sodipodi:ry="17.716536"
       d="m 184.11564,361.4173 c 0,9.78457 -13.73856,17.71653 -30.68594,17.71653 -16.94737,0 -30.68594,-7.93196 -30.68594,-17.71653 0,-9.78458 13.73857,-17.71654 30.68594,-17.71654 16.94738,0 30.68594,7.93196 30.68594,17.71654 z"
       transform="matrix(1.0754129,0,0,1.8626697,-33.000256,81.84576)" />
    <path
       sodipodi:type="arc"
       style="fill:#000000;fill-opacity:1;stroke:none"
       id="path2989-9-5-8"
       sodipodi:cx="153.4297"
       sodipodi:cy="361.4173"
       sodipodi:rx="30.68594"
       sodipodi:ry="17.716536"
       d="m 184.11564,361.4173 c 0,9.78457 -13.73856,17.71653 -30.68594,17.71653 -16.94737,0 -30.68594,-7.93196 -30.68594,-17.71653 0,-9.78458 13.73857,-17.71654 30.68594,-17.71654 16.94738,0 30.68594,7.93196 30.68594,17.71654 z"
       transform="matrix(1.0754129,0,0,1.8626697,32.999725,81.84576)" />
    <path
       sodipodi:type="arc"
       style="fill:#000000;fill-opacity:1;stroke:none"
       id="path2989-9-4-8"
       sodipodi:cx="153.4297"
       sodipodi:cy="361.4173"
       sodipodi:rx="30.68594"
       sodipodi:ry="17.716536"
       d="m 184.11564,361.4173 c 0,9.78457 -13.73856,17.71653 -30.68594,17.71653 -16.94737,0 -30.68594,-7.93196 -30.68594,-17.71653 0,-9.78458 13.73857,-17.71654 30.68594,-17.71654 16.94738,0 30.68594,7.93196 30.68594,17.71654 z"
       transform="matrix(1.0754129,0,0,1.8626697,98.999695,81.84576)" />
    <path
       sodipodi:type="arc"
       style="fill:#000000;fill-opacity:1;stroke:none"
       id="path2989-9-4-0-5"
       sodipodi:cx="153.4297"
       sodipodi:cy="361.4173"
       sodipodi:rx="30.68594"
       sodipodi:ry="17.716536"
       d="m 184.11564,361.4173 c 0,9.78457 -13.73856,17.71653 -30.68594,17.71653 -16.94737,0 -30.68594,-7.93196 -30.68594,-17.71653 0,-9.78458 13.73857,-17.71654 30.68594,-17.71654 16.94738,0 30.68594,7.93196 30.68594,17.71654 z"
       transform="matrix(1.0754129,0,0,1.8626697,164.99966,81.84576)" />
    <path
       sodipodi:type="arc"
       style="fill:#000000;fill-opacity:1;stroke:none"
       id="path2989-4-2"
       sodipodi:cx="153.4297"
       sodipodi:cy="361.4173"
       sodipodi:rx="30.68594"
       sodipodi:ry="17.716536"
       d="m 184.11564,361.4173 c 0,9.78457 -13.73856,17.71653 -30.68594,17.71653 -16.94737,0 -30.68594,-7.93196 -30.68594,-17.71653 0,-9.78458 13.73857,-17.71654 30.68594,-17.71654 16.94738,0 30.68594,7.93196 30.68594,17.71654 z"
       transform="matrix(1.0754129,0,0,1.8626697,-132.00023,24.68811)" />
    <path
       sodipodi:type="arc"
       style="fill:#000000;fill-opacity:1;stroke:none"
       id="path2989-9-2-7"
       sodipodi:cx="153.4297"
       sodipodi:cy="361.4173"
       sodipodi:rx="30.68594"
       sodipodi:ry="17.716536"
       d="m 184.11564,361.4173 c 0,9.78457 -13.73856,17.71653 -30.68594,17.71653 -16.94737,0 -30.68594,-7.93196 -30.68594,-17.71653 0,-9.78458 13.73857,-17.71654 30.68594,-17.71654 16.94738,0 30.68594,7.93196 30.68594,17.71654 z"
       transform="matrix(1.0754129,0,0,1.8626697,-66.000244,24.68811)" />
    <path
       sodipodi:type="arc"
       style="fill:#000000;fill-opacity:1;stroke:none"
       id="path2989-9-5-0-9"
       sodipodi:cx="153.4297"
       sodipodi:cy="361.4173"
       sodipodi:rx="30.68594"
       sodipodi:ry="17.716536"
       d="m 184.11564,361.4173 c 0,9.78457 -13.73856,17.71653 -30.68594,17.71653 -16.94737,0 -30.68594,-7.93196 -30.68594,-17.71653 0,-9.78458 13.73857,-17.71654 30.68594,-17.71654 16.94738,0 30.68594,7.93196 30.68594,17.71654 z"
       transform="matrix(1.0754129,0,0,1.8626697,-2.6809245e-4,24.68811)" />
    <path
       sodipodi:type="arc"
       style="fill:#000000;fill-opacity:1;stroke:none"
       id="path2989-9-4-3-5"
       sodipodi:cx="153.4297"
       sodipodi:cy="361.4173"
       sodipodi:rx="30.68594"
       sodipodi:ry="17.716536"
       d="m 184.11564,361.4173 c 0,9.78457 -13.73856,17.71653 -30.68594,17.71653 -16.94737,0 -30.68594,-7.93196 -30.68594,-17.71653 0,-9.78458 13.73857,-17.71654 30.68594,-17.71654 16.94738,0 30.68594,7.93196 30.68594,17.71654 z"
       transform="matrix(1.0754129,0,0,1.8626697,65.999715,24.68811)" />
    <path
       sodipodi:type="arc"
       style="fill:#000000;fill-opacity:1;stroke:none"
       id="path2989-9-4-0-1-0"
       sodipodi:cx="153.4297"
       sodipodi:cy="361.4173"
       sodipodi:rx="30.68594"
       sodipodi:ry="17.716536"
       d="m 184.11564,361.4173 c 0,9.78457 -13.73856,17.71653 -30.68594,17.71653 -16.94737,0 -30.68594,-7.93196 -30.68594,-17.71653 0,-9.78458 13.73857,-17.71654 30.68594,-17.71654 16.94738,0 30.68594,7.93196 30.68594,17.71654 z"
       transform="matrix(1.0754129,0,0,1.8626697,131.99968,24.68811)" />
    <path
       sodipodi:type="arc"
       style="fill:#000000;fill-opacity:1;stroke:none"
       id="path2989-9-4-0-1-9-9"
       sodipodi:cx="153.4297"
       sodipodi:cy="361.4173"
       sodipodi:rx="30.68594"
       sodipodi:ry="17.716536"
       d="m 184.11564,361.4173 c 0,9.78457 -13.73856,17.71653 -30.68594,17.71653 -16.94737,0 -30.68594,-7.93196 -30.68594,-17.71653 0,-9.78458 13.73857,-17.71654 30.68594,-17.71654 16.94738,0 30.68594,7.93196 30.68594,17.71654 z"
       transform="matrix(1.0754129,0,0,1.8626697,197.99966,24.68811)" />
    <path
       sodipodi:type="arc"
       style="fill:#000000;fill-opacity:1;stroke:none"
       id="path2989-4-8"
       sodipodi:cx="153.4297"
       sodipodi:cy="361.4173"
       sodipodi:rx="30.68594"
       sodipodi:ry="17.716536"
       d="m 184.11564,361.4173 c 0,9.78457 -13.73856,17.71653 -30.68594,17.71653 -16.94737,0 -30.68594,-7.93196 -30.68594,-17.71653 0,-9.78458 13.73857,-17.71654 30.68594,-17.71654 16.94738,0 30.68594,7.93196 30.68594,17.71654 z"
       transform="matrix(1.0754129,0,0,1.8626697,-132.00023,-89.62721)" />
    <path
       sodipodi:type="arc"
       style="fill:#000000;fill-opacity:1;stroke:none"
       id="path2989-9-2-6"
       sodipodi:cx="153.4297"
       sodipodi:cy="361.4173"
       sodipodi:rx="30.68594"
       sodipodi:ry="17.716536"
       d="m 184.11564,361.4173 c 0,9.78457 -13.73856,17.71653 -30.68594,17.71653 -16.94737,0 -30.68594,-7.93196 -30.68594,-17.71653 0,-9.78458 13.73857,-17.71654 30.68594,-17.71654 16.94738,0 30.68594,7.93196 30.68594,17.71654 z"
       transform="matrix(1.0754129,0,0,1.8626697,-66.000244,-89.62721)" />
    <path
       sodipodi:type="arc"
       style="fill:#000000;fill-opacity:1;stroke:none"
       id="path2989-9-5-0-8"
       sodipodi:cx="153.4297"
       sodipodi:cy="361.4173"
       sodipodi:rx="30.68594"
       sodipodi:ry="17.716536"
       d="m 184.11564,361.4173 c 0,9.78457 -13.73856,17.71653 -30.68594,17.71653 -16.94737,0 -30.68594,-7.93196 -30.68594,-17.71653 0,-9.78458 13.73857,-17.71654 30.68594,-17.71654 16.94738,0 30.68594,7.93196 30.68594,17.71654 z"
       transform="matrix(1.0754129,0,0,1.8626697,-2.6809245e-4,-89.62721)" />
    <path
       sodipodi:type="arc"
       style="fill:#000000;fill-opacity:1;stroke:none"
       id="path2989-9-4-3-59"
       sodipodi:cx="153.4297"
       sodipodi:cy="361.4173"
       sodipodi:rx="30.68594"
       sodipodi:ry="17.716536"
       d="m 184.11564,361.4173 c 0,9.78457 -13.73856,17.71653 -30.68594,17.71653 -16.94737,0 -30.68594,-7.93196 -30.68594,-17.71653 0,-9.78458 13.73857,-17.71654 30.68594,-17.71654 16.94738,0 30.68594,7.93196 30.68594,17.71654 z"
       transform="matrix(1.0754129,0,0,1.8626697,65.999715,-89.62721)" />
    <path
       sodipodi:type="arc"
       style="fill:#000000;fill-opacity:1;stroke:none"
       id="path2989-9-4-0-1-3"
       sodipodi:cx="153.4297"
       sodipodi:cy="361.4173"
       sodipodi:rx="30.68594"
       sodipodi:ry="17.716536"
       d="m 184.11564,361.4173 c 0,9.78457 -13.73856,17.71653 -30.68594,17.71653 -16.94737,0 -30.68594,-7.93196 -30.68594,-17.71653 0,-9.78458 13.73857,-17.71654 30.68594,-17.71654 16.94738,0 30.68594,7.93196 30.68594,17.71654 z"
       transform="matrix(1.0754129,0,0,1.8626697,131.99968,-89.62721)" />
    <path
       sodipodi:type="arc"
       style="fill:#000000;fill-opacity:1;stroke:none"
       id="path2989-9-4-0-1-9-2"
       sodipodi:cx="153.4297"
       sodipodi:cy="361.4173"
       sodipodi:rx="30.68594"
       sodipodi:ry="17.716536"
       d="m 184.11564,361.4173 c 0,9.78457 -13.73856,17.71653 -30.68594,17.71653 -16.94737,0 -30.68594,-7.93196 -30.68594,-17.71653 0,-9.78458 13.73857,-17.71654 30.68594,-17.71654 16.94738,0 30.68594,7.93196 30.68594,17.71654 z"
       transform="matrix(1.0754129,0,0,1.8626697,197.99966,-89.62721)" />
    <path
       sodipodi:type="arc"
       style="fill:#000000;fill-opacity:1;stroke:none"
       id="path2989-91-5"
       sodipodi:cx="153.4297"
       sodipodi:cy="361.4173"
       sodipodi:rx="30.68594"
       sodipodi:ry="17.716536"
       d="m 184.11564,361.4173 c 0,9.78457 -13.73856,17.71653 -30.68594,17.71653 -16.94737,0 -30.68594,-7.93196 -30.68594,-17.71653 0,-9.78458 13.73857,-17.71654 30.68594,-17.71654 16.94738,0 30.68594,7.93196 30.68594,17.71654 z"
       transform="matrix(1.0754129,0,0,1.8626697,-99.000237,-32.46955)" />
    <path
       sodipodi:type="arc"
       style="fill:#000000;fill-opacity:1;stroke:none"
       id="path2989-9-8-8"
       sodipodi:cx="153.4297"
       sodipodi:cy="361.4173"
       sodipodi:rx="30.68594"
       sodipodi:ry="17.716536"
       d="m 184.11564,361.4173 c 0,9.78457 -13.73856,17.71653 -30.68594,17.71653 -16.94737,0 -30.68594,-7.93196 -30.68594,-17.71653 0,-9.78458 13.73857,-17.71654 30.68594,-17.71654 16.94738,0 30.68594,7.93196 30.68594,17.71654 z"
       transform="matrix(1.0754129,0,0,1.8626697,-33.000256,-32.46955)" />
    <path
       sodipodi:type="arc"
       style="fill:#000000;fill-opacity:1;stroke:none"
       id="path2989-9-5-8-3"
       sodipodi:cx="153.4297"
       sodipodi:cy="361.4173"
       sodipodi:rx="30.68594"
       sodipodi:ry="17.716536"
       d="m 184.11564,361.4173 c 0,9.78457 -13.73856,17.71653 -30.68594,17.71653 -16.94737,0 -30.68594,-7.93196 -30.68594,-17.71653 0,-9.78458 13.73857,-17.71654 30.68594,-17.71654 16.94738,0 30.68594,7.93196 30.68594,17.71654 z"
       transform="matrix(1.0754129,0,0,1.8626697,32.999725,-32.46955)" />
    <path
       sodipodi:type="arc"
       style="fill:#000000;fill-opacity:1;stroke:none"
       id="path2989-9-4-8-2"
       sodipodi:cx="153.4297"
       sodipodi:cy="361.4173"
       sodipodi:rx="30.68594"
       sodipodi:ry="17.716536"
       d="m 184.11564,361.4173 c 0,9.78457 -13.73856,17.71653 -30.68594,17.71653 -16.94737,0 -30.68594,-7.93196 -30.68594,-17.71653 0,-9.78458 13.73857,-17.71654 30.68594,-17.71654 16.94738,0 30.68594,7.93196 30.68594,17.71654 z"
       transform="matrix(1.0754129,0,0,1.8626697,98.999695,-32.46955)" />
    <path
       sodipodi:type="arc"
       style="fill:#000000;fill-opacity:1;stroke:none"
       id="path2989-9-4-0-5-3"
       sodipodi:cx="153.4297"
       sodipodi:cy="361.4173"
       sodipodi:rx="30.68594"
       sodipodi:ry="17.716536"
       d="m 184.11564,361.4173 c 0,9.78457 -13.73856,17.71653 -30.68594,17.71653 -16.94737,0 -30.68594,-7.93196 -30.68594,-17.71653 0,-9.78458 13.73857,-17.71654 30.68594,-17.71654 16.94738,0 30.68594,7.93196 30.68594,17.71654 z"
       transform="matrix(1.0754129,0,0,1.8626697,164.99966,-32.46955)" />
    <path
       sodipodi:type="arc"
       style="fill:#000000;fill-opacity:1;stroke:none"
       id="path2989-91-4"
       sodipodi:cx="153.4297"
       sodipodi:cy="361.4173"
       sodipodi:rx="30.68594"
       sodipodi:ry="17.716536"
       d="m 184.11564,361.4173 c 0,9.78457 -13.73856,17.71653 -30.68594,17.71653 -16.94737,0 -30.68594,-7.93196 -30.68594,-17.71653 0,-9.78458 13.73857,-17.71654 30.68594,-17.71654 16.94738,0 30.68594,7.93196 30.68594,17.71654 z"
       transform="matrix(1.0754129,0,0,1.8626697,-99.000242,-146.78486)" />
    <path
       sodipodi:type="arc"
       style="fill:#000000;fill-opacity:1;stroke:none"
       id="path2989-9-8-6"
       sodipodi:cx="153.4297"
       sodipodi:cy="361.4173"
       sodipodi:rx="30.68594"
       sodipodi:ry="17.716536"
       d="m 184.11564,361.4173 c 0,9.78457 -13.73856,17.71653 -30.68594,17.71653 -16.94737,0 -30.68594,-7.93196 -30.68594,-17.71653 0,-9.78458 13.73857,-17.71654 30.68594,-17.71654 16.94738,0 30.68594,7.93196 30.68594,17.71654 z"
       transform="matrix(1.0754129,0,0,1.8626697,-33.000261,-146.78486)" />
    <path
       sodipodi:type="arc"
       style="fill:#000000;fill-opacity:1;stroke:none"
       id="path2989-9-5-8-5"
       sodipodi:cx="153.4297"
       sodipodi:cy="361.4173"
       sodipodi:rx="30.68594"
       sodipodi:ry="17.716536"
       d="m 184.11564,361.4173 c 0,9.78457 -13.73856,17.71653 -30.68594,17.71653 -16.94737,0 -30.68594,-7.93196 -30.68594,-17.71653 0,-9.78458 13.73857,-17.71654 30.68594,-17.71654 16.94738,0 30.68594,7.93196 30.68594,17.71654 z"
       transform="matrix(1.0754129,0,0,1.8626697,32.999725,-146.78486)" />
    <path
       sodipodi:type="arc"
       style="fill:#000000;fill-opacity:1;stroke:none"
       id="path2989-9-4-8-4"
       sodipodi:cx="153.4297"
       sodipodi:cy="361.4173"
       sodipodi:rx="30.68594"
       sodipodi:ry="17.716536"
       d="m 184.11564,361.4173 c 0,9.78457 -13.73856,17.71653 -30.68594,17.71653 -16.94737,0 -30.68594,-7.93196 -30.68594,-17.71653 0,-9.78458 13.73857,-17.71654 30.68594,-17.71654 16.94738,0 30.68594,7.93196 30.68594,17.71654 z"
       transform="matrix(1.0754129,0,0,1.8626697,98.999695,-146.78486)" />
    <path
       sodipodi:type="arc"
       style="fill:#000000;fill-opacity:1;stroke:none"
       id="path2989-9-4-0-5-1"
       sodipodi:cx="153.4297"
       sodipodi:cy="361.4173"
       sodipodi:rx="30.68594"
       sodipodi:ry="17.716536"
       d="m 184.11564,361.4173 c 0,9.78457 -13.73856,17.71653 -30.68594,17.71653 -16.94737,0 -30.68594,-7.93196 -30.68594,-17.71653 0,-9.78458 13.73857,-17.71654 30.68594,-17.71654 16.94738,0 30.68594,7.93196 30.68594,17.71654 z"
       transform="matrix(1.0754129,0,0,1.8626697,164.99966,-146.78486)" />
    <text
       xml:space="preserve"
       style="font-size:40px;font-style:normal;font-variant:normal;font-weight:normal;font-stretch:normal;line-height:125%;letter-spacing:0px;word-spacing:0px;fill:#000000;fill-opacity:1;stroke:none;font-family:Monospace;-inkscape-font-specification:Monospace"
       x="103.92853"
       y="1032.0137"
       id="text3997"
       sodipodi:linespacing="125%"><tspan
         sodipodi:role="line"
         id="tspan3999"
         x="103.92853"
         y="1032.0137"
         style="font-size:12px">SHALON-1</tspan><tspan
         sodipodi:role="line"
         x="103.92853"
         y="1047.0137"
         id="tspan4003"
         style="font-size:12px">facets:66cm diameter</tspan></text>
    <rect
       style="fill:#000000;fill-opacity:1;stroke:none"
       id="rect4000"
       width="100"
       height="100"
       x="0"
       y="952.36218" />
    <text
       xml:space="preserve"
       style="font-size:40px;font-style:normal;font-variant:normal;font-weight:normal;font-stretch:normal;line-height:125%;letter-spacing:0px;word-spacing:0px;fill:#000000;fill-opacity:1;stroke:none;font-family:Monospace;-inkscape-font-specification:Monospace"
       x="17.301758"
       y="1006.8153"
       id="text3997-0"
       sodipodi:linespacing="125%"><tspan
         sodipodi:role="line"
         x="17.301758"
         y="1006.8153"
         id="tspan4003-4"
         style="font-size:12px;fill:#ffffff;fill-opacity:1">1 x 1 m^2</tspan></text>
  </g>
</svg>
