<?xml version="1.0" encoding="UTF-8" standalone="no"?>
<!-- Created with Inkscape (http://www.inkscape.org/) -->

<svg
   xmlns:dc="http://purl.org/dc/elements/1.1/"
   xmlns:cc="http://creativecommons.org/ns#"
   xmlns:rdf="http://www.w3.org/1999/02/22-rdf-syntax-ns#"
   xmlns:svg="http://www.w3.org/2000/svg"
   xmlns="http://www.w3.org/2000/svg"
   xmlns:sodipodi="http://sodipodi.sourceforge.net/DTD/sodipodi-0.dtd"
   xmlns:inkscape="http://www.inkscape.org/namespaces/inkscape"
   width="600"
   height="671.59479"
   id="svg87156"
   version="1.1"
   inkscape:version="0.48.4 r9939"
   sodipodi:docname="CANGAROO_III_aperture.svg">
  <defs
     id="defs87158" />
  <sodipodi:namedview
     id="base"
     pagecolor="#ffffff"
     bordercolor="#666666"
     borderopacity="1.0"
     inkscape:pageopacity="0.0"
     inkscape:pageshadow="2"
     inkscape:zoom="0.70710678"
     inkscape:cx="371.32869"
     inkscape:cy="431.70645"
     inkscape:document-units="px"
     inkscape:current-layer="layer1"
     showgrid="false"
     showguides="true"
     inkscape:guide-bbox="true"
     inkscape:window-width="960"
     inkscape:window-height="1028"
     inkscape:window-x="960"
     inkscape:window-y="24"
     inkscape:window-maximized="0"
     fit-margin-top="0"
     fit-margin-left="0"
     fit-margin-right="0"
     fit-margin-bottom="0">
    <inkscape:grid
       type="axonomgrid"
       id="grid87164"
       units="cm"
       empspacing="5"
       visible="true"
       enabled="true"
       snapvisiblegridlinesonly="true"
       spacingy="1cm"
       originx="0cm"
       originy="0cm" />
  </sodipodi:namedview>
  <metadata
     id="metadata87161">
    <rdf:RDF>
      <cc:Work
         rdf:about="">
        <dc:format>image/svg+xml</dc:format>
        <dc:type
           rdf:resource="http://purl.org/dc/dcmitype/StillImage" />
        <dc:title />
      </cc:Work>
    </rdf:RDF>
  </metadata>
  <g
     inkscape:label="Layer 1"
     inkscape:groupmode="layer"
     id="layer1"
     transform="translate(0,-380.76738)">
    <path
       transform="matrix(0.81363175,0,0,1.4092515,-199.62863,294.99695)"
       d="m 337.54535,201.96848 c 0,9.78457 -13.73857,17.71653 -30.68594,17.71653 -16.94738,0 -30.68594,-7.93196 -30.68594,-17.71653 0,-9.78458 13.73856,-17.71654 30.68594,-17.71654 16.94737,0 30.68594,7.93196 30.68594,17.71654 z"
       sodipodi:ry="17.716536"
       sodipodi:rx="30.68594"
       sodipodi:cy="201.96848"
       sodipodi:cx="306.85941"
       id="path109737"
       style="fill:#000000;fill-opacity:1;stroke:none"
       sodipodi:type="arc" />
    <path
       transform="matrix(0.81363175,0,0,1.4092515,-224.7035,338.48734)"
       d="m 337.54535,201.96848 c 0,9.78457 -13.73857,17.71653 -30.68594,17.71653 -16.94738,0 -30.68594,-7.93196 -30.68594,-17.71653 0,-9.78458 13.73856,-17.71654 30.68594,-17.71654 16.94737,0 30.68594,7.93196 30.68594,17.71654 z"
       sodipodi:ry="17.716536"
       sodipodi:rx="30.68594"
       sodipodi:cy="201.96848"
       sodipodi:cx="306.85941"
       id="path109745"
       style="fill:#000000;fill-opacity:1;stroke:none"
       sodipodi:type="arc" />
    <path
       transform="matrix(0.81363175,0,0,1.4092515,-199.62863,468.88384)"
       d="m 337.54535,201.96848 c 0,9.78457 -13.73857,17.71653 -30.68594,17.71653 -16.94738,0 -30.68594,-7.93196 -30.68594,-17.71653 0,-9.78458 13.73856,-17.71654 30.68594,-17.71654 16.94737,0 30.68594,7.93196 30.68594,17.71654 z"
       sodipodi:ry="17.716536"
       sodipodi:rx="30.68594"
       sodipodi:cy="201.96848"
       sodipodi:cx="306.85941"
       id="path109749"
       style="fill:#000000;fill-opacity:1;stroke:none"
       sodipodi:type="arc" />
    <path
       transform="matrix(0.81363175,0,0,1.4092515,-224.7035,425.43079)"
       d="m 337.54535,201.96848 c 0,9.78457 -13.73857,17.71653 -30.68594,17.71653 -16.94738,0 -30.68594,-7.93196 -30.68594,-17.71653 0,-9.78458 13.73856,-17.71654 30.68594,-17.71654 16.94737,0 30.68594,7.93196 30.68594,17.71654 z"
       sodipodi:ry="17.716536"
       sodipodi:rx="30.68594"
       sodipodi:cy="201.96848"
       sodipodi:cx="306.85941"
       id="path109751"
       style="fill:#000000;fill-opacity:1;stroke:none"
       sodipodi:type="arc" />
    <path
       transform="matrix(0.81363175,0,0,1.4092515,-149.62264,208.0535)"
       d="m 337.54535,201.96848 c 0,9.78457 -13.73857,17.71653 -30.68594,17.71653 -16.94738,0 -30.68594,-7.93196 -30.68594,-17.71653 0,-9.78458 13.73856,-17.71654 30.68594,-17.71654 16.94737,0 30.68594,7.93196 30.68594,17.71654 z"
       sodipodi:ry="17.716536"
       sodipodi:rx="30.68594"
       sodipodi:cy="201.96848"
       sodipodi:cx="306.85941"
       id="path109821"
       style="fill:#000000;fill-opacity:1;stroke:none"
       sodipodi:type="arc" />
    <path
       transform="matrix(0.81363175,0,0,1.4092515,-149.62264,294.99695)"
       d="m 337.54535,201.96848 c 0,9.78457 -13.73857,17.71653 -30.68594,17.71653 -16.94738,0 -30.68594,-7.93196 -30.68594,-17.71653 0,-9.78458 13.73856,-17.71654 30.68594,-17.71654 16.94737,0 30.68594,7.93196 30.68594,17.71654 z"
       sodipodi:ry="17.716536"
       sodipodi:rx="30.68594"
       sodipodi:cy="201.96848"
       sodipodi:cx="306.85941"
       id="path109827"
       style="fill:#000000;fill-opacity:1;stroke:none"
       sodipodi:type="arc" />
    <path
       transform="matrix(0.81363175,0,0,1.4092515,-174.69751,251.5439)"
       d="m 337.54535,201.96848 c 0,9.78457 -13.73857,17.71653 -30.68594,17.71653 -16.94738,0 -30.68594,-7.93196 -30.68594,-17.71653 0,-9.78458 13.73856,-17.71654 30.68594,-17.71654 16.94737,0 30.68594,7.93196 30.68594,17.71654 z"
       sodipodi:ry="17.716536"
       sodipodi:rx="30.68594"
       sodipodi:cy="201.96848"
       sodipodi:cx="306.85941"
       id="path109829"
       style="fill:#000000;fill-opacity:1;stroke:none"
       sodipodi:type="arc" />
    <path
       transform="matrix(0.81363175,0,0,1.4092515,-149.62264,381.9404)"
       d="m 337.54535,201.96848 c 0,9.78457 -13.73857,17.71653 -30.68594,17.71653 -16.94738,0 -30.68594,-7.93196 -30.68594,-17.71653 0,-9.78458 13.73856,-17.71654 30.68594,-17.71654 16.94737,0 30.68594,7.93196 30.68594,17.71654 z"
       sodipodi:ry="17.716536"
       sodipodi:rx="30.68594"
       sodipodi:cy="201.96848"
       sodipodi:cx="306.85941"
       id="path109833"
       style="fill:#000000;fill-opacity:1;stroke:none"
       sodipodi:type="arc" />
    <path
       transform="matrix(0.81363175,0,0,1.4092515,-174.69751,338.48734)"
       d="m 337.54535,201.96848 c 0,9.78457 -13.73857,17.71653 -30.68594,17.71653 -16.94738,0 -30.68594,-7.93196 -30.68594,-17.71653 0,-9.78458 13.73856,-17.71654 30.68594,-17.71654 16.94737,0 30.68594,7.93196 30.68594,17.71654 z"
       sodipodi:ry="17.716536"
       sodipodi:rx="30.68594"
       sodipodi:cy="201.96848"
       sodipodi:cx="306.85941"
       id="path109835"
       style="fill:#000000;fill-opacity:1;stroke:none"
       sodipodi:type="arc" />
    <path
       transform="matrix(0.81363175,0,0,1.4092515,-149.62264,468.88384)"
       d="m 337.54535,201.96848 c 0,9.78457 -13.73857,17.71653 -30.68594,17.71653 -16.94738,0 -30.68594,-7.93196 -30.68594,-17.71653 0,-9.78458 13.73856,-17.71654 30.68594,-17.71654 16.94737,0 30.68594,7.93196 30.68594,17.71654 z"
       sodipodi:ry="17.716536"
       sodipodi:rx="30.68594"
       sodipodi:cy="201.96848"
       sodipodi:cx="306.85941"
       id="path109839"
       style="fill:#000000;fill-opacity:1;stroke:none"
       sodipodi:type="arc" />
    <path
       transform="matrix(0.81363175,0,0,1.4092515,-174.69751,425.43079)"
       d="m 337.54535,201.96848 c 0,9.78457 -13.73857,17.71653 -30.68594,17.71653 -16.94738,0 -30.68594,-7.93196 -30.68594,-17.71653 0,-9.78458 13.73856,-17.71654 30.68594,-17.71654 16.94737,0 30.68594,7.93196 30.68594,17.71654 z"
       sodipodi:ry="17.716536"
       sodipodi:rx="30.68594"
       sodipodi:cy="201.96848"
       sodipodi:cx="306.85941"
       id="path109841"
       style="fill:#000000;fill-opacity:1;stroke:none"
       sodipodi:type="arc" />
    <path
       transform="matrix(0.81363175,0,0,1.4092515,-149.62264,555.82729)"
       d="m 337.54535,201.96848 c 0,9.78457 -13.73857,17.71653 -30.68594,17.71653 -16.94738,0 -30.68594,-7.93196 -30.68594,-17.71653 0,-9.78458 13.73856,-17.71654 30.68594,-17.71654 16.94737,0 30.68594,7.93196 30.68594,17.71654 z"
       sodipodi:ry="17.716536"
       sodipodi:rx="30.68594"
       sodipodi:cy="201.96848"
       sodipodi:cx="306.85941"
       id="path109845"
       style="fill:#000000;fill-opacity:1;stroke:none"
       sodipodi:type="arc" />
    <path
       transform="matrix(0.81363175,0,0,1.4092515,-174.69751,512.37424)"
       d="m 337.54535,201.96848 c 0,9.78457 -13.73857,17.71653 -30.68594,17.71653 -16.94738,0 -30.68594,-7.93196 -30.68594,-17.71653 0,-9.78458 13.73856,-17.71654 30.68594,-17.71654 16.94737,0 30.68594,7.93196 30.68594,17.71654 z"
       sodipodi:ry="17.716536"
       sodipodi:rx="30.68594"
       sodipodi:cy="201.96848"
       sodipodi:cx="306.85941"
       id="path109847"
       style="fill:#000000;fill-opacity:1;stroke:none"
       sodipodi:type="arc" />
    <path
       transform="matrix(0.81363175,0,0,1.4092515,-99.616649,208.0535)"
       d="m 337.54535,201.96848 c 0,9.78457 -13.73857,17.71653 -30.68594,17.71653 -16.94738,0 -30.68594,-7.93196 -30.68594,-17.71653 0,-9.78458 13.73856,-17.71654 30.68594,-17.71654 16.94737,0 30.68594,7.93196 30.68594,17.71654 z"
       sodipodi:ry="17.716536"
       sodipodi:rx="30.68594"
       sodipodi:cy="201.96848"
       sodipodi:cx="306.85941"
       id="path109911"
       style="fill:#000000;fill-opacity:1;stroke:none"
       sodipodi:type="arc" />
    <path
       transform="matrix(0.81363175,0,0,1.4092515,-124.69152,164.60045)"
       d="m 337.54535,201.96848 c 0,9.78457 -13.73857,17.71653 -30.68594,17.71653 -16.94738,0 -30.68594,-7.93196 -30.68594,-17.71653 0,-9.78458 13.73856,-17.71654 30.68594,-17.71654 16.94737,0 30.68594,7.93196 30.68594,17.71654 z"
       sodipodi:ry="17.716536"
       sodipodi:rx="30.68594"
       sodipodi:cy="201.96848"
       sodipodi:cx="306.85941"
       id="path109913"
       style="fill:#000000;fill-opacity:1;stroke:none"
       sodipodi:type="arc" />
    <path
       transform="matrix(0.81363175,0,0,1.4092515,-99.616649,294.99695)"
       d="m 337.54535,201.96848 c 0,9.78457 -13.73857,17.71653 -30.68594,17.71653 -16.94738,0 -30.68594,-7.93196 -30.68594,-17.71653 0,-9.78458 13.73856,-17.71654 30.68594,-17.71654 16.94737,0 30.68594,7.93196 30.68594,17.71654 z"
       sodipodi:ry="17.716536"
       sodipodi:rx="30.68594"
       sodipodi:cy="201.96848"
       sodipodi:cx="306.85941"
       id="path109917"
       style="fill:#000000;fill-opacity:1;stroke:none"
       sodipodi:type="arc" />
    <path
       transform="matrix(0.81363175,0,0,1.4092515,-124.69152,251.5439)"
       d="m 337.54535,201.96848 c 0,9.78457 -13.73857,17.71653 -30.68594,17.71653 -16.94738,0 -30.68594,-7.93196 -30.68594,-17.71653 0,-9.78458 13.73856,-17.71654 30.68594,-17.71654 16.94737,0 30.68594,7.93196 30.68594,17.71654 z"
       sodipodi:ry="17.716536"
       sodipodi:rx="30.68594"
       sodipodi:cy="201.96848"
       sodipodi:cx="306.85941"
       id="path109919"
       style="fill:#000000;fill-opacity:1;stroke:none"
       sodipodi:type="arc" />
    <path
       transform="matrix(0.81363175,0,0,1.4092515,-99.616649,381.9404)"
       d="m 337.54535,201.96848 c 0,9.78457 -13.73857,17.71653 -30.68594,17.71653 -16.94738,0 -30.68594,-7.93196 -30.68594,-17.71653 0,-9.78458 13.73856,-17.71654 30.68594,-17.71654 16.94737,0 30.68594,7.93196 30.68594,17.71654 z"
       sodipodi:ry="17.716536"
       sodipodi:rx="30.68594"
       sodipodi:cy="201.96848"
       sodipodi:cx="306.85941"
       id="path109923"
       style="fill:#000000;fill-opacity:1;stroke:none"
       sodipodi:type="arc" />
    <path
       transform="matrix(0.81363175,0,0,1.4092515,-124.69152,338.48734)"
       d="m 337.54535,201.96848 c 0,9.78457 -13.73857,17.71653 -30.68594,17.71653 -16.94738,0 -30.68594,-7.93196 -30.68594,-17.71653 0,-9.78458 13.73856,-17.71654 30.68594,-17.71654 16.94737,0 30.68594,7.93196 30.68594,17.71654 z"
       sodipodi:ry="17.716536"
       sodipodi:rx="30.68594"
       sodipodi:cy="201.96848"
       sodipodi:cx="306.85941"
       id="path109925"
       style="fill:#000000;fill-opacity:1;stroke:none"
       sodipodi:type="arc" />
    <path
       transform="matrix(0.81363175,0,0,1.4092515,-99.616649,468.88384)"
       d="m 337.54535,201.96848 c 0,9.78457 -13.73857,17.71653 -30.68594,17.71653 -16.94738,0 -30.68594,-7.93196 -30.68594,-17.71653 0,-9.78458 13.73856,-17.71654 30.68594,-17.71654 16.94737,0 30.68594,7.93196 30.68594,17.71654 z"
       sodipodi:ry="17.716536"
       sodipodi:rx="30.68594"
       sodipodi:cy="201.96848"
       sodipodi:cx="306.85941"
       id="path109929"
       style="fill:#000000;fill-opacity:1;stroke:none"
       sodipodi:type="arc" />
    <path
       transform="matrix(0.81363175,0,0,1.4092515,-124.69152,425.43079)"
       d="m 337.54535,201.96848 c 0,9.78457 -13.73857,17.71653 -30.68594,17.71653 -16.94738,0 -30.68594,-7.93196 -30.68594,-17.71653 0,-9.78458 13.73856,-17.71654 30.68594,-17.71654 16.94737,0 30.68594,7.93196 30.68594,17.71654 z"
       sodipodi:ry="17.716536"
       sodipodi:rx="30.68594"
       sodipodi:cy="201.96848"
       sodipodi:cx="306.85941"
       id="path109931"
       style="fill:#000000;fill-opacity:1;stroke:none"
       sodipodi:type="arc" />
    <path
       transform="matrix(0.81363175,0,0,1.4092515,-99.616649,555.82729)"
       d="m 337.54535,201.96848 c 0,9.78457 -13.73857,17.71653 -30.68594,17.71653 -16.94738,0 -30.68594,-7.93196 -30.68594,-17.71653 0,-9.78458 13.73856,-17.71654 30.68594,-17.71654 16.94737,0 30.68594,7.93196 30.68594,17.71654 z"
       sodipodi:ry="17.716536"
       sodipodi:rx="30.68594"
       sodipodi:cy="201.96848"
       sodipodi:cx="306.85941"
       id="path109935"
       style="fill:#000000;fill-opacity:1;stroke:none"
       sodipodi:type="arc" />
    <path
       transform="matrix(0.81363175,0,0,1.4092515,-124.69152,512.37424)"
       d="m 337.54535,201.96848 c 0,9.78457 -13.73857,17.71653 -30.68594,17.71653 -16.94738,0 -30.68594,-7.93196 -30.68594,-17.71653 0,-9.78458 13.73856,-17.71654 30.68594,-17.71654 16.94737,0 30.68594,7.93196 30.68594,17.71654 z"
       sodipodi:ry="17.716536"
       sodipodi:rx="30.68594"
       sodipodi:cy="201.96848"
       sodipodi:cx="306.85941"
       id="path109937"
       style="fill:#000000;fill-opacity:1;stroke:none"
       sodipodi:type="arc" />
    <path
       transform="matrix(0.81363175,0,0,1.4092515,-124.69152,599.31769)"
       d="m 337.54535,201.96848 c 0,9.78457 -13.73857,17.71653 -30.68594,17.71653 -16.94738,0 -30.68594,-7.93196 -30.68594,-17.71653 0,-9.78458 13.73856,-17.71654 30.68594,-17.71654 16.94737,0 30.68594,7.93196 30.68594,17.71654 z"
       sodipodi:ry="17.716536"
       sodipodi:rx="30.68594"
       sodipodi:cy="201.96848"
       sodipodi:cx="306.85941"
       id="path109943"
       style="fill:#000000;fill-opacity:1;stroke:none"
       sodipodi:type="arc" />
    <path
       transform="matrix(0.81363175,0,0,1.4092515,-49.610665,121.11006)"
       d="m 337.54535,201.96848 c 0,9.78457 -13.73857,17.71653 -30.68594,17.71653 -16.94738,0 -30.68594,-7.93196 -30.68594,-17.71653 0,-9.78458 13.73856,-17.71654 30.68594,-17.71654 16.94737,0 30.68594,7.93196 30.68594,17.71654 z"
       sodipodi:ry="17.716536"
       sodipodi:rx="30.68594"
       sodipodi:cy="201.96848"
       sodipodi:cx="306.85941"
       id="path109995"
       style="fill:#000000;fill-opacity:1;stroke:none"
       sodipodi:type="arc" />
    <path
       transform="matrix(0.81363175,0,0,1.4092515,-49.610665,208.0535)"
       d="m 337.54535,201.96848 c 0,9.78457 -13.73857,17.71653 -30.68594,17.71653 -16.94738,0 -30.68594,-7.93196 -30.68594,-17.71653 0,-9.78458 13.73856,-17.71654 30.68594,-17.71654 16.94737,0 30.68594,7.93196 30.68594,17.71654 z"
       sodipodi:ry="17.716536"
       sodipodi:rx="30.68594"
       sodipodi:cy="201.96848"
       sodipodi:cx="306.85941"
       id="path110001"
       style="fill:#000000;fill-opacity:1;stroke:none"
       sodipodi:type="arc" />
    <path
       transform="matrix(0.81363175,0,0,1.4092515,-49.610665,294.99695)"
       d="m 337.54535,201.96848 c 0,9.78457 -13.73857,17.71653 -30.68594,17.71653 -16.94738,0 -30.68594,-7.93196 -30.68594,-17.71653 0,-9.78458 13.73856,-17.71654 30.68594,-17.71654 16.94737,0 30.68594,7.93196 30.68594,17.71654 z"
       sodipodi:ry="17.716536"
       sodipodi:rx="30.68594"
       sodipodi:cy="201.96848"
       sodipodi:cx="306.85941"
       id="path110007"
       style="fill:#000000;fill-opacity:1;stroke:none"
       sodipodi:type="arc" />
    <path
       transform="matrix(0.81363175,0,0,1.4092515,-74.685534,251.5439)"
       d="m 337.54535,201.96848 c 0,9.78457 -13.73857,17.71653 -30.68594,17.71653 -16.94738,0 -30.68594,-7.93196 -30.68594,-17.71653 0,-9.78458 13.73856,-17.71654 30.68594,-17.71654 16.94737,0 30.68594,7.93196 30.68594,17.71654 z"
       sodipodi:ry="17.716536"
       sodipodi:rx="30.68594"
       sodipodi:cy="201.96848"
       sodipodi:cx="306.85941"
       id="path110009"
       style="fill:#000000;fill-opacity:1;stroke:none"
       sodipodi:type="arc" />
    <path
       transform="matrix(0.81363175,0,0,1.4092515,-49.610665,381.9404)"
       d="m 337.54535,201.96848 c 0,9.78457 -13.73857,17.71653 -30.68594,17.71653 -16.94738,0 -30.68594,-7.93196 -30.68594,-17.71653 0,-9.78458 13.73856,-17.71654 30.68594,-17.71654 16.94737,0 30.68594,7.93196 30.68594,17.71654 z"
       sodipodi:ry="17.716536"
       sodipodi:rx="30.68594"
       sodipodi:cy="201.96848"
       sodipodi:cx="306.85941"
       id="path110013"
       style="fill:#000000;fill-opacity:1;stroke:none"
       sodipodi:type="arc" />
    <path
       transform="matrix(0.81363175,0,0,1.4092515,-74.685534,338.48734)"
       d="m 337.54535,201.96848 c 0,9.78457 -13.73857,17.71653 -30.68594,17.71653 -16.94738,0 -30.68594,-7.93196 -30.68594,-17.71653 0,-9.78458 13.73856,-17.71654 30.68594,-17.71654 16.94737,0 30.68594,7.93196 30.68594,17.71654 z"
       sodipodi:ry="17.716536"
       sodipodi:rx="30.68594"
       sodipodi:cy="201.96848"
       sodipodi:cx="306.85941"
       id="path110015"
       style="fill:#000000;fill-opacity:1;stroke:none"
       sodipodi:type="arc" />
    <path
       transform="matrix(0.81363175,0,0,1.4092515,-49.610665,468.88384)"
       d="m 337.54535,201.96848 c 0,9.78457 -13.73857,17.71653 -30.68594,17.71653 -16.94738,0 -30.68594,-7.93196 -30.68594,-17.71653 0,-9.78458 13.73856,-17.71654 30.68594,-17.71654 16.94737,0 30.68594,7.93196 30.68594,17.71654 z"
       sodipodi:ry="17.716536"
       sodipodi:rx="30.68594"
       sodipodi:cy="201.96848"
       sodipodi:cx="306.85941"
       id="path110019"
       style="fill:#000000;fill-opacity:1;stroke:none"
       sodipodi:type="arc" />
    <path
       transform="matrix(0.81363175,0,0,1.4092515,-74.685534,425.43079)"
       d="m 337.54535,201.96848 c 0,9.78457 -13.73857,17.71653 -30.68594,17.71653 -16.94738,0 -30.68594,-7.93196 -30.68594,-17.71653 0,-9.78458 13.73856,-17.71654 30.68594,-17.71654 16.94737,0 30.68594,7.93196 30.68594,17.71654 z"
       sodipodi:ry="17.716536"
       sodipodi:rx="30.68594"
       sodipodi:cy="201.96848"
       sodipodi:cx="306.85941"
       id="path110021"
       style="fill:#000000;fill-opacity:1;stroke:none"
       sodipodi:type="arc" />
    <path
       transform="matrix(0.81363175,0,0,1.4092515,-49.610665,555.82729)"
       d="m 337.54535,201.96848 c 0,9.78457 -13.73857,17.71653 -30.68594,17.71653 -16.94738,0 -30.68594,-7.93196 -30.68594,-17.71653 0,-9.78458 13.73856,-17.71654 30.68594,-17.71654 16.94737,0 30.68594,7.93196 30.68594,17.71654 z"
       sodipodi:ry="17.716536"
       sodipodi:rx="30.68594"
       sodipodi:cy="201.96848"
       sodipodi:cx="306.85941"
       id="path110025"
       style="fill:#000000;fill-opacity:1;stroke:none"
       sodipodi:type="arc" />
    <path
       transform="matrix(0.81363175,0,0,1.4092515,-74.685534,512.37424)"
       d="m 337.54535,201.96848 c 0,9.78457 -13.73857,17.71653 -30.68594,17.71653 -16.94738,0 -30.68594,-7.93196 -30.68594,-17.71653 0,-9.78458 13.73856,-17.71654 30.68594,-17.71654 16.94737,0 30.68594,7.93196 30.68594,17.71654 z"
       sodipodi:ry="17.716536"
       sodipodi:rx="30.68594"
       sodipodi:cy="201.96848"
       sodipodi:cx="306.85941"
       id="path110027"
       style="fill:#000000;fill-opacity:1;stroke:none"
       sodipodi:type="arc" />
    <path
       transform="matrix(0.81363175,0,0,1.4092515,-49.610665,642.77075)"
       d="m 337.54535,201.96848 c 0,9.78457 -13.73857,17.71653 -30.68594,17.71653 -16.94738,0 -30.68594,-7.93196 -30.68594,-17.71653 0,-9.78458 13.73856,-17.71654 30.68594,-17.71654 16.94737,0 30.68594,7.93196 30.68594,17.71654 z"
       sodipodi:ry="17.716536"
       sodipodi:rx="30.68594"
       sodipodi:cy="201.96848"
       sodipodi:cx="306.85941"
       id="path110031"
       style="fill:#000000;fill-opacity:1;stroke:none"
       sodipodi:type="arc" />
    <path
       transform="matrix(0.81363175,0,0,1.4092515,0.39532578,121.11006)"
       d="m 337.54535,201.96848 c 0,9.78457 -13.73857,17.71653 -30.68594,17.71653 -16.94738,0 -30.68594,-7.93196 -30.68594,-17.71653 0,-9.78458 13.73856,-17.71654 30.68594,-17.71654 16.94737,0 30.68594,7.93196 30.68594,17.71654 z"
       sodipodi:ry="17.716536"
       sodipodi:rx="30.68594"
       sodipodi:cy="201.96848"
       sodipodi:cx="306.85941"
       id="path110085"
       style="fill:#000000;fill-opacity:1;stroke:none"
       sodipodi:type="arc" />
    <path
       transform="matrix(0.81363175,0,0,1.4092515,0.39532578,208.0535)"
       d="m 337.54535,201.96848 c 0,9.78457 -13.73857,17.71653 -30.68594,17.71653 -16.94738,0 -30.68594,-7.93196 -30.68594,-17.71653 0,-9.78458 13.73856,-17.71654 30.68594,-17.71654 16.94737,0 30.68594,7.93196 30.68594,17.71654 z"
       sodipodi:ry="17.716536"
       sodipodi:rx="30.68594"
       sodipodi:cy="201.96848"
       sodipodi:cx="306.85941"
       id="path110091"
       style="fill:#000000;fill-opacity:1;stroke:none"
       sodipodi:type="arc" />
    <path
       transform="matrix(0.81363175,0,0,1.4092515,-24.679542,164.60045)"
       d="m 337.54535,201.96848 c 0,9.78457 -13.73857,17.71653 -30.68594,17.71653 -16.94738,0 -30.68594,-7.93196 -30.68594,-17.71653 0,-9.78458 13.73856,-17.71654 30.68594,-17.71654 16.94737,0 30.68594,7.93196 30.68594,17.71654 z"
       sodipodi:ry="17.716536"
       sodipodi:rx="30.68594"
       sodipodi:cy="201.96848"
       sodipodi:cx="306.85941"
       id="path110093"
       style="fill:#000000;fill-opacity:1;stroke:none"
       sodipodi:type="arc" />
    <path
       transform="matrix(0.81363175,0,0,1.4092515,0.39532578,294.99695)"
       d="m 337.54535,201.96848 c 0,9.78457 -13.73857,17.71653 -30.68594,17.71653 -16.94738,0 -30.68594,-7.93196 -30.68594,-17.71653 0,-9.78458 13.73856,-17.71654 30.68594,-17.71654 16.94737,0 30.68594,7.93196 30.68594,17.71654 z"
       sodipodi:ry="17.716536"
       sodipodi:rx="30.68594"
       sodipodi:cy="201.96848"
       sodipodi:cx="306.85941"
       id="path110097"
       style="fill:#000000;fill-opacity:1;stroke:none"
       sodipodi:type="arc" />
    <path
       transform="matrix(0.81363175,0,0,1.4092515,-24.679542,251.5439)"
       d="m 337.54535,201.96848 c 0,9.78457 -13.73857,17.71653 -30.68594,17.71653 -16.94738,0 -30.68594,-7.93196 -30.68594,-17.71653 0,-9.78458 13.73856,-17.71654 30.68594,-17.71654 16.94737,0 30.68594,7.93196 30.68594,17.71654 z"
       sodipodi:ry="17.716536"
       sodipodi:rx="30.68594"
       sodipodi:cy="201.96848"
       sodipodi:cx="306.85941"
       id="path110099"
       style="fill:#000000;fill-opacity:1;stroke:none"
       sodipodi:type="arc" />
    <path
       transform="matrix(0.81363175,0,0,1.4092515,0.39532578,381.9404)"
       d="m 337.54535,201.96848 c 0,9.78457 -13.73857,17.71653 -30.68594,17.71653 -16.94738,0 -30.68594,-7.93196 -30.68594,-17.71653 0,-9.78458 13.73856,-17.71654 30.68594,-17.71654 16.94737,0 30.68594,7.93196 30.68594,17.71654 z"
       sodipodi:ry="17.716536"
       sodipodi:rx="30.68594"
       sodipodi:cy="201.96848"
       sodipodi:cx="306.85941"
       id="path110103"
       style="fill:#000000;fill-opacity:1;stroke:none"
       sodipodi:type="arc" />
    <path
       transform="matrix(0.81363175,0,0,1.4092515,-24.679542,338.48734)"
       d="m 337.54535,201.96848 c 0,9.78457 -13.73857,17.71653 -30.68594,17.71653 -16.94738,0 -30.68594,-7.93196 -30.68594,-17.71653 0,-9.78458 13.73856,-17.71654 30.68594,-17.71654 16.94737,0 30.68594,7.93196 30.68594,17.71654 z"
       sodipodi:ry="17.716536"
       sodipodi:rx="30.68594"
       sodipodi:cy="201.96848"
       sodipodi:cx="306.85941"
       id="path110105"
       style="fill:#000000;fill-opacity:1;stroke:none"
       sodipodi:type="arc" />
    <path
       transform="matrix(0.81363175,0,0,1.4092515,0.39532578,468.88384)"
       d="m 337.54535,201.96848 c 0,9.78457 -13.73857,17.71653 -30.68594,17.71653 -16.94738,0 -30.68594,-7.93196 -30.68594,-17.71653 0,-9.78458 13.73856,-17.71654 30.68594,-17.71654 16.94737,0 30.68594,7.93196 30.68594,17.71654 z"
       sodipodi:ry="17.716536"
       sodipodi:rx="30.68594"
       sodipodi:cy="201.96848"
       sodipodi:cx="306.85941"
       id="path110109"
       style="fill:#000000;fill-opacity:1;stroke:none"
       sodipodi:type="arc" />
    <path
       transform="matrix(0.81363175,0,0,1.4092515,-24.679542,425.43079)"
       d="m 337.54535,201.96848 c 0,9.78457 -13.73857,17.71653 -30.68594,17.71653 -16.94738,0 -30.68594,-7.93196 -30.68594,-17.71653 0,-9.78458 13.73856,-17.71654 30.68594,-17.71654 16.94737,0 30.68594,7.93196 30.68594,17.71654 z"
       sodipodi:ry="17.716536"
       sodipodi:rx="30.68594"
       sodipodi:cy="201.96848"
       sodipodi:cx="306.85941"
       id="path110111"
       style="fill:#000000;fill-opacity:1;stroke:none"
       sodipodi:type="arc" />
    <path
       transform="matrix(0.81363175,0,0,1.4092515,0.39532578,555.82729)"
       d="m 337.54535,201.96848 c 0,9.78457 -13.73857,17.71653 -30.68594,17.71653 -16.94738,0 -30.68594,-7.93196 -30.68594,-17.71653 0,-9.78458 13.73856,-17.71654 30.68594,-17.71654 16.94737,0 30.68594,7.93196 30.68594,17.71654 z"
       sodipodi:ry="17.716536"
       sodipodi:rx="30.68594"
       sodipodi:cy="201.96848"
       sodipodi:cx="306.85941"
       id="path110115"
       style="fill:#000000;fill-opacity:1;stroke:none"
       sodipodi:type="arc" />
    <path
       transform="matrix(0.81363175,0,0,1.4092515,-24.679542,512.37424)"
       d="m 337.54535,201.96848 c 0,9.78457 -13.73857,17.71653 -30.68594,17.71653 -16.94738,0 -30.68594,-7.93196 -30.68594,-17.71653 0,-9.78458 13.73856,-17.71654 30.68594,-17.71654 16.94737,0 30.68594,7.93196 30.68594,17.71654 z"
       sodipodi:ry="17.716536"
       sodipodi:rx="30.68594"
       sodipodi:cy="201.96848"
       sodipodi:cx="306.85941"
       id="path110117"
       style="fill:#000000;fill-opacity:1;stroke:none"
       sodipodi:type="arc" />
    <path
       transform="matrix(0.81363175,0,0,1.4092515,0.39532578,642.77075)"
       d="m 337.54535,201.96848 c 0,9.78457 -13.73857,17.71653 -30.68594,17.71653 -16.94738,0 -30.68594,-7.93196 -30.68594,-17.71653 0,-9.78458 13.73856,-17.71654 30.68594,-17.71654 16.94737,0 30.68594,7.93196 30.68594,17.71654 z"
       sodipodi:ry="17.716536"
       sodipodi:rx="30.68594"
       sodipodi:cy="201.96848"
       sodipodi:cx="306.85941"
       id="path110121"
       style="fill:#000000;fill-opacity:1;stroke:none"
       sodipodi:type="arc" />
    <path
       transform="matrix(0.81363175,0,0,1.4092515,-24.679542,599.31769)"
       d="m 337.54535,201.96848 c 0,9.78457 -13.73857,17.71653 -30.68594,17.71653 -16.94738,0 -30.68594,-7.93196 -30.68594,-17.71653 0,-9.78458 13.73856,-17.71654 30.68594,-17.71654 16.94737,0 30.68594,7.93196 30.68594,17.71654 z"
       sodipodi:ry="17.716536"
       sodipodi:rx="30.68594"
       sodipodi:cy="201.96848"
       sodipodi:cx="306.85941"
       id="path110123"
       style="fill:#000000;fill-opacity:1;stroke:none"
       sodipodi:type="arc" />
    <path
       transform="matrix(0.81363175,0,0,1.4092515,50.401309,121.11006)"
       d="m 337.54535,201.96848 c 0,9.78457 -13.73857,17.71653 -30.68594,17.71653 -16.94738,0 -30.68594,-7.93196 -30.68594,-17.71653 0,-9.78458 13.73856,-17.71654 30.68594,-17.71654 16.94737,0 30.68594,7.93196 30.68594,17.71654 z"
       sodipodi:ry="17.716536"
       sodipodi:rx="30.68594"
       sodipodi:cy="201.96848"
       sodipodi:cx="306.85941"
       id="path110175"
       style="fill:#000000;fill-opacity:1;stroke:none"
       sodipodi:type="arc" />
    <path
       transform="matrix(0.81363175,0,0,1.4092515,50.401309,208.0535)"
       d="m 337.54535,201.96848 c 0,9.78457 -13.73857,17.71653 -30.68594,17.71653 -16.94738,0 -30.68594,-7.93196 -30.68594,-17.71653 0,-9.78458 13.73856,-17.71654 30.68594,-17.71654 16.94737,0 30.68594,7.93196 30.68594,17.71654 z"
       sodipodi:ry="17.716536"
       sodipodi:rx="30.68594"
       sodipodi:cy="201.96848"
       sodipodi:cx="306.85941"
       id="path110181"
       style="fill:#000000;fill-opacity:1;stroke:none"
       sodipodi:type="arc" />
    <path
       transform="matrix(0.81363175,0,0,1.4092515,25.326441,164.60045)"
       d="m 337.54535,201.96848 c 0,9.78457 -13.73857,17.71653 -30.68594,17.71653 -16.94738,0 -30.68594,-7.93196 -30.68594,-17.71653 0,-9.78458 13.73856,-17.71654 30.68594,-17.71654 16.94737,0 30.68594,7.93196 30.68594,17.71654 z"
       sodipodi:ry="17.716536"
       sodipodi:rx="30.68594"
       sodipodi:cy="201.96848"
       sodipodi:cx="306.85941"
       id="path110183"
       style="fill:#000000;fill-opacity:1;stroke:none"
       sodipodi:type="arc" />
    <path
       transform="matrix(0.81363175,0,0,1.4092515,50.401309,294.99695)"
       d="m 337.54535,201.96848 c 0,9.78457 -13.73857,17.71653 -30.68594,17.71653 -16.94738,0 -30.68594,-7.93196 -30.68594,-17.71653 0,-9.78458 13.73856,-17.71654 30.68594,-17.71654 16.94737,0 30.68594,7.93196 30.68594,17.71654 z"
       sodipodi:ry="17.716536"
       sodipodi:rx="30.68594"
       sodipodi:cy="201.96848"
       sodipodi:cx="306.85941"
       id="path110187"
       style="fill:#000000;fill-opacity:1;stroke:none"
       sodipodi:type="arc" />
    <path
       transform="matrix(0.81363175,0,0,1.4092515,25.326441,251.5439)"
       d="m 337.54535,201.96848 c 0,9.78457 -13.73857,17.71653 -30.68594,17.71653 -16.94738,0 -30.68594,-7.93196 -30.68594,-17.71653 0,-9.78458 13.73856,-17.71654 30.68594,-17.71654 16.94737,0 30.68594,7.93196 30.68594,17.71654 z"
       sodipodi:ry="17.716536"
       sodipodi:rx="30.68594"
       sodipodi:cy="201.96848"
       sodipodi:cx="306.85941"
       id="path110189"
       style="fill:#000000;fill-opacity:1;stroke:none"
       sodipodi:type="arc" />
    <path
       transform="matrix(0.81363175,0,0,1.4092515,25.326441,338.48734)"
       d="m 337.54535,201.96848 c 0,9.78457 -13.73857,17.71653 -30.68594,17.71653 -16.94738,0 -30.68594,-7.93196 -30.68594,-17.71653 0,-9.78458 13.73856,-17.71654 30.68594,-17.71654 16.94737,0 30.68594,7.93196 30.68594,17.71654 z"
       sodipodi:ry="17.716536"
       sodipodi:rx="30.68594"
       sodipodi:cy="201.96848"
       sodipodi:cx="306.85941"
       id="path110195"
       style="fill:#000000;fill-opacity:1;stroke:none"
       sodipodi:type="arc" />
    <path
       transform="matrix(0.81363175,0,0,1.4092515,50.401309,468.88384)"
       d="m 337.54535,201.96848 c 0,9.78457 -13.73857,17.71653 -30.68594,17.71653 -16.94738,0 -30.68594,-7.93196 -30.68594,-17.71653 0,-9.78458 13.73856,-17.71654 30.68594,-17.71654 16.94737,0 30.68594,7.93196 30.68594,17.71654 z"
       sodipodi:ry="17.716536"
       sodipodi:rx="30.68594"
       sodipodi:cy="201.96848"
       sodipodi:cx="306.85941"
       id="path110199"
       style="fill:#000000;fill-opacity:1;stroke:none"
       sodipodi:type="arc" />
    <path
       transform="matrix(0.81363175,0,0,1.4092515,25.326441,425.43079)"
       d="m 337.54535,201.96848 c 0,9.78457 -13.73857,17.71653 -30.68594,17.71653 -16.94738,0 -30.68594,-7.93196 -30.68594,-17.71653 0,-9.78458 13.73856,-17.71654 30.68594,-17.71654 16.94737,0 30.68594,7.93196 30.68594,17.71654 z"
       sodipodi:ry="17.716536"
       sodipodi:rx="30.68594"
       sodipodi:cy="201.96848"
       sodipodi:cx="306.85941"
       id="path110201"
       style="fill:#000000;fill-opacity:1;stroke:none"
       sodipodi:type="arc" />
    <path
       transform="matrix(0.81363175,0,0,1.4092515,50.401309,555.82729)"
       d="m 337.54535,201.96848 c 0,9.78457 -13.73857,17.71653 -30.68594,17.71653 -16.94738,0 -30.68594,-7.93196 -30.68594,-17.71653 0,-9.78458 13.73856,-17.71654 30.68594,-17.71654 16.94737,0 30.68594,7.93196 30.68594,17.71654 z"
       sodipodi:ry="17.716536"
       sodipodi:rx="30.68594"
       sodipodi:cy="201.96848"
       sodipodi:cx="306.85941"
       id="path110205"
       style="fill:#000000;fill-opacity:1;stroke:none"
       sodipodi:type="arc" />
    <path
       transform="matrix(0.81363175,0,0,1.4092515,25.326441,512.37424)"
       d="m 337.54535,201.96848 c 0,9.78457 -13.73857,17.71653 -30.68594,17.71653 -16.94738,0 -30.68594,-7.93196 -30.68594,-17.71653 0,-9.78458 13.73856,-17.71654 30.68594,-17.71654 16.94737,0 30.68594,7.93196 30.68594,17.71654 z"
       sodipodi:ry="17.716536"
       sodipodi:rx="30.68594"
       sodipodi:cy="201.96848"
       sodipodi:cx="306.85941"
       id="path110207"
       style="fill:#000000;fill-opacity:1;stroke:none"
       sodipodi:type="arc" />
    <path
       transform="matrix(0.81363175,0,0,1.4092515,50.401309,642.77075)"
       d="m 337.54535,201.96848 c 0,9.78457 -13.73857,17.71653 -30.68594,17.71653 -16.94738,0 -30.68594,-7.93196 -30.68594,-17.71653 0,-9.78458 13.73856,-17.71654 30.68594,-17.71654 16.94737,0 30.68594,7.93196 30.68594,17.71654 z"
       sodipodi:ry="17.716536"
       sodipodi:rx="30.68594"
       sodipodi:cy="201.96848"
       sodipodi:cx="306.85941"
       id="path110211"
       style="fill:#000000;fill-opacity:1;stroke:none"
       sodipodi:type="arc" />
    <path
       transform="matrix(0.81363175,0,0,1.4092515,25.326441,599.31769)"
       d="m 337.54535,201.96848 c 0,9.78457 -13.73857,17.71653 -30.68594,17.71653 -16.94738,0 -30.68594,-7.93196 -30.68594,-17.71653 0,-9.78458 13.73856,-17.71654 30.68594,-17.71654 16.94737,0 30.68594,7.93196 30.68594,17.71654 z"
       sodipodi:ry="17.716536"
       sodipodi:rx="30.68594"
       sodipodi:cy="201.96848"
       sodipodi:cx="306.85941"
       id="path110213"
       style="fill:#000000;fill-opacity:1;stroke:none"
       sodipodi:type="arc" />
    <path
       transform="matrix(0.81363175,0,0,1.4092515,100.4073,121.11006)"
       d="m 337.54535,201.96848 c 0,9.78457 -13.73857,17.71653 -30.68594,17.71653 -16.94738,0 -30.68594,-7.93196 -30.68594,-17.71653 0,-9.78458 13.73856,-17.71654 30.68594,-17.71654 16.94737,0 30.68594,7.93196 30.68594,17.71654 z"
       sodipodi:ry="17.716536"
       sodipodi:rx="30.68594"
       sodipodi:cy="201.96848"
       sodipodi:cx="306.85941"
       id="path110265"
       style="fill:#000000;fill-opacity:1;stroke:none"
       sodipodi:type="arc" />
    <path
       transform="matrix(0.81363175,0,0,1.4092515,100.4073,208.0535)"
       d="m 337.54535,201.96848 c 0,9.78457 -13.73857,17.71653 -30.68594,17.71653 -16.94738,0 -30.68594,-7.93196 -30.68594,-17.71653 0,-9.78458 13.73856,-17.71654 30.68594,-17.71654 16.94737,0 30.68594,7.93196 30.68594,17.71654 z"
       sodipodi:ry="17.716536"
       sodipodi:rx="30.68594"
       sodipodi:cy="201.96848"
       sodipodi:cx="306.85941"
       id="path110271"
       style="fill:#000000;fill-opacity:1;stroke:none"
       sodipodi:type="arc" />
    <path
       transform="matrix(0.81363175,0,0,1.4092515,75.33243,164.60045)"
       d="m 337.54535,201.96848 c 0,9.78457 -13.73857,17.71653 -30.68594,17.71653 -16.94738,0 -30.68594,-7.93196 -30.68594,-17.71653 0,-9.78458 13.73856,-17.71654 30.68594,-17.71654 16.94737,0 30.68594,7.93196 30.68594,17.71654 z"
       sodipodi:ry="17.716536"
       sodipodi:rx="30.68594"
       sodipodi:cy="201.96848"
       sodipodi:cx="306.85941"
       id="path110273"
       style="fill:#000000;fill-opacity:1;stroke:none"
       sodipodi:type="arc" />
    <path
       transform="matrix(0.81363175,0,0,1.4092515,100.4073,294.99695)"
       d="m 337.54535,201.96848 c 0,9.78457 -13.73857,17.71653 -30.68594,17.71653 -16.94738,0 -30.68594,-7.93196 -30.68594,-17.71653 0,-9.78458 13.73856,-17.71654 30.68594,-17.71654 16.94737,0 30.68594,7.93196 30.68594,17.71654 z"
       sodipodi:ry="17.716536"
       sodipodi:rx="30.68594"
       sodipodi:cy="201.96848"
       sodipodi:cx="306.85941"
       id="path110277"
       style="fill:#000000;fill-opacity:1;stroke:none"
       sodipodi:type="arc" />
    <path
       transform="matrix(0.81363175,0,0,1.4092515,75.33243,251.5439)"
       d="m 337.54535,201.96848 c 0,9.78457 -13.73857,17.71653 -30.68594,17.71653 -16.94738,0 -30.68594,-7.93196 -30.68594,-17.71653 0,-9.78458 13.73856,-17.71654 30.68594,-17.71654 16.94737,0 30.68594,7.93196 30.68594,17.71654 z"
       sodipodi:ry="17.716536"
       sodipodi:rx="30.68594"
       sodipodi:cy="201.96848"
       sodipodi:cx="306.85941"
       id="path110279"
       style="fill:#000000;fill-opacity:1;stroke:none"
       sodipodi:type="arc" />
    <path
       transform="matrix(0.81363175,0,0,1.4092515,100.4073,381.9404)"
       d="m 337.54535,201.96848 c 0,9.78457 -13.73857,17.71653 -30.68594,17.71653 -16.94738,0 -30.68594,-7.93196 -30.68594,-17.71653 0,-9.78458 13.73856,-17.71654 30.68594,-17.71654 16.94737,0 30.68594,7.93196 30.68594,17.71654 z"
       sodipodi:ry="17.716536"
       sodipodi:rx="30.68594"
       sodipodi:cy="201.96848"
       sodipodi:cx="306.85941"
       id="path110283"
       style="fill:#000000;fill-opacity:1;stroke:none"
       sodipodi:type="arc" />
    <path
       transform="matrix(0.81363175,0,0,1.4092515,75.33243,338.48734)"
       d="m 337.54535,201.96848 c 0,9.78457 -13.73857,17.71653 -30.68594,17.71653 -16.94738,0 -30.68594,-7.93196 -30.68594,-17.71653 0,-9.78458 13.73856,-17.71654 30.68594,-17.71654 16.94737,0 30.68594,7.93196 30.68594,17.71654 z"
       sodipodi:ry="17.716536"
       sodipodi:rx="30.68594"
       sodipodi:cy="201.96848"
       sodipodi:cx="306.85941"
       id="path110285"
       style="fill:#000000;fill-opacity:1;stroke:none"
       sodipodi:type="arc" />
    <path
       transform="matrix(0.81363175,0,0,1.4092515,100.4073,468.88384)"
       d="m 337.54535,201.96848 c 0,9.78457 -13.73857,17.71653 -30.68594,17.71653 -16.94738,0 -30.68594,-7.93196 -30.68594,-17.71653 0,-9.78458 13.73856,-17.71654 30.68594,-17.71654 16.94737,0 30.68594,7.93196 30.68594,17.71654 z"
       sodipodi:ry="17.716536"
       sodipodi:rx="30.68594"
       sodipodi:cy="201.96848"
       sodipodi:cx="306.85941"
       id="path110289"
       style="fill:#000000;fill-opacity:1;stroke:none"
       sodipodi:type="arc" />
    <path
       transform="matrix(0.81363175,0,0,1.4092515,75.33243,425.43079)"
       d="m 337.54535,201.96848 c 0,9.78457 -13.73857,17.71653 -30.68594,17.71653 -16.94738,0 -30.68594,-7.93196 -30.68594,-17.71653 0,-9.78458 13.73856,-17.71654 30.68594,-17.71654 16.94737,0 30.68594,7.93196 30.68594,17.71654 z"
       sodipodi:ry="17.716536"
       sodipodi:rx="30.68594"
       sodipodi:cy="201.96848"
       sodipodi:cx="306.85941"
       id="path110291"
       style="fill:#000000;fill-opacity:1;stroke:none"
       sodipodi:type="arc" />
    <path
       transform="matrix(0.81363175,0,0,1.4092515,100.4073,555.82729)"
       d="m 337.54535,201.96848 c 0,9.78457 -13.73857,17.71653 -30.68594,17.71653 -16.94738,0 -30.68594,-7.93196 -30.68594,-17.71653 0,-9.78458 13.73856,-17.71654 30.68594,-17.71654 16.94737,0 30.68594,7.93196 30.68594,17.71654 z"
       sodipodi:ry="17.716536"
       sodipodi:rx="30.68594"
       sodipodi:cy="201.96848"
       sodipodi:cx="306.85941"
       id="path110295"
       style="fill:#000000;fill-opacity:1;stroke:none"
       sodipodi:type="arc" />
    <path
       transform="matrix(0.81363175,0,0,1.4092515,75.33243,512.37424)"
       d="m 337.54535,201.96848 c 0,9.78457 -13.73857,17.71653 -30.68594,17.71653 -16.94738,0 -30.68594,-7.93196 -30.68594,-17.71653 0,-9.78458 13.73856,-17.71654 30.68594,-17.71654 16.94737,0 30.68594,7.93196 30.68594,17.71654 z"
       sodipodi:ry="17.716536"
       sodipodi:rx="30.68594"
       sodipodi:cy="201.96848"
       sodipodi:cx="306.85941"
       id="path110297"
       style="fill:#000000;fill-opacity:1;stroke:none"
       sodipodi:type="arc" />
    <path
       transform="matrix(0.81363175,0,0,1.4092515,100.4073,642.77075)"
       d="m 337.54535,201.96848 c 0,9.78457 -13.73857,17.71653 -30.68594,17.71653 -16.94738,0 -30.68594,-7.93196 -30.68594,-17.71653 0,-9.78458 13.73856,-17.71654 30.68594,-17.71654 16.94737,0 30.68594,7.93196 30.68594,17.71654 z"
       sodipodi:ry="17.716536"
       sodipodi:rx="30.68594"
       sodipodi:cy="201.96848"
       sodipodi:cx="306.85941"
       id="path110301"
       style="fill:#000000;fill-opacity:1;stroke:none"
       sodipodi:type="arc" />
    <path
       transform="matrix(0.81363175,0,0,1.4092515,75.33243,599.31769)"
       d="m 337.54535,201.96848 c 0,9.78457 -13.73857,17.71653 -30.68594,17.71653 -16.94738,0 -30.68594,-7.93196 -30.68594,-17.71653 0,-9.78458 13.73856,-17.71654 30.68594,-17.71654 16.94737,0 30.68594,7.93196 30.68594,17.71654 z"
       sodipodi:ry="17.716536"
       sodipodi:rx="30.68594"
       sodipodi:cy="201.96848"
       sodipodi:cx="306.85941"
       id="path110303"
       style="fill:#000000;fill-opacity:1;stroke:none"
       sodipodi:type="arc" />
    <path
       transform="matrix(0.81363175,0,0,1.4092515,150.41328,121.11006)"
       d="m 337.54535,201.96848 c 0,9.78457 -13.73857,17.71653 -30.68594,17.71653 -16.94738,0 -30.68594,-7.93196 -30.68594,-17.71653 0,-9.78458 13.73856,-17.71654 30.68594,-17.71654 16.94737,0 30.68594,7.93196 30.68594,17.71654 z"
       sodipodi:ry="17.716536"
       sodipodi:rx="30.68594"
       sodipodi:cy="201.96848"
       sodipodi:cx="306.85941"
       id="path110355"
       style="fill:#000000;fill-opacity:1;stroke:none"
       sodipodi:type="arc" />
    <path
       transform="matrix(0.81363175,0,0,1.4092515,150.41328,208.0535)"
       d="m 337.54535,201.96848 c 0,9.78457 -13.73857,17.71653 -30.68594,17.71653 -16.94738,0 -30.68594,-7.93196 -30.68594,-17.71653 0,-9.78458 13.73856,-17.71654 30.68594,-17.71654 16.94737,0 30.68594,7.93196 30.68594,17.71654 z"
       sodipodi:ry="17.716536"
       sodipodi:rx="30.68594"
       sodipodi:cy="201.96848"
       sodipodi:cx="306.85941"
       id="path110361"
       style="fill:#000000;fill-opacity:1;stroke:none"
       sodipodi:type="arc" />
    <path
       transform="matrix(0.81363175,0,0,1.4092515,125.33842,164.60045)"
       d="m 337.54535,201.96848 c 0,9.78457 -13.73857,17.71653 -30.68594,17.71653 -16.94738,0 -30.68594,-7.93196 -30.68594,-17.71653 0,-9.78458 13.73856,-17.71654 30.68594,-17.71654 16.94737,0 30.68594,7.93196 30.68594,17.71654 z"
       sodipodi:ry="17.716536"
       sodipodi:rx="30.68594"
       sodipodi:cy="201.96848"
       sodipodi:cx="306.85941"
       id="path110363"
       style="fill:#000000;fill-opacity:1;stroke:none"
       sodipodi:type="arc" />
    <path
       transform="matrix(0.81363175,0,0,1.4092515,150.41328,294.99695)"
       d="m 337.54535,201.96848 c 0,9.78457 -13.73857,17.71653 -30.68594,17.71653 -16.94738,0 -30.68594,-7.93196 -30.68594,-17.71653 0,-9.78458 13.73856,-17.71654 30.68594,-17.71654 16.94737,0 30.68594,7.93196 30.68594,17.71654 z"
       sodipodi:ry="17.716536"
       sodipodi:rx="30.68594"
       sodipodi:cy="201.96848"
       sodipodi:cx="306.85941"
       id="path110367"
       style="fill:#000000;fill-opacity:1;stroke:none"
       sodipodi:type="arc" />
    <path
       transform="matrix(0.81363175,0,0,1.4092515,125.33842,251.5439)"
       d="m 337.54535,201.96848 c 0,9.78457 -13.73857,17.71653 -30.68594,17.71653 -16.94738,0 -30.68594,-7.93196 -30.68594,-17.71653 0,-9.78458 13.73856,-17.71654 30.68594,-17.71654 16.94737,0 30.68594,7.93196 30.68594,17.71654 z"
       sodipodi:ry="17.716536"
       sodipodi:rx="30.68594"
       sodipodi:cy="201.96848"
       sodipodi:cx="306.85941"
       id="path110369"
       style="fill:#000000;fill-opacity:1;stroke:none"
       sodipodi:type="arc" />
    <path
       transform="matrix(0.81363175,0,0,1.4092515,150.41328,381.9404)"
       d="m 337.54535,201.96848 c 0,9.78457 -13.73857,17.71653 -30.68594,17.71653 -16.94738,0 -30.68594,-7.93196 -30.68594,-17.71653 0,-9.78458 13.73856,-17.71654 30.68594,-17.71654 16.94737,0 30.68594,7.93196 30.68594,17.71654 z"
       sodipodi:ry="17.716536"
       sodipodi:rx="30.68594"
       sodipodi:cy="201.96848"
       sodipodi:cx="306.85941"
       id="path110373"
       style="fill:#000000;fill-opacity:1;stroke:none"
       sodipodi:type="arc" />
    <path
       transform="matrix(0.81363175,0,0,1.4092515,125.33842,338.48734)"
       d="m 337.54535,201.96848 c 0,9.78457 -13.73857,17.71653 -30.68594,17.71653 -16.94738,0 -30.68594,-7.93196 -30.68594,-17.71653 0,-9.78458 13.73856,-17.71654 30.68594,-17.71654 16.94737,0 30.68594,7.93196 30.68594,17.71654 z"
       sodipodi:ry="17.716536"
       sodipodi:rx="30.68594"
       sodipodi:cy="201.96848"
       sodipodi:cx="306.85941"
       id="path110375"
       style="fill:#000000;fill-opacity:1;stroke:none"
       sodipodi:type="arc" />
    <path
       transform="matrix(0.81363175,0,0,1.4092515,150.41328,468.88384)"
       d="m 337.54535,201.96848 c 0,9.78457 -13.73857,17.71653 -30.68594,17.71653 -16.94738,0 -30.68594,-7.93196 -30.68594,-17.71653 0,-9.78458 13.73856,-17.71654 30.68594,-17.71654 16.94737,0 30.68594,7.93196 30.68594,17.71654 z"
       sodipodi:ry="17.716536"
       sodipodi:rx="30.68594"
       sodipodi:cy="201.96848"
       sodipodi:cx="306.85941"
       id="path110379"
       style="fill:#000000;fill-opacity:1;stroke:none"
       sodipodi:type="arc" />
    <path
       transform="matrix(0.81363175,0,0,1.4092515,125.33842,425.43079)"
       d="m 337.54535,201.96848 c 0,9.78457 -13.73857,17.71653 -30.68594,17.71653 -16.94738,0 -30.68594,-7.93196 -30.68594,-17.71653 0,-9.78458 13.73856,-17.71654 30.68594,-17.71654 16.94737,0 30.68594,7.93196 30.68594,17.71654 z"
       sodipodi:ry="17.716536"
       sodipodi:rx="30.68594"
       sodipodi:cy="201.96848"
       sodipodi:cx="306.85941"
       id="path110381"
       style="fill:#000000;fill-opacity:1;stroke:none"
       sodipodi:type="arc" />
    <path
       transform="matrix(0.81363175,0,0,1.4092515,150.41328,555.82729)"
       d="m 337.54535,201.96848 c 0,9.78457 -13.73857,17.71653 -30.68594,17.71653 -16.94738,0 -30.68594,-7.93196 -30.68594,-17.71653 0,-9.78458 13.73856,-17.71654 30.68594,-17.71654 16.94737,0 30.68594,7.93196 30.68594,17.71654 z"
       sodipodi:ry="17.716536"
       sodipodi:rx="30.68594"
       sodipodi:cy="201.96848"
       sodipodi:cx="306.85941"
       id="path110385"
       style="fill:#000000;fill-opacity:1;stroke:none"
       sodipodi:type="arc" />
    <path
       transform="matrix(0.81363175,0,0,1.4092515,125.33842,512.37424)"
       d="m 337.54535,201.96848 c 0,9.78457 -13.73857,17.71653 -30.68594,17.71653 -16.94738,0 -30.68594,-7.93196 -30.68594,-17.71653 0,-9.78458 13.73856,-17.71654 30.68594,-17.71654 16.94737,0 30.68594,7.93196 30.68594,17.71654 z"
       sodipodi:ry="17.716536"
       sodipodi:rx="30.68594"
       sodipodi:cy="201.96848"
       sodipodi:cx="306.85941"
       id="path110387"
       style="fill:#000000;fill-opacity:1;stroke:none"
       sodipodi:type="arc" />
    <path
       transform="matrix(0.81363175,0,0,1.4092515,150.41328,642.77075)"
       d="m 337.54535,201.96848 c 0,9.78457 -13.73857,17.71653 -30.68594,17.71653 -16.94738,0 -30.68594,-7.93196 -30.68594,-17.71653 0,-9.78458 13.73856,-17.71654 30.68594,-17.71654 16.94737,0 30.68594,7.93196 30.68594,17.71654 z"
       sodipodi:ry="17.716536"
       sodipodi:rx="30.68594"
       sodipodi:cy="201.96848"
       sodipodi:cx="306.85941"
       id="path110391"
       style="fill:#000000;fill-opacity:1;stroke:none"
       sodipodi:type="arc" />
    <path
       transform="matrix(0.81363175,0,0,1.4092515,125.33842,599.31769)"
       d="m 337.54535,201.96848 c 0,9.78457 -13.73857,17.71653 -30.68594,17.71653 -16.94738,0 -30.68594,-7.93196 -30.68594,-17.71653 0,-9.78458 13.73856,-17.71654 30.68594,-17.71654 16.94737,0 30.68594,7.93196 30.68594,17.71654 z"
       sodipodi:ry="17.716536"
       sodipodi:rx="30.68594"
       sodipodi:cy="201.96848"
       sodipodi:cx="306.85941"
       id="path110393"
       style="fill:#000000;fill-opacity:1;stroke:none"
       sodipodi:type="arc" />
    <path
       transform="matrix(0.81363175,0,0,1.4092515,200.41928,208.0535)"
       d="m 337.54535,201.96848 c 0,9.78457 -13.73857,17.71653 -30.68594,17.71653 -16.94738,0 -30.68594,-7.93196 -30.68594,-17.71653 0,-9.78458 13.73856,-17.71654 30.68594,-17.71654 16.94737,0 30.68594,7.93196 30.68594,17.71654 z"
       sodipodi:ry="17.716536"
       sodipodi:rx="30.68594"
       sodipodi:cy="201.96848"
       sodipodi:cx="306.85941"
       id="path110451"
       style="fill:#000000;fill-opacity:1;stroke:none"
       sodipodi:type="arc" />
    <path
       transform="matrix(0.81363175,0,0,1.4092515,200.41928,294.99695)"
       d="m 337.54535,201.96848 c 0,9.78457 -13.73857,17.71653 -30.68594,17.71653 -16.94738,0 -30.68594,-7.93196 -30.68594,-17.71653 0,-9.78458 13.73856,-17.71654 30.68594,-17.71654 16.94737,0 30.68594,7.93196 30.68594,17.71654 z"
       sodipodi:ry="17.716536"
       sodipodi:rx="30.68594"
       sodipodi:cy="201.96848"
       sodipodi:cx="306.85941"
       id="path110457"
       style="fill:#000000;fill-opacity:1;stroke:none"
       sodipodi:type="arc" />
    <path
       transform="matrix(0.81363175,0,0,1.4092515,175.34441,251.5439)"
       d="m 337.54535,201.96848 c 0,9.78457 -13.73857,17.71653 -30.68594,17.71653 -16.94738,0 -30.68594,-7.93196 -30.68594,-17.71653 0,-9.78458 13.73856,-17.71654 30.68594,-17.71654 16.94737,0 30.68594,7.93196 30.68594,17.71654 z"
       sodipodi:ry="17.716536"
       sodipodi:rx="30.68594"
       sodipodi:cy="201.96848"
       sodipodi:cx="306.85941"
       id="path110459"
       style="fill:#000000;fill-opacity:1;stroke:none"
       sodipodi:type="arc" />
    <path
       transform="matrix(0.81363175,0,0,1.4092515,200.41928,381.9404)"
       d="m 337.54535,201.96848 c 0,9.78457 -13.73857,17.71653 -30.68594,17.71653 -16.94738,0 -30.68594,-7.93196 -30.68594,-17.71653 0,-9.78458 13.73856,-17.71654 30.68594,-17.71654 16.94737,0 30.68594,7.93196 30.68594,17.71654 z"
       sodipodi:ry="17.716536"
       sodipodi:rx="30.68594"
       sodipodi:cy="201.96848"
       sodipodi:cx="306.85941"
       id="path110463"
       style="fill:#000000;fill-opacity:1;stroke:none"
       sodipodi:type="arc" />
    <path
       transform="matrix(0.81363175,0,0,1.4092515,175.34441,338.48734)"
       d="m 337.54535,201.96848 c 0,9.78457 -13.73857,17.71653 -30.68594,17.71653 -16.94738,0 -30.68594,-7.93196 -30.68594,-17.71653 0,-9.78458 13.73856,-17.71654 30.68594,-17.71654 16.94737,0 30.68594,7.93196 30.68594,17.71654 z"
       sodipodi:ry="17.716536"
       sodipodi:rx="30.68594"
       sodipodi:cy="201.96848"
       sodipodi:cx="306.85941"
       id="path110465"
       style="fill:#000000;fill-opacity:1;stroke:none"
       sodipodi:type="arc" />
    <path
       transform="matrix(0.81363175,0,0,1.4092515,200.41928,468.88384)"
       d="m 337.54535,201.96848 c 0,9.78457 -13.73857,17.71653 -30.68594,17.71653 -16.94738,0 -30.68594,-7.93196 -30.68594,-17.71653 0,-9.78458 13.73856,-17.71654 30.68594,-17.71654 16.94737,0 30.68594,7.93196 30.68594,17.71654 z"
       sodipodi:ry="17.716536"
       sodipodi:rx="30.68594"
       sodipodi:cy="201.96848"
       sodipodi:cx="306.85941"
       id="path110469"
       style="fill:#000000;fill-opacity:1;stroke:none"
       sodipodi:type="arc" />
    <path
       transform="matrix(0.81363175,0,0,1.4092515,175.34441,425.43079)"
       d="m 337.54535,201.96848 c 0,9.78457 -13.73857,17.71653 -30.68594,17.71653 -16.94738,0 -30.68594,-7.93196 -30.68594,-17.71653 0,-9.78458 13.73856,-17.71654 30.68594,-17.71654 16.94737,0 30.68594,7.93196 30.68594,17.71654 z"
       sodipodi:ry="17.716536"
       sodipodi:rx="30.68594"
       sodipodi:cy="201.96848"
       sodipodi:cx="306.85941"
       id="path110471"
       style="fill:#000000;fill-opacity:1;stroke:none"
       sodipodi:type="arc" />
    <path
       transform="matrix(0.81363175,0,0,1.4092515,200.41928,555.82729)"
       d="m 337.54535,201.96848 c 0,9.78457 -13.73857,17.71653 -30.68594,17.71653 -16.94738,0 -30.68594,-7.93196 -30.68594,-17.71653 0,-9.78458 13.73856,-17.71654 30.68594,-17.71654 16.94737,0 30.68594,7.93196 30.68594,17.71654 z"
       sodipodi:ry="17.716536"
       sodipodi:rx="30.68594"
       sodipodi:cy="201.96848"
       sodipodi:cx="306.85941"
       id="path110475"
       style="fill:#000000;fill-opacity:1;stroke:none"
       sodipodi:type="arc" />
    <path
       transform="matrix(0.81363175,0,0,1.4092515,175.34441,512.37424)"
       d="m 337.54535,201.96848 c 0,9.78457 -13.73857,17.71653 -30.68594,17.71653 -16.94738,0 -30.68594,-7.93196 -30.68594,-17.71653 0,-9.78458 13.73856,-17.71654 30.68594,-17.71654 16.94737,0 30.68594,7.93196 30.68594,17.71654 z"
       sodipodi:ry="17.716536"
       sodipodi:rx="30.68594"
       sodipodi:cy="201.96848"
       sodipodi:cx="306.85941"
       id="path110477"
       style="fill:#000000;fill-opacity:1;stroke:none"
       sodipodi:type="arc" />
    <path
       transform="matrix(0.81363175,0,0,1.4092515,250.42527,208.0535)"
       d="m 337.54535,201.96848 c 0,9.78457 -13.73857,17.71653 -30.68594,17.71653 -16.94738,0 -30.68594,-7.93196 -30.68594,-17.71653 0,-9.78458 13.73856,-17.71654 30.68594,-17.71654 16.94737,0 30.68594,7.93196 30.68594,17.71654 z"
       sodipodi:ry="17.716536"
       sodipodi:rx="30.68594"
       sodipodi:cy="201.96848"
       sodipodi:cx="306.85941"
       id="path110541"
       style="fill:#000000;fill-opacity:1;stroke:none"
       sodipodi:type="arc" />
    <path
       transform="matrix(0.81363175,0,0,1.4092515,225.3504,164.60045)"
       d="m 337.54535,201.96848 c 0,9.78457 -13.73857,17.71653 -30.68594,17.71653 -16.94738,0 -30.68594,-7.93196 -30.68594,-17.71653 0,-9.78458 13.73856,-17.71654 30.68594,-17.71654 16.94737,0 30.68594,7.93196 30.68594,17.71654 z"
       sodipodi:ry="17.716536"
       sodipodi:rx="30.68594"
       sodipodi:cy="201.96848"
       sodipodi:cx="306.85941"
       id="path110543"
       style="fill:#000000;fill-opacity:1;stroke:none"
       sodipodi:type="arc" />
    <path
       transform="matrix(0.81363175,0,0,1.4092515,250.42527,294.99695)"
       d="m 337.54535,201.96848 c 0,9.78457 -13.73857,17.71653 -30.68594,17.71653 -16.94738,0 -30.68594,-7.93196 -30.68594,-17.71653 0,-9.78458 13.73856,-17.71654 30.68594,-17.71654 16.94737,0 30.68594,7.93196 30.68594,17.71654 z"
       sodipodi:ry="17.716536"
       sodipodi:rx="30.68594"
       sodipodi:cy="201.96848"
       sodipodi:cx="306.85941"
       id="path110547"
       style="fill:#000000;fill-opacity:1;stroke:none"
       sodipodi:type="arc" />
    <path
       transform="matrix(0.81363175,0,0,1.4092515,225.3504,251.5439)"
       d="m 337.54535,201.96848 c 0,9.78457 -13.73857,17.71653 -30.68594,17.71653 -16.94738,0 -30.68594,-7.93196 -30.68594,-17.71653 0,-9.78458 13.73856,-17.71654 30.68594,-17.71654 16.94737,0 30.68594,7.93196 30.68594,17.71654 z"
       sodipodi:ry="17.716536"
       sodipodi:rx="30.68594"
       sodipodi:cy="201.96848"
       sodipodi:cx="306.85941"
       id="path110549"
       style="fill:#000000;fill-opacity:1;stroke:none"
       sodipodi:type="arc" />
    <path
       transform="matrix(0.81363175,0,0,1.4092515,250.42527,381.9404)"
       d="m 337.54535,201.96848 c 0,9.78457 -13.73857,17.71653 -30.68594,17.71653 -16.94738,0 -30.68594,-7.93196 -30.68594,-17.71653 0,-9.78458 13.73856,-17.71654 30.68594,-17.71654 16.94737,0 30.68594,7.93196 30.68594,17.71654 z"
       sodipodi:ry="17.716536"
       sodipodi:rx="30.68594"
       sodipodi:cy="201.96848"
       sodipodi:cx="306.85941"
       id="path110553"
       style="fill:#000000;fill-opacity:1;stroke:none"
       sodipodi:type="arc" />
    <path
       transform="matrix(0.81363175,0,0,1.4092515,225.3504,338.48734)"
       d="m 337.54535,201.96848 c 0,9.78457 -13.73857,17.71653 -30.68594,17.71653 -16.94738,0 -30.68594,-7.93196 -30.68594,-17.71653 0,-9.78458 13.73856,-17.71654 30.68594,-17.71654 16.94737,0 30.68594,7.93196 30.68594,17.71654 z"
       sodipodi:ry="17.716536"
       sodipodi:rx="30.68594"
       sodipodi:cy="201.96848"
       sodipodi:cx="306.85941"
       id="path110555"
       style="fill:#000000;fill-opacity:1;stroke:none"
       sodipodi:type="arc" />
    <path
       transform="matrix(0.81363175,0,0,1.4092515,250.42527,468.88384)"
       d="m 337.54535,201.96848 c 0,9.78457 -13.73857,17.71653 -30.68594,17.71653 -16.94738,0 -30.68594,-7.93196 -30.68594,-17.71653 0,-9.78458 13.73856,-17.71654 30.68594,-17.71654 16.94737,0 30.68594,7.93196 30.68594,17.71654 z"
       sodipodi:ry="17.716536"
       sodipodi:rx="30.68594"
       sodipodi:cy="201.96848"
       sodipodi:cx="306.85941"
       id="path110559"
       style="fill:#000000;fill-opacity:1;stroke:none"
       sodipodi:type="arc" />
    <path
       transform="matrix(0.81363175,0,0,1.4092515,225.3504,425.43079)"
       d="m 337.54535,201.96848 c 0,9.78457 -13.73857,17.71653 -30.68594,17.71653 -16.94738,0 -30.68594,-7.93196 -30.68594,-17.71653 0,-9.78458 13.73856,-17.71654 30.68594,-17.71654 16.94737,0 30.68594,7.93196 30.68594,17.71654 z"
       sodipodi:ry="17.716536"
       sodipodi:rx="30.68594"
       sodipodi:cy="201.96848"
       sodipodi:cx="306.85941"
       id="path110561"
       style="fill:#000000;fill-opacity:1;stroke:none"
       sodipodi:type="arc" />
    <path
       transform="matrix(0.81363175,0,0,1.4092515,250.42527,555.82729)"
       d="m 337.54535,201.96848 c 0,9.78457 -13.73857,17.71653 -30.68594,17.71653 -16.94738,0 -30.68594,-7.93196 -30.68594,-17.71653 0,-9.78458 13.73856,-17.71654 30.68594,-17.71654 16.94737,0 30.68594,7.93196 30.68594,17.71654 z"
       sodipodi:ry="17.716536"
       sodipodi:rx="30.68594"
       sodipodi:cy="201.96848"
       sodipodi:cx="306.85941"
       id="path110565"
       style="fill:#000000;fill-opacity:1;stroke:none"
       sodipodi:type="arc" />
    <path
       transform="matrix(0.81363175,0,0,1.4092515,225.3504,512.37424)"
       d="m 337.54535,201.96848 c 0,9.78457 -13.73857,17.71653 -30.68594,17.71653 -16.94738,0 -30.68594,-7.93196 -30.68594,-17.71653 0,-9.78458 13.73856,-17.71654 30.68594,-17.71654 16.94737,0 30.68594,7.93196 30.68594,17.71654 z"
       sodipodi:ry="17.716536"
       sodipodi:rx="30.68594"
       sodipodi:cy="201.96848"
       sodipodi:cx="306.85941"
       id="path110567"
       style="fill:#000000;fill-opacity:1;stroke:none"
       sodipodi:type="arc" />
    <path
       transform="matrix(0.81363175,0,0,1.4092515,225.3504,599.31769)"
       d="m 337.54535,201.96848 c 0,9.78457 -13.73857,17.71653 -30.68594,17.71653 -16.94738,0 -30.68594,-7.93196 -30.68594,-17.71653 0,-9.78458 13.73856,-17.71654 30.68594,-17.71654 16.94737,0 30.68594,7.93196 30.68594,17.71654 z"
       sodipodi:ry="17.716536"
       sodipodi:rx="30.68594"
       sodipodi:cy="201.96848"
       sodipodi:cx="306.85941"
       id="path110573"
       style="fill:#000000;fill-opacity:1;stroke:none"
       sodipodi:type="arc" />
    <path
       transform="matrix(0.81363175,0,0,1.4092515,300.43125,294.99695)"
       d="m 337.54535,201.96848 c 0,9.78457 -13.73857,17.71653 -30.68594,17.71653 -16.94738,0 -30.68594,-7.93196 -30.68594,-17.71653 0,-9.78458 13.73856,-17.71654 30.68594,-17.71654 16.94737,0 30.68594,7.93196 30.68594,17.71654 z"
       sodipodi:ry="17.716536"
       sodipodi:rx="30.68594"
       sodipodi:cy="201.96848"
       sodipodi:cx="306.85941"
       id="path110637"
       style="fill:#000000;fill-opacity:1;stroke:none"
       sodipodi:type="arc" />
    <path
       transform="matrix(0.81363175,0,0,1.4092515,275.35638,251.5439)"
       d="m 337.54535,201.96848 c 0,9.78457 -13.73857,17.71653 -30.68594,17.71653 -16.94738,0 -30.68594,-7.93196 -30.68594,-17.71653 0,-9.78458 13.73856,-17.71654 30.68594,-17.71654 16.94737,0 30.68594,7.93196 30.68594,17.71654 z"
       sodipodi:ry="17.716536"
       sodipodi:rx="30.68594"
       sodipodi:cy="201.96848"
       sodipodi:cx="306.85941"
       id="path110639"
       style="fill:#000000;fill-opacity:1;stroke:none"
       sodipodi:type="arc" />
    <path
       transform="matrix(0.81363175,0,0,1.4092515,275.35638,338.48734)"
       d="m 337.54535,201.96848 c 0,9.78457 -13.73857,17.71653 -30.68594,17.71653 -16.94738,0 -30.68594,-7.93196 -30.68594,-17.71653 0,-9.78458 13.73856,-17.71654 30.68594,-17.71654 16.94737,0 30.68594,7.93196 30.68594,17.71654 z"
       sodipodi:ry="17.716536"
       sodipodi:rx="30.68594"
       sodipodi:cy="201.96848"
       sodipodi:cx="306.85941"
       id="path110645"
       style="fill:#000000;fill-opacity:1;stroke:none"
       sodipodi:type="arc" />
    <path
       transform="matrix(0.81363175,0,0,1.4092515,300.43125,468.88384)"
       d="m 337.54535,201.96848 c 0,9.78457 -13.73857,17.71653 -30.68594,17.71653 -16.94738,0 -30.68594,-7.93196 -30.68594,-17.71653 0,-9.78458 13.73856,-17.71654 30.68594,-17.71654 16.94737,0 30.68594,7.93196 30.68594,17.71654 z"
       sodipodi:ry="17.716536"
       sodipodi:rx="30.68594"
       sodipodi:cy="201.96848"
       sodipodi:cx="306.85941"
       id="path110649"
       style="fill:#000000;fill-opacity:1;stroke:none"
       sodipodi:type="arc" />
    <path
       transform="matrix(0.81363175,0,0,1.4092515,275.35638,425.43079)"
       d="m 337.54535,201.96848 c 0,9.78457 -13.73857,17.71653 -30.68594,17.71653 -16.94738,0 -30.68594,-7.93196 -30.68594,-17.71653 0,-9.78458 13.73856,-17.71654 30.68594,-17.71654 16.94737,0 30.68594,7.93196 30.68594,17.71654 z"
       sodipodi:ry="17.716536"
       sodipodi:rx="30.68594"
       sodipodi:cy="201.96848"
       sodipodi:cx="306.85941"
       id="path110651"
       style="fill:#000000;fill-opacity:1;stroke:none"
       sodipodi:type="arc" />
    <path
       transform="matrix(0.81363175,0,0,1.4092515,275.35638,512.37424)"
       d="m 337.54535,201.96848 c 0,9.78457 -13.73857,17.71653 -30.68594,17.71653 -16.94738,0 -30.68594,-7.93196 -30.68594,-17.71653 0,-9.78458 13.73856,-17.71654 30.68594,-17.71654 16.94737,0 30.68594,7.93196 30.68594,17.71654 z"
       sodipodi:ry="17.716536"
       sodipodi:rx="30.68594"
       sodipodi:cy="201.96848"
       sodipodi:cx="306.85941"
       id="path110657"
       style="fill:#000000;fill-opacity:1;stroke:none"
       sodipodi:type="arc" />
    <path
       transform="matrix(0.81363175,0,0,1.4092515,325.36239,338.48734)"
       d="m 337.54535,201.96848 c 0,9.78457 -13.73857,17.71653 -30.68594,17.71653 -16.94738,0 -30.68594,-7.93196 -30.68594,-17.71653 0,-9.78458 13.73856,-17.71654 30.68594,-17.71654 16.94737,0 30.68594,7.93196 30.68594,17.71654 z"
       sodipodi:ry="17.716536"
       sodipodi:rx="30.68594"
       sodipodi:cy="201.96848"
       sodipodi:cx="306.85941"
       id="path110735"
       style="fill:#000000;fill-opacity:1;stroke:none"
       sodipodi:type="arc" />
    <path
       transform="matrix(0.81363175,0,0,1.4092515,325.36239,425.43079)"
       d="m 337.54535,201.96848 c 0,9.78457 -13.73857,17.71653 -30.68594,17.71653 -16.94738,0 -30.68594,-7.93196 -30.68594,-17.71653 0,-9.78458 13.73856,-17.71654 30.68594,-17.71654 16.94737,0 30.68594,7.93196 30.68594,17.71654 z"
       sodipodi:ry="17.716536"
       sodipodi:rx="30.68594"
       sodipodi:cy="201.96848"
       sodipodi:cx="306.85941"
       id="path110741"
       style="fill:#000000;fill-opacity:1;stroke:none"
       sodipodi:type="arc" />
    <rect
       style="fill:#000000;fill-opacity:1;stroke:none"
       id="rect4000"
       width="100"
       height="100"
       x="0"
       y="952.36218" />
    <text
       xml:space="preserve"
       style="font-size:40px;font-style:normal;font-variant:normal;font-weight:normal;font-stretch:normal;line-height:125%;letter-spacing:0px;word-spacing:0px;fill:#000000;fill-opacity:1;stroke:none;font-family:Monospace;-inkscape-font-specification:Monospace"
       x="17.301765"
       y="1006.8153"
       id="text3997-0"
       sodipodi:linespacing="125%"><tspan
         sodipodi:role="line"
         x="17.301765"
         y="1006.8153"
         id="tspan4003-4"
         style="font-size:12px;fill:#000000;fill-opacity:1">1 x 1 m^2</tspan></text>
    <text
       xml:space="preserve"
       style="font-size:40px;font-style:normal;font-variant:normal;font-weight:normal;font-stretch:normal;line-height:125%;letter-spacing:0px;word-spacing:0px;fill:#000000;fill-opacity:1;stroke:none;font-family:Monospace;-inkscape-font-specification:Monospace"
       x="110.00001"
       y="1031.5438"
       id="text3997"
       sodipodi:linespacing="125%"><tspan
         sodipodi:role="line"
         id="tspan3999"
         x="110.00001"
         y="1031.5438"
         style="font-size:12px;fill:#000000;fill-opacity:1">CANGAROO III</tspan><tspan
         sodipodi:role="line"
         x="110.00001"
         y="1046.5438"
         style="font-size:12px;fill:#000000;fill-opacity:1"
         id="tspan3886">facets: 50cm diameter</tspan></text>
    <text
       xml:space="preserve"
       style="font-size:40px;font-style:normal;font-variant:normal;font-weight:normal;font-stretch:normal;line-height:125%;letter-spacing:0px;word-spacing:0px;fill:#000000;fill-opacity:1;stroke:none;font-family:Monospace;-inkscape-font-specification:Monospace"
       x="13.558601"
       y="1007.3622"
       id="text3997-7"
       sodipodi:linespacing="125%"><tspan
         sodipodi:role="line"
         x="13.558601"
         y="1007.3622"
         id="tspan4003-2"
         style="font-size:12px;fill:#ffffff;fill-opacity:1">1 x 1 m^2</tspan></text>
  </g>
</svg>
