<?xml version="1.0" encoding="UTF-8" standalone="no"?>
<!-- Created with Inkscape (http://www.inkscape.org/) -->

<svg
   xmlns:dc="http://purl.org/dc/elements/1.1/"
   xmlns:cc="http://creativecommons.org/ns#"
   xmlns:rdf="http://www.w3.org/1999/02/22-rdf-syntax-ns#"
   xmlns:svg="http://www.w3.org/2000/svg"
   xmlns="http://www.w3.org/2000/svg"
   xmlns:sodipodi="http://sodipodi.sourceforge.net/DTD/sodipodi-0.dtd"
   xmlns:inkscape="http://www.inkscape.org/namespaces/inkscape"
   width="960"
   height="1014.5517"
   id="svg87156"
   version="1.1"
   inkscape:version="0.48.4 r9939"
   sodipodi:docname="CANGAROO_III_aperture.svg">
  <defs
     id="defs87158" />
  <sodipodi:namedview
     id="base"
     pagecolor="#ffffff"
     bordercolor="#666666"
     borderopacity="1.0"
     inkscape:pageopacity="0.0"
     inkscape:pageshadow="2"
     inkscape:zoom="4"
     inkscape:cx="225.10277"
     inkscape:cy="69.702421"
     inkscape:document-units="px"
     inkscape:current-layer="layer1"
     showgrid="false"
     showguides="true"
     inkscape:guide-bbox="true"
     inkscape:window-width="960"
     inkscape:window-height="1028"
     inkscape:window-x="960"
     inkscape:window-y="24"
     inkscape:window-maximized="0"
     fit-margin-top="0"
     fit-margin-left="0"
     fit-margin-right="0"
     fit-margin-bottom="0">
    <inkscape:grid
       type="axonomgrid"
       id="grid87164"
       units="cm"
       empspacing="5"
       visible="true"
       enabled="true"
       snapvisiblegridlinesonly="true"
       spacingy="1cm"
       originx="0cm"
       originy="4.2388455e-07cm" />
  </sodipodi:namedview>
  <metadata
     id="metadata87161">
    <rdf:RDF>
      <cc:Work
         rdf:about="">
        <dc:format>image/svg+xml</dc:format>
        <dc:type
           rdf:resource="http://purl.org/dc/dcmitype/StillImage" />
        <dc:title />
      </cc:Work>
    </rdf:RDF>
  </metadata>
  <g
     inkscape:label="Layer 1"
     inkscape:groupmode="layer"
     id="layer1"
     transform="translate(0,-37.810506)">
    <path
       transform="matrix(1.3018108,0,0,2.2548024,-319.40581,-99.422189)"
       d="m 337.54535,201.96848 c 0,9.78457 -13.73857,17.71653 -30.68594,17.71653 -16.94738,0 -30.68594,-7.93196 -30.68594,-17.71653 0,-9.78458 13.73856,-17.71654 30.68594,-17.71654 16.94737,0 30.68594,7.93196 30.68594,17.71654 z"
       sodipodi:ry="17.716536"
       sodipodi:rx="30.68594"
       sodipodi:cy="201.96848"
       sodipodi:cx="306.85941"
       id="path109737"
       style="fill:#000000;fill-opacity:1;stroke:none"
       sodipodi:type="arc" />
    <path
       transform="matrix(1.3018108,0,0,2.2548024,-359.5256,-29.837565)"
       d="m 337.54535,201.96848 c 0,9.78457 -13.73857,17.71653 -30.68594,17.71653 -16.94738,0 -30.68594,-7.93196 -30.68594,-17.71653 0,-9.78458 13.73856,-17.71654 30.68594,-17.71654 16.94737,0 30.68594,7.93196 30.68594,17.71654 z"
       sodipodi:ry="17.716536"
       sodipodi:rx="30.68594"
       sodipodi:cy="201.96848"
       sodipodi:cx="306.85941"
       id="path109745"
       style="fill:#000000;fill-opacity:1;stroke:none"
       sodipodi:type="arc" />
    <path
       transform="matrix(1.3018108,0,0,2.2548024,-319.40581,178.79684)"
       d="m 337.54535,201.96848 c 0,9.78457 -13.73857,17.71653 -30.68594,17.71653 -16.94738,0 -30.68594,-7.93196 -30.68594,-17.71653 0,-9.78458 13.73856,-17.71654 30.68594,-17.71654 16.94737,0 30.68594,7.93196 30.68594,17.71654 z"
       sodipodi:ry="17.716536"
       sodipodi:rx="30.68594"
       sodipodi:cy="201.96848"
       sodipodi:cx="306.85941"
       id="path109749"
       style="fill:#000000;fill-opacity:1;stroke:none"
       sodipodi:type="arc" />
    <path
       transform="matrix(1.3018108,0,0,2.2548024,-359.5256,109.27196)"
       d="m 337.54535,201.96848 c 0,9.78457 -13.73857,17.71653 -30.68594,17.71653 -16.94738,0 -30.68594,-7.93196 -30.68594,-17.71653 0,-9.78458 13.73856,-17.71654 30.68594,-17.71654 16.94737,0 30.68594,7.93196 30.68594,17.71654 z"
       sodipodi:ry="17.716536"
       sodipodi:rx="30.68594"
       sodipodi:cy="201.96848"
       sodipodi:cx="306.85941"
       id="path109751"
       style="fill:#000000;fill-opacity:1;stroke:none"
       sodipodi:type="arc" />
    <path
       transform="matrix(1.3018108,0,0,2.2548024,-239.39622,-238.53171)"
       d="m 337.54535,201.96848 c 0,9.78457 -13.73857,17.71653 -30.68594,17.71653 -16.94738,0 -30.68594,-7.93196 -30.68594,-17.71653 0,-9.78458 13.73856,-17.71654 30.68594,-17.71654 16.94737,0 30.68594,7.93196 30.68594,17.71654 z"
       sodipodi:ry="17.716536"
       sodipodi:rx="30.68594"
       sodipodi:cy="201.96848"
       sodipodi:cx="306.85941"
       id="path109821"
       style="fill:#000000;fill-opacity:1;stroke:none"
       sodipodi:type="arc" />
    <path
       transform="matrix(1.3018108,0,0,2.2548024,-239.39622,-99.422189)"
       d="m 337.54535,201.96848 c 0,9.78457 -13.73857,17.71653 -30.68594,17.71653 -16.94738,0 -30.68594,-7.93196 -30.68594,-17.71653 0,-9.78458 13.73856,-17.71654 30.68594,-17.71654 16.94737,0 30.68594,7.93196 30.68594,17.71654 z"
       sodipodi:ry="17.716536"
       sodipodi:rx="30.68594"
       sodipodi:cy="201.96848"
       sodipodi:cx="306.85941"
       id="path109827"
       style="fill:#000000;fill-opacity:1;stroke:none"
       sodipodi:type="arc" />
    <path
       transform="matrix(1.3018108,0,0,2.2548024,-279.51602,-168.94707)"
       d="m 337.54535,201.96848 c 0,9.78457 -13.73857,17.71653 -30.68594,17.71653 -16.94738,0 -30.68594,-7.93196 -30.68594,-17.71653 0,-9.78458 13.73856,-17.71654 30.68594,-17.71654 16.94737,0 30.68594,7.93196 30.68594,17.71654 z"
       sodipodi:ry="17.716536"
       sodipodi:rx="30.68594"
       sodipodi:cy="201.96848"
       sodipodi:cx="306.85941"
       id="path109829"
       style="fill:#000000;fill-opacity:1;stroke:none"
       sodipodi:type="arc" />
    <path
       transform="matrix(1.3018108,0,0,2.2548024,-239.39622,39.687331)"
       d="m 337.54535,201.96848 c 0,9.78457 -13.73857,17.71653 -30.68594,17.71653 -16.94738,0 -30.68594,-7.93196 -30.68594,-17.71653 0,-9.78458 13.73856,-17.71654 30.68594,-17.71654 16.94737,0 30.68594,7.93196 30.68594,17.71654 z"
       sodipodi:ry="17.716536"
       sodipodi:rx="30.68594"
       sodipodi:cy="201.96848"
       sodipodi:cx="306.85941"
       id="path109833"
       style="fill:#000000;fill-opacity:1;stroke:none"
       sodipodi:type="arc" />
    <path
       transform="matrix(1.3018108,0,0,2.2548024,-279.51602,-29.837565)"
       d="m 337.54535,201.96848 c 0,9.78457 -13.73857,17.71653 -30.68594,17.71653 -16.94738,0 -30.68594,-7.93196 -30.68594,-17.71653 0,-9.78458 13.73856,-17.71654 30.68594,-17.71654 16.94737,0 30.68594,7.93196 30.68594,17.71654 z"
       sodipodi:ry="17.716536"
       sodipodi:rx="30.68594"
       sodipodi:cy="201.96848"
       sodipodi:cx="306.85941"
       id="path109835"
       style="fill:#000000;fill-opacity:1;stroke:none"
       sodipodi:type="arc" />
    <path
       transform="matrix(1.3018108,0,0,2.2548024,-239.39622,178.79684)"
       d="m 337.54535,201.96848 c 0,9.78457 -13.73857,17.71653 -30.68594,17.71653 -16.94738,0 -30.68594,-7.93196 -30.68594,-17.71653 0,-9.78458 13.73856,-17.71654 30.68594,-17.71654 16.94737,0 30.68594,7.93196 30.68594,17.71654 z"
       sodipodi:ry="17.716536"
       sodipodi:rx="30.68594"
       sodipodi:cy="201.96848"
       sodipodi:cx="306.85941"
       id="path109839"
       style="fill:#000000;fill-opacity:1;stroke:none"
       sodipodi:type="arc" />
    <path
       transform="matrix(1.3018108,0,0,2.2548024,-279.51602,109.27196)"
       d="m 337.54535,201.96848 c 0,9.78457 -13.73857,17.71653 -30.68594,17.71653 -16.94738,0 -30.68594,-7.93196 -30.68594,-17.71653 0,-9.78458 13.73856,-17.71654 30.68594,-17.71654 16.94737,0 30.68594,7.93196 30.68594,17.71654 z"
       sodipodi:ry="17.716536"
       sodipodi:rx="30.68594"
       sodipodi:cy="201.96848"
       sodipodi:cx="306.85941"
       id="path109841"
       style="fill:#000000;fill-opacity:1;stroke:none"
       sodipodi:type="arc" />
    <path
       transform="matrix(1.3018108,0,0,2.2548024,-239.39622,317.90636)"
       d="m 337.54535,201.96848 c 0,9.78457 -13.73857,17.71653 -30.68594,17.71653 -16.94738,0 -30.68594,-7.93196 -30.68594,-17.71653 0,-9.78458 13.73856,-17.71654 30.68594,-17.71654 16.94737,0 30.68594,7.93196 30.68594,17.71654 z"
       sodipodi:ry="17.716536"
       sodipodi:rx="30.68594"
       sodipodi:cy="201.96848"
       sodipodi:cx="306.85941"
       id="path109845"
       style="fill:#000000;fill-opacity:1;stroke:none"
       sodipodi:type="arc" />
    <path
       transform="matrix(1.3018108,0,0,2.2548024,-279.51602,248.38148)"
       d="m 337.54535,201.96848 c 0,9.78457 -13.73857,17.71653 -30.68594,17.71653 -16.94738,0 -30.68594,-7.93196 -30.68594,-17.71653 0,-9.78458 13.73856,-17.71654 30.68594,-17.71654 16.94737,0 30.68594,7.93196 30.68594,17.71654 z"
       sodipodi:ry="17.716536"
       sodipodi:rx="30.68594"
       sodipodi:cy="201.96848"
       sodipodi:cx="306.85941"
       id="path109847"
       style="fill:#000000;fill-opacity:1;stroke:none"
       sodipodi:type="arc" />
    <path
       transform="matrix(1.3018108,0,0,2.2548024,-159.38664,-238.53171)"
       d="m 337.54535,201.96848 c 0,9.78457 -13.73857,17.71653 -30.68594,17.71653 -16.94738,0 -30.68594,-7.93196 -30.68594,-17.71653 0,-9.78458 13.73856,-17.71654 30.68594,-17.71654 16.94737,0 30.68594,7.93196 30.68594,17.71654 z"
       sodipodi:ry="17.716536"
       sodipodi:rx="30.68594"
       sodipodi:cy="201.96848"
       sodipodi:cx="306.85941"
       id="path109911"
       style="fill:#000000;fill-opacity:1;stroke:none"
       sodipodi:type="arc" />
    <path
       transform="matrix(1.3018108,0,0,2.2548024,-199.50643,-308.05659)"
       d="m 337.54535,201.96848 c 0,9.78457 -13.73857,17.71653 -30.68594,17.71653 -16.94738,0 -30.68594,-7.93196 -30.68594,-17.71653 0,-9.78458 13.73856,-17.71654 30.68594,-17.71654 16.94737,0 30.68594,7.93196 30.68594,17.71654 z"
       sodipodi:ry="17.716536"
       sodipodi:rx="30.68594"
       sodipodi:cy="201.96848"
       sodipodi:cx="306.85941"
       id="path109913"
       style="fill:#000000;fill-opacity:1;stroke:none"
       sodipodi:type="arc" />
    <path
       transform="matrix(1.3018108,0,0,2.2548024,-159.38664,-99.422189)"
       d="m 337.54535,201.96848 c 0,9.78457 -13.73857,17.71653 -30.68594,17.71653 -16.94738,0 -30.68594,-7.93196 -30.68594,-17.71653 0,-9.78458 13.73856,-17.71654 30.68594,-17.71654 16.94737,0 30.68594,7.93196 30.68594,17.71654 z"
       sodipodi:ry="17.716536"
       sodipodi:rx="30.68594"
       sodipodi:cy="201.96848"
       sodipodi:cx="306.85941"
       id="path109917"
       style="fill:#000000;fill-opacity:1;stroke:none"
       sodipodi:type="arc" />
    <path
       transform="matrix(1.3018108,0,0,2.2548024,-199.50643,-168.94707)"
       d="m 337.54535,201.96848 c 0,9.78457 -13.73857,17.71653 -30.68594,17.71653 -16.94738,0 -30.68594,-7.93196 -30.68594,-17.71653 0,-9.78458 13.73856,-17.71654 30.68594,-17.71654 16.94737,0 30.68594,7.93196 30.68594,17.71654 z"
       sodipodi:ry="17.716536"
       sodipodi:rx="30.68594"
       sodipodi:cy="201.96848"
       sodipodi:cx="306.85941"
       id="path109919"
       style="fill:#000000;fill-opacity:1;stroke:none"
       sodipodi:type="arc" />
    <path
       transform="matrix(1.3018108,0,0,2.2548024,-159.38664,39.687331)"
       d="m 337.54535,201.96848 c 0,9.78457 -13.73857,17.71653 -30.68594,17.71653 -16.94738,0 -30.68594,-7.93196 -30.68594,-17.71653 0,-9.78458 13.73856,-17.71654 30.68594,-17.71654 16.94737,0 30.68594,7.93196 30.68594,17.71654 z"
       sodipodi:ry="17.716536"
       sodipodi:rx="30.68594"
       sodipodi:cy="201.96848"
       sodipodi:cx="306.85941"
       id="path109923"
       style="fill:#000000;fill-opacity:1;stroke:none"
       sodipodi:type="arc" />
    <path
       transform="matrix(1.3018108,0,0,2.2548024,-199.50643,-29.837565)"
       d="m 337.54535,201.96848 c 0,9.78457 -13.73857,17.71653 -30.68594,17.71653 -16.94738,0 -30.68594,-7.93196 -30.68594,-17.71653 0,-9.78458 13.73856,-17.71654 30.68594,-17.71654 16.94737,0 30.68594,7.93196 30.68594,17.71654 z"
       sodipodi:ry="17.716536"
       sodipodi:rx="30.68594"
       sodipodi:cy="201.96848"
       sodipodi:cx="306.85941"
       id="path109925"
       style="fill:#000000;fill-opacity:1;stroke:none"
       sodipodi:type="arc" />
    <path
       transform="matrix(1.3018108,0,0,2.2548024,-159.38664,178.79684)"
       d="m 337.54535,201.96848 c 0,9.78457 -13.73857,17.71653 -30.68594,17.71653 -16.94738,0 -30.68594,-7.93196 -30.68594,-17.71653 0,-9.78458 13.73856,-17.71654 30.68594,-17.71654 16.94737,0 30.68594,7.93196 30.68594,17.71654 z"
       sodipodi:ry="17.716536"
       sodipodi:rx="30.68594"
       sodipodi:cy="201.96848"
       sodipodi:cx="306.85941"
       id="path109929"
       style="fill:#000000;fill-opacity:1;stroke:none"
       sodipodi:type="arc" />
    <path
       transform="matrix(1.3018108,0,0,2.2548024,-199.50643,109.27196)"
       d="m 337.54535,201.96848 c 0,9.78457 -13.73857,17.71653 -30.68594,17.71653 -16.94738,0 -30.68594,-7.93196 -30.68594,-17.71653 0,-9.78458 13.73856,-17.71654 30.68594,-17.71654 16.94737,0 30.68594,7.93196 30.68594,17.71654 z"
       sodipodi:ry="17.716536"
       sodipodi:rx="30.68594"
       sodipodi:cy="201.96848"
       sodipodi:cx="306.85941"
       id="path109931"
       style="fill:#000000;fill-opacity:1;stroke:none"
       sodipodi:type="arc" />
    <path
       transform="matrix(1.3018108,0,0,2.2548024,-159.38664,317.90636)"
       d="m 337.54535,201.96848 c 0,9.78457 -13.73857,17.71653 -30.68594,17.71653 -16.94738,0 -30.68594,-7.93196 -30.68594,-17.71653 0,-9.78458 13.73856,-17.71654 30.68594,-17.71654 16.94737,0 30.68594,7.93196 30.68594,17.71654 z"
       sodipodi:ry="17.716536"
       sodipodi:rx="30.68594"
       sodipodi:cy="201.96848"
       sodipodi:cx="306.85941"
       id="path109935"
       style="fill:#000000;fill-opacity:1;stroke:none"
       sodipodi:type="arc" />
    <path
       transform="matrix(1.3018108,0,0,2.2548024,-199.50643,248.38148)"
       d="m 337.54535,201.96848 c 0,9.78457 -13.73857,17.71653 -30.68594,17.71653 -16.94738,0 -30.68594,-7.93196 -30.68594,-17.71653 0,-9.78458 13.73856,-17.71654 30.68594,-17.71654 16.94737,0 30.68594,7.93196 30.68594,17.71654 z"
       sodipodi:ry="17.716536"
       sodipodi:rx="30.68594"
       sodipodi:cy="201.96848"
       sodipodi:cx="306.85941"
       id="path109937"
       style="fill:#000000;fill-opacity:1;stroke:none"
       sodipodi:type="arc" />
    <path
       transform="matrix(1.3018108,0,0,2.2548024,-199.50643,387.491)"
       d="m 337.54535,201.96848 c 0,9.78457 -13.73857,17.71653 -30.68594,17.71653 -16.94738,0 -30.68594,-7.93196 -30.68594,-17.71653 0,-9.78458 13.73856,-17.71654 30.68594,-17.71654 16.94737,0 30.68594,7.93196 30.68594,17.71654 z"
       sodipodi:ry="17.716536"
       sodipodi:rx="30.68594"
       sodipodi:cy="201.96848"
       sodipodi:cx="306.85941"
       id="path109943"
       style="fill:#000000;fill-opacity:1;stroke:none"
       sodipodi:type="arc" />
    <path
       transform="matrix(1.3018108,0,0,2.2548024,-79.377064,-377.64121)"
       d="m 337.54535,201.96848 c 0,9.78457 -13.73857,17.71653 -30.68594,17.71653 -16.94738,0 -30.68594,-7.93196 -30.68594,-17.71653 0,-9.78458 13.73856,-17.71654 30.68594,-17.71654 16.94737,0 30.68594,7.93196 30.68594,17.71654 z"
       sodipodi:ry="17.716536"
       sodipodi:rx="30.68594"
       sodipodi:cy="201.96848"
       sodipodi:cx="306.85941"
       id="path109995"
       style="fill:#000000;fill-opacity:1;stroke:none"
       sodipodi:type="arc" />
    <path
       transform="matrix(1.3018108,0,0,2.2548024,-79.377064,-238.53171)"
       d="m 337.54535,201.96848 c 0,9.78457 -13.73857,17.71653 -30.68594,17.71653 -16.94738,0 -30.68594,-7.93196 -30.68594,-17.71653 0,-9.78458 13.73856,-17.71654 30.68594,-17.71654 16.94737,0 30.68594,7.93196 30.68594,17.71654 z"
       sodipodi:ry="17.716536"
       sodipodi:rx="30.68594"
       sodipodi:cy="201.96848"
       sodipodi:cx="306.85941"
       id="path110001"
       style="fill:#000000;fill-opacity:1;stroke:none"
       sodipodi:type="arc" />
    <path
       transform="matrix(1.3018108,0,0,2.2548024,-79.377064,-99.422189)"
       d="m 337.54535,201.96848 c 0,9.78457 -13.73857,17.71653 -30.68594,17.71653 -16.94738,0 -30.68594,-7.93196 -30.68594,-17.71653 0,-9.78458 13.73856,-17.71654 30.68594,-17.71654 16.94737,0 30.68594,7.93196 30.68594,17.71654 z"
       sodipodi:ry="17.716536"
       sodipodi:rx="30.68594"
       sodipodi:cy="201.96848"
       sodipodi:cx="306.85941"
       id="path110007"
       style="fill:#000000;fill-opacity:1;stroke:none"
       sodipodi:type="arc" />
    <path
       transform="matrix(1.3018108,0,0,2.2548024,-119.49685,-168.94707)"
       d="m 337.54535,201.96848 c 0,9.78457 -13.73857,17.71653 -30.68594,17.71653 -16.94738,0 -30.68594,-7.93196 -30.68594,-17.71653 0,-9.78458 13.73856,-17.71654 30.68594,-17.71654 16.94737,0 30.68594,7.93196 30.68594,17.71654 z"
       sodipodi:ry="17.716536"
       sodipodi:rx="30.68594"
       sodipodi:cy="201.96848"
       sodipodi:cx="306.85941"
       id="path110009"
       style="fill:#000000;fill-opacity:1;stroke:none"
       sodipodi:type="arc" />
    <path
       transform="matrix(1.3018108,0,0,2.2548024,-79.377064,39.687331)"
       d="m 337.54535,201.96848 c 0,9.78457 -13.73857,17.71653 -30.68594,17.71653 -16.94738,0 -30.68594,-7.93196 -30.68594,-17.71653 0,-9.78458 13.73856,-17.71654 30.68594,-17.71654 16.94737,0 30.68594,7.93196 30.68594,17.71654 z"
       sodipodi:ry="17.716536"
       sodipodi:rx="30.68594"
       sodipodi:cy="201.96848"
       sodipodi:cx="306.85941"
       id="path110013"
       style="fill:#000000;fill-opacity:1;stroke:none"
       sodipodi:type="arc" />
    <path
       transform="matrix(1.3018108,0,0,2.2548024,-119.49685,-29.837565)"
       d="m 337.54535,201.96848 c 0,9.78457 -13.73857,17.71653 -30.68594,17.71653 -16.94738,0 -30.68594,-7.93196 -30.68594,-17.71653 0,-9.78458 13.73856,-17.71654 30.68594,-17.71654 16.94737,0 30.68594,7.93196 30.68594,17.71654 z"
       sodipodi:ry="17.716536"
       sodipodi:rx="30.68594"
       sodipodi:cy="201.96848"
       sodipodi:cx="306.85941"
       id="path110015"
       style="fill:#000000;fill-opacity:1;stroke:none"
       sodipodi:type="arc" />
    <path
       transform="matrix(1.3018108,0,0,2.2548024,-79.377064,178.79684)"
       d="m 337.54535,201.96848 c 0,9.78457 -13.73857,17.71653 -30.68594,17.71653 -16.94738,0 -30.68594,-7.93196 -30.68594,-17.71653 0,-9.78458 13.73856,-17.71654 30.68594,-17.71654 16.94737,0 30.68594,7.93196 30.68594,17.71654 z"
       sodipodi:ry="17.716536"
       sodipodi:rx="30.68594"
       sodipodi:cy="201.96848"
       sodipodi:cx="306.85941"
       id="path110019"
       style="fill:#000000;fill-opacity:1;stroke:none"
       sodipodi:type="arc" />
    <path
       transform="matrix(1.3018108,0,0,2.2548024,-119.49685,109.27196)"
       d="m 337.54535,201.96848 c 0,9.78457 -13.73857,17.71653 -30.68594,17.71653 -16.94738,0 -30.68594,-7.93196 -30.68594,-17.71653 0,-9.78458 13.73856,-17.71654 30.68594,-17.71654 16.94737,0 30.68594,7.93196 30.68594,17.71654 z"
       sodipodi:ry="17.716536"
       sodipodi:rx="30.68594"
       sodipodi:cy="201.96848"
       sodipodi:cx="306.85941"
       id="path110021"
       style="fill:#000000;fill-opacity:1;stroke:none"
       sodipodi:type="arc" />
    <path
       transform="matrix(1.3018108,0,0,2.2548024,-79.377064,317.90636)"
       d="m 337.54535,201.96848 c 0,9.78457 -13.73857,17.71653 -30.68594,17.71653 -16.94738,0 -30.68594,-7.93196 -30.68594,-17.71653 0,-9.78458 13.73856,-17.71654 30.68594,-17.71654 16.94737,0 30.68594,7.93196 30.68594,17.71654 z"
       sodipodi:ry="17.716536"
       sodipodi:rx="30.68594"
       sodipodi:cy="201.96848"
       sodipodi:cx="306.85941"
       id="path110025"
       style="fill:#000000;fill-opacity:1;stroke:none"
       sodipodi:type="arc" />
    <path
       transform="matrix(1.3018108,0,0,2.2548024,-119.49685,248.38148)"
       d="m 337.54535,201.96848 c 0,9.78457 -13.73857,17.71653 -30.68594,17.71653 -16.94738,0 -30.68594,-7.93196 -30.68594,-17.71653 0,-9.78458 13.73856,-17.71654 30.68594,-17.71654 16.94737,0 30.68594,7.93196 30.68594,17.71654 z"
       sodipodi:ry="17.716536"
       sodipodi:rx="30.68594"
       sodipodi:cy="201.96848"
       sodipodi:cx="306.85941"
       id="path110027"
       style="fill:#000000;fill-opacity:1;stroke:none"
       sodipodi:type="arc" />
    <path
       transform="matrix(1.3018108,0,0,2.2548024,-79.377064,457.01589)"
       d="m 337.54535,201.96848 c 0,9.78457 -13.73857,17.71653 -30.68594,17.71653 -16.94738,0 -30.68594,-7.93196 -30.68594,-17.71653 0,-9.78458 13.73856,-17.71654 30.68594,-17.71654 16.94737,0 30.68594,7.93196 30.68594,17.71654 z"
       sodipodi:ry="17.716536"
       sodipodi:rx="30.68594"
       sodipodi:cy="201.96848"
       sodipodi:cx="306.85941"
       id="path110031"
       style="fill:#000000;fill-opacity:1;stroke:none"
       sodipodi:type="arc" />
    <path
       transform="matrix(1.3018108,0,0,2.2548024,0.63252111,-377.64121)"
       d="m 337.54535,201.96848 c 0,9.78457 -13.73857,17.71653 -30.68594,17.71653 -16.94738,0 -30.68594,-7.93196 -30.68594,-17.71653 0,-9.78458 13.73856,-17.71654 30.68594,-17.71654 16.94737,0 30.68594,7.93196 30.68594,17.71654 z"
       sodipodi:ry="17.716536"
       sodipodi:rx="30.68594"
       sodipodi:cy="201.96848"
       sodipodi:cx="306.85941"
       id="path110085"
       style="fill:#000000;fill-opacity:1;stroke:none"
       sodipodi:type="arc" />
    <path
       transform="matrix(1.3018108,0,0,2.2548024,0.63252111,-238.53171)"
       d="m 337.54535,201.96848 c 0,9.78457 -13.73857,17.71653 -30.68594,17.71653 -16.94738,0 -30.68594,-7.93196 -30.68594,-17.71653 0,-9.78458 13.73856,-17.71654 30.68594,-17.71654 16.94737,0 30.68594,7.93196 30.68594,17.71654 z"
       sodipodi:ry="17.716536"
       sodipodi:rx="30.68594"
       sodipodi:cy="201.96848"
       sodipodi:cx="306.85941"
       id="path110091"
       style="fill:#000000;fill-opacity:1;stroke:none"
       sodipodi:type="arc" />
    <path
       transform="matrix(1.3018108,0,0,2.2548024,-39.487267,-308.05659)"
       d="m 337.54535,201.96848 c 0,9.78457 -13.73857,17.71653 -30.68594,17.71653 -16.94738,0 -30.68594,-7.93196 -30.68594,-17.71653 0,-9.78458 13.73856,-17.71654 30.68594,-17.71654 16.94737,0 30.68594,7.93196 30.68594,17.71654 z"
       sodipodi:ry="17.716536"
       sodipodi:rx="30.68594"
       sodipodi:cy="201.96848"
       sodipodi:cx="306.85941"
       id="path110093"
       style="fill:#000000;fill-opacity:1;stroke:none"
       sodipodi:type="arc" />
    <path
       transform="matrix(1.3018108,0,0,2.2548024,0.63252111,-99.422189)"
       d="m 337.54535,201.96848 c 0,9.78457 -13.73857,17.71653 -30.68594,17.71653 -16.94738,0 -30.68594,-7.93196 -30.68594,-17.71653 0,-9.78458 13.73856,-17.71654 30.68594,-17.71654 16.94737,0 30.68594,7.93196 30.68594,17.71654 z"
       sodipodi:ry="17.716536"
       sodipodi:rx="30.68594"
       sodipodi:cy="201.96848"
       sodipodi:cx="306.85941"
       id="path110097"
       style="fill:#000000;fill-opacity:1;stroke:none"
       sodipodi:type="arc" />
    <path
       transform="matrix(1.3018108,0,0,2.2548024,-39.487267,-168.94707)"
       d="m 337.54535,201.96848 c 0,9.78457 -13.73857,17.71653 -30.68594,17.71653 -16.94738,0 -30.68594,-7.93196 -30.68594,-17.71653 0,-9.78458 13.73856,-17.71654 30.68594,-17.71654 16.94737,0 30.68594,7.93196 30.68594,17.71654 z"
       sodipodi:ry="17.716536"
       sodipodi:rx="30.68594"
       sodipodi:cy="201.96848"
       sodipodi:cx="306.85941"
       id="path110099"
       style="fill:#000000;fill-opacity:1;stroke:none"
       sodipodi:type="arc" />
    <path
       transform="matrix(1.3018108,0,0,2.2548024,0.63252111,39.687331)"
       d="m 337.54535,201.96848 c 0,9.78457 -13.73857,17.71653 -30.68594,17.71653 -16.94738,0 -30.68594,-7.93196 -30.68594,-17.71653 0,-9.78458 13.73856,-17.71654 30.68594,-17.71654 16.94737,0 30.68594,7.93196 30.68594,17.71654 z"
       sodipodi:ry="17.716536"
       sodipodi:rx="30.68594"
       sodipodi:cy="201.96848"
       sodipodi:cx="306.85941"
       id="path110103"
       style="fill:#000000;fill-opacity:1;stroke:none"
       sodipodi:type="arc" />
    <path
       transform="matrix(1.3018108,0,0,2.2548024,-39.487267,-29.837565)"
       d="m 337.54535,201.96848 c 0,9.78457 -13.73857,17.71653 -30.68594,17.71653 -16.94738,0 -30.68594,-7.93196 -30.68594,-17.71653 0,-9.78458 13.73856,-17.71654 30.68594,-17.71654 16.94737,0 30.68594,7.93196 30.68594,17.71654 z"
       sodipodi:ry="17.716536"
       sodipodi:rx="30.68594"
       sodipodi:cy="201.96848"
       sodipodi:cx="306.85941"
       id="path110105"
       style="fill:#000000;fill-opacity:1;stroke:none"
       sodipodi:type="arc" />
    <path
       transform="matrix(1.3018108,0,0,2.2548024,0.63252111,178.79684)"
       d="m 337.54535,201.96848 c 0,9.78457 -13.73857,17.71653 -30.68594,17.71653 -16.94738,0 -30.68594,-7.93196 -30.68594,-17.71653 0,-9.78458 13.73856,-17.71654 30.68594,-17.71654 16.94737,0 30.68594,7.93196 30.68594,17.71654 z"
       sodipodi:ry="17.716536"
       sodipodi:rx="30.68594"
       sodipodi:cy="201.96848"
       sodipodi:cx="306.85941"
       id="path110109"
       style="fill:#000000;fill-opacity:1;stroke:none"
       sodipodi:type="arc" />
    <path
       transform="matrix(1.3018108,0,0,2.2548024,-39.487267,109.27196)"
       d="m 337.54535,201.96848 c 0,9.78457 -13.73857,17.71653 -30.68594,17.71653 -16.94738,0 -30.68594,-7.93196 -30.68594,-17.71653 0,-9.78458 13.73856,-17.71654 30.68594,-17.71654 16.94737,0 30.68594,7.93196 30.68594,17.71654 z"
       sodipodi:ry="17.716536"
       sodipodi:rx="30.68594"
       sodipodi:cy="201.96848"
       sodipodi:cx="306.85941"
       id="path110111"
       style="fill:#000000;fill-opacity:1;stroke:none"
       sodipodi:type="arc" />
    <path
       transform="matrix(1.3018108,0,0,2.2548024,0.63252111,317.90636)"
       d="m 337.54535,201.96848 c 0,9.78457 -13.73857,17.71653 -30.68594,17.71653 -16.94738,0 -30.68594,-7.93196 -30.68594,-17.71653 0,-9.78458 13.73856,-17.71654 30.68594,-17.71654 16.94737,0 30.68594,7.93196 30.68594,17.71654 z"
       sodipodi:ry="17.716536"
       sodipodi:rx="30.68594"
       sodipodi:cy="201.96848"
       sodipodi:cx="306.85941"
       id="path110115"
       style="fill:#000000;fill-opacity:1;stroke:none"
       sodipodi:type="arc" />
    <path
       transform="matrix(1.3018108,0,0,2.2548024,-39.487267,248.38148)"
       d="m 337.54535,201.96848 c 0,9.78457 -13.73857,17.71653 -30.68594,17.71653 -16.94738,0 -30.68594,-7.93196 -30.68594,-17.71653 0,-9.78458 13.73856,-17.71654 30.68594,-17.71654 16.94737,0 30.68594,7.93196 30.68594,17.71654 z"
       sodipodi:ry="17.716536"
       sodipodi:rx="30.68594"
       sodipodi:cy="201.96848"
       sodipodi:cx="306.85941"
       id="path110117"
       style="fill:#000000;fill-opacity:1;stroke:none"
       sodipodi:type="arc" />
    <path
       transform="matrix(1.3018108,0,0,2.2548024,0.63252111,457.01589)"
       d="m 337.54535,201.96848 c 0,9.78457 -13.73857,17.71653 -30.68594,17.71653 -16.94738,0 -30.68594,-7.93196 -30.68594,-17.71653 0,-9.78458 13.73856,-17.71654 30.68594,-17.71654 16.94737,0 30.68594,7.93196 30.68594,17.71654 z"
       sodipodi:ry="17.716536"
       sodipodi:rx="30.68594"
       sodipodi:cy="201.96848"
       sodipodi:cx="306.85941"
       id="path110121"
       style="fill:#000000;fill-opacity:1;stroke:none"
       sodipodi:type="arc" />
    <path
       transform="matrix(1.3018108,0,0,2.2548024,-39.487267,387.491)"
       d="m 337.54535,201.96848 c 0,9.78457 -13.73857,17.71653 -30.68594,17.71653 -16.94738,0 -30.68594,-7.93196 -30.68594,-17.71653 0,-9.78458 13.73856,-17.71654 30.68594,-17.71654 16.94737,0 30.68594,7.93196 30.68594,17.71654 z"
       sodipodi:ry="17.716536"
       sodipodi:rx="30.68594"
       sodipodi:cy="201.96848"
       sodipodi:cx="306.85941"
       id="path110123"
       style="fill:#000000;fill-opacity:1;stroke:none"
       sodipodi:type="arc" />
    <path
       transform="matrix(1.3018108,0,0,2.2548024,80.642094,-377.64121)"
       d="m 337.54535,201.96848 c 0,9.78457 -13.73857,17.71653 -30.68594,17.71653 -16.94738,0 -30.68594,-7.93196 -30.68594,-17.71653 0,-9.78458 13.73856,-17.71654 30.68594,-17.71654 16.94737,0 30.68594,7.93196 30.68594,17.71654 z"
       sodipodi:ry="17.716536"
       sodipodi:rx="30.68594"
       sodipodi:cy="201.96848"
       sodipodi:cx="306.85941"
       id="path110175"
       style="fill:#000000;fill-opacity:1;stroke:none"
       sodipodi:type="arc" />
    <path
       transform="matrix(1.3018108,0,0,2.2548024,80.642094,-238.53171)"
       d="m 337.54535,201.96848 c 0,9.78457 -13.73857,17.71653 -30.68594,17.71653 -16.94738,0 -30.68594,-7.93196 -30.68594,-17.71653 0,-9.78458 13.73856,-17.71654 30.68594,-17.71654 16.94737,0 30.68594,7.93196 30.68594,17.71654 z"
       sodipodi:ry="17.716536"
       sodipodi:rx="30.68594"
       sodipodi:cy="201.96848"
       sodipodi:cx="306.85941"
       id="path110181"
       style="fill:#000000;fill-opacity:1;stroke:none"
       sodipodi:type="arc" />
    <path
       transform="matrix(1.3018108,0,0,2.2548024,40.522305,-308.05659)"
       d="m 337.54535,201.96848 c 0,9.78457 -13.73857,17.71653 -30.68594,17.71653 -16.94738,0 -30.68594,-7.93196 -30.68594,-17.71653 0,-9.78458 13.73856,-17.71654 30.68594,-17.71654 16.94737,0 30.68594,7.93196 30.68594,17.71654 z"
       sodipodi:ry="17.716536"
       sodipodi:rx="30.68594"
       sodipodi:cy="201.96848"
       sodipodi:cx="306.85941"
       id="path110183"
       style="fill:#000000;fill-opacity:1;stroke:none"
       sodipodi:type="arc" />
    <path
       transform="matrix(1.3018108,0,0,2.2548024,80.642094,-99.422189)"
       d="m 337.54535,201.96848 c 0,9.78457 -13.73857,17.71653 -30.68594,17.71653 -16.94738,0 -30.68594,-7.93196 -30.68594,-17.71653 0,-9.78458 13.73856,-17.71654 30.68594,-17.71654 16.94737,0 30.68594,7.93196 30.68594,17.71654 z"
       sodipodi:ry="17.716536"
       sodipodi:rx="30.68594"
       sodipodi:cy="201.96848"
       sodipodi:cx="306.85941"
       id="path110187"
       style="fill:#000000;fill-opacity:1;stroke:none"
       sodipodi:type="arc" />
    <path
       transform="matrix(1.3018108,0,0,2.2548024,40.522305,-168.94707)"
       d="m 337.54535,201.96848 c 0,9.78457 -13.73857,17.71653 -30.68594,17.71653 -16.94738,0 -30.68594,-7.93196 -30.68594,-17.71653 0,-9.78458 13.73856,-17.71654 30.68594,-17.71654 16.94737,0 30.68594,7.93196 30.68594,17.71654 z"
       sodipodi:ry="17.716536"
       sodipodi:rx="30.68594"
       sodipodi:cy="201.96848"
       sodipodi:cx="306.85941"
       id="path110189"
       style="fill:#000000;fill-opacity:1;stroke:none"
       sodipodi:type="arc" />
    <path
       transform="matrix(1.3018108,0,0,2.2548024,40.522305,-29.837565)"
       d="m 337.54535,201.96848 c 0,9.78457 -13.73857,17.71653 -30.68594,17.71653 -16.94738,0 -30.68594,-7.93196 -30.68594,-17.71653 0,-9.78458 13.73856,-17.71654 30.68594,-17.71654 16.94737,0 30.68594,7.93196 30.68594,17.71654 z"
       sodipodi:ry="17.716536"
       sodipodi:rx="30.68594"
       sodipodi:cy="201.96848"
       sodipodi:cx="306.85941"
       id="path110195"
       style="fill:#000000;fill-opacity:1;stroke:none"
       sodipodi:type="arc" />
    <path
       transform="matrix(1.3018108,0,0,2.2548024,80.642094,178.79684)"
       d="m 337.54535,201.96848 c 0,9.78457 -13.73857,17.71653 -30.68594,17.71653 -16.94738,0 -30.68594,-7.93196 -30.68594,-17.71653 0,-9.78458 13.73856,-17.71654 30.68594,-17.71654 16.94737,0 30.68594,7.93196 30.68594,17.71654 z"
       sodipodi:ry="17.716536"
       sodipodi:rx="30.68594"
       sodipodi:cy="201.96848"
       sodipodi:cx="306.85941"
       id="path110199"
       style="fill:#000000;fill-opacity:1;stroke:none"
       sodipodi:type="arc" />
    <path
       transform="matrix(1.3018108,0,0,2.2548024,40.522305,109.27196)"
       d="m 337.54535,201.96848 c 0,9.78457 -13.73857,17.71653 -30.68594,17.71653 -16.94738,0 -30.68594,-7.93196 -30.68594,-17.71653 0,-9.78458 13.73856,-17.71654 30.68594,-17.71654 16.94737,0 30.68594,7.93196 30.68594,17.71654 z"
       sodipodi:ry="17.716536"
       sodipodi:rx="30.68594"
       sodipodi:cy="201.96848"
       sodipodi:cx="306.85941"
       id="path110201"
       style="fill:#000000;fill-opacity:1;stroke:none"
       sodipodi:type="arc" />
    <path
       transform="matrix(1.3018108,0,0,2.2548024,80.642094,317.90636)"
       d="m 337.54535,201.96848 c 0,9.78457 -13.73857,17.71653 -30.68594,17.71653 -16.94738,0 -30.68594,-7.93196 -30.68594,-17.71653 0,-9.78458 13.73856,-17.71654 30.68594,-17.71654 16.94737,0 30.68594,7.93196 30.68594,17.71654 z"
       sodipodi:ry="17.716536"
       sodipodi:rx="30.68594"
       sodipodi:cy="201.96848"
       sodipodi:cx="306.85941"
       id="path110205"
       style="fill:#000000;fill-opacity:1;stroke:none"
       sodipodi:type="arc" />
    <path
       transform="matrix(1.3018108,0,0,2.2548024,40.522305,248.38148)"
       d="m 337.54535,201.96848 c 0,9.78457 -13.73857,17.71653 -30.68594,17.71653 -16.94738,0 -30.68594,-7.93196 -30.68594,-17.71653 0,-9.78458 13.73856,-17.71654 30.68594,-17.71654 16.94737,0 30.68594,7.93196 30.68594,17.71654 z"
       sodipodi:ry="17.716536"
       sodipodi:rx="30.68594"
       sodipodi:cy="201.96848"
       sodipodi:cx="306.85941"
       id="path110207"
       style="fill:#000000;fill-opacity:1;stroke:none"
       sodipodi:type="arc" />
    <path
       transform="matrix(1.3018108,0,0,2.2548024,80.642094,457.01589)"
       d="m 337.54535,201.96848 c 0,9.78457 -13.73857,17.71653 -30.68594,17.71653 -16.94738,0 -30.68594,-7.93196 -30.68594,-17.71653 0,-9.78458 13.73856,-17.71654 30.68594,-17.71654 16.94737,0 30.68594,7.93196 30.68594,17.71654 z"
       sodipodi:ry="17.716536"
       sodipodi:rx="30.68594"
       sodipodi:cy="201.96848"
       sodipodi:cx="306.85941"
       id="path110211"
       style="fill:#000000;fill-opacity:1;stroke:none"
       sodipodi:type="arc" />
    <path
       transform="matrix(1.3018108,0,0,2.2548024,40.522305,387.491)"
       d="m 337.54535,201.96848 c 0,9.78457 -13.73857,17.71653 -30.68594,17.71653 -16.94738,0 -30.68594,-7.93196 -30.68594,-17.71653 0,-9.78458 13.73856,-17.71654 30.68594,-17.71654 16.94737,0 30.68594,7.93196 30.68594,17.71654 z"
       sodipodi:ry="17.716536"
       sodipodi:rx="30.68594"
       sodipodi:cy="201.96848"
       sodipodi:cx="306.85941"
       id="path110213"
       style="fill:#000000;fill-opacity:1;stroke:none"
       sodipodi:type="arc" />
    <path
       transform="matrix(1.3018108,0,0,2.2548024,160.65168,-377.64121)"
       d="m 337.54535,201.96848 c 0,9.78457 -13.73857,17.71653 -30.68594,17.71653 -16.94738,0 -30.68594,-7.93196 -30.68594,-17.71653 0,-9.78458 13.73856,-17.71654 30.68594,-17.71654 16.94737,0 30.68594,7.93196 30.68594,17.71654 z"
       sodipodi:ry="17.716536"
       sodipodi:rx="30.68594"
       sodipodi:cy="201.96848"
       sodipodi:cx="306.85941"
       id="path110265"
       style="fill:#000000;fill-opacity:1;stroke:none"
       sodipodi:type="arc" />
    <path
       transform="matrix(1.3018108,0,0,2.2548024,160.65168,-238.53171)"
       d="m 337.54535,201.96848 c 0,9.78457 -13.73857,17.71653 -30.68594,17.71653 -16.94738,0 -30.68594,-7.93196 -30.68594,-17.71653 0,-9.78458 13.73856,-17.71654 30.68594,-17.71654 16.94737,0 30.68594,7.93196 30.68594,17.71654 z"
       sodipodi:ry="17.716536"
       sodipodi:rx="30.68594"
       sodipodi:cy="201.96848"
       sodipodi:cx="306.85941"
       id="path110271"
       style="fill:#000000;fill-opacity:1;stroke:none"
       sodipodi:type="arc" />
    <path
       transform="matrix(1.3018108,0,0,2.2548024,120.53189,-308.05659)"
       d="m 337.54535,201.96848 c 0,9.78457 -13.73857,17.71653 -30.68594,17.71653 -16.94738,0 -30.68594,-7.93196 -30.68594,-17.71653 0,-9.78458 13.73856,-17.71654 30.68594,-17.71654 16.94737,0 30.68594,7.93196 30.68594,17.71654 z"
       sodipodi:ry="17.716536"
       sodipodi:rx="30.68594"
       sodipodi:cy="201.96848"
       sodipodi:cx="306.85941"
       id="path110273"
       style="fill:#000000;fill-opacity:1;stroke:none"
       sodipodi:type="arc" />
    <path
       transform="matrix(1.3018108,0,0,2.2548024,160.65168,-99.422189)"
       d="m 337.54535,201.96848 c 0,9.78457 -13.73857,17.71653 -30.68594,17.71653 -16.94738,0 -30.68594,-7.93196 -30.68594,-17.71653 0,-9.78458 13.73856,-17.71654 30.68594,-17.71654 16.94737,0 30.68594,7.93196 30.68594,17.71654 z"
       sodipodi:ry="17.716536"
       sodipodi:rx="30.68594"
       sodipodi:cy="201.96848"
       sodipodi:cx="306.85941"
       id="path110277"
       style="fill:#000000;fill-opacity:1;stroke:none"
       sodipodi:type="arc" />
    <path
       transform="matrix(1.3018108,0,0,2.2548024,120.53189,-168.94707)"
       d="m 337.54535,201.96848 c 0,9.78457 -13.73857,17.71653 -30.68594,17.71653 -16.94738,0 -30.68594,-7.93196 -30.68594,-17.71653 0,-9.78458 13.73856,-17.71654 30.68594,-17.71654 16.94737,0 30.68594,7.93196 30.68594,17.71654 z"
       sodipodi:ry="17.716536"
       sodipodi:rx="30.68594"
       sodipodi:cy="201.96848"
       sodipodi:cx="306.85941"
       id="path110279"
       style="fill:#000000;fill-opacity:1;stroke:none"
       sodipodi:type="arc" />
    <path
       transform="matrix(1.3018108,0,0,2.2548024,160.65168,39.687331)"
       d="m 337.54535,201.96848 c 0,9.78457 -13.73857,17.71653 -30.68594,17.71653 -16.94738,0 -30.68594,-7.93196 -30.68594,-17.71653 0,-9.78458 13.73856,-17.71654 30.68594,-17.71654 16.94737,0 30.68594,7.93196 30.68594,17.71654 z"
       sodipodi:ry="17.716536"
       sodipodi:rx="30.68594"
       sodipodi:cy="201.96848"
       sodipodi:cx="306.85941"
       id="path110283"
       style="fill:#000000;fill-opacity:1;stroke:none"
       sodipodi:type="arc" />
    <path
       transform="matrix(1.3018108,0,0,2.2548024,120.53189,-29.837565)"
       d="m 337.54535,201.96848 c 0,9.78457 -13.73857,17.71653 -30.68594,17.71653 -16.94738,0 -30.68594,-7.93196 -30.68594,-17.71653 0,-9.78458 13.73856,-17.71654 30.68594,-17.71654 16.94737,0 30.68594,7.93196 30.68594,17.71654 z"
       sodipodi:ry="17.716536"
       sodipodi:rx="30.68594"
       sodipodi:cy="201.96848"
       sodipodi:cx="306.85941"
       id="path110285"
       style="fill:#000000;fill-opacity:1;stroke:none"
       sodipodi:type="arc" />
    <path
       transform="matrix(1.3018108,0,0,2.2548024,160.65168,178.79684)"
       d="m 337.54535,201.96848 c 0,9.78457 -13.73857,17.71653 -30.68594,17.71653 -16.94738,0 -30.68594,-7.93196 -30.68594,-17.71653 0,-9.78458 13.73856,-17.71654 30.68594,-17.71654 16.94737,0 30.68594,7.93196 30.68594,17.71654 z"
       sodipodi:ry="17.716536"
       sodipodi:rx="30.68594"
       sodipodi:cy="201.96848"
       sodipodi:cx="306.85941"
       id="path110289"
       style="fill:#000000;fill-opacity:1;stroke:none"
       sodipodi:type="arc" />
    <path
       transform="matrix(1.3018108,0,0,2.2548024,120.53189,109.27196)"
       d="m 337.54535,201.96848 c 0,9.78457 -13.73857,17.71653 -30.68594,17.71653 -16.94738,0 -30.68594,-7.93196 -30.68594,-17.71653 0,-9.78458 13.73856,-17.71654 30.68594,-17.71654 16.94737,0 30.68594,7.93196 30.68594,17.71654 z"
       sodipodi:ry="17.716536"
       sodipodi:rx="30.68594"
       sodipodi:cy="201.96848"
       sodipodi:cx="306.85941"
       id="path110291"
       style="fill:#000000;fill-opacity:1;stroke:none"
       sodipodi:type="arc" />
    <path
       transform="matrix(1.3018108,0,0,2.2548024,160.65168,317.90636)"
       d="m 337.54535,201.96848 c 0,9.78457 -13.73857,17.71653 -30.68594,17.71653 -16.94738,0 -30.68594,-7.93196 -30.68594,-17.71653 0,-9.78458 13.73856,-17.71654 30.68594,-17.71654 16.94737,0 30.68594,7.93196 30.68594,17.71654 z"
       sodipodi:ry="17.716536"
       sodipodi:rx="30.68594"
       sodipodi:cy="201.96848"
       sodipodi:cx="306.85941"
       id="path110295"
       style="fill:#000000;fill-opacity:1;stroke:none"
       sodipodi:type="arc" />
    <path
       transform="matrix(1.3018108,0,0,2.2548024,120.53189,248.38148)"
       d="m 337.54535,201.96848 c 0,9.78457 -13.73857,17.71653 -30.68594,17.71653 -16.94738,0 -30.68594,-7.93196 -30.68594,-17.71653 0,-9.78458 13.73856,-17.71654 30.68594,-17.71654 16.94737,0 30.68594,7.93196 30.68594,17.71654 z"
       sodipodi:ry="17.716536"
       sodipodi:rx="30.68594"
       sodipodi:cy="201.96848"
       sodipodi:cx="306.85941"
       id="path110297"
       style="fill:#000000;fill-opacity:1;stroke:none"
       sodipodi:type="arc" />
    <path
       transform="matrix(1.3018108,0,0,2.2548024,160.65168,457.01589)"
       d="m 337.54535,201.96848 c 0,9.78457 -13.73857,17.71653 -30.68594,17.71653 -16.94738,0 -30.68594,-7.93196 -30.68594,-17.71653 0,-9.78458 13.73856,-17.71654 30.68594,-17.71654 16.94737,0 30.68594,7.93196 30.68594,17.71654 z"
       sodipodi:ry="17.716536"
       sodipodi:rx="30.68594"
       sodipodi:cy="201.96848"
       sodipodi:cx="306.85941"
       id="path110301"
       style="fill:#000000;fill-opacity:1;stroke:none"
       sodipodi:type="arc" />
    <path
       transform="matrix(1.3018108,0,0,2.2548024,120.53189,387.491)"
       d="m 337.54535,201.96848 c 0,9.78457 -13.73857,17.71653 -30.68594,17.71653 -16.94738,0 -30.68594,-7.93196 -30.68594,-17.71653 0,-9.78458 13.73856,-17.71654 30.68594,-17.71654 16.94737,0 30.68594,7.93196 30.68594,17.71654 z"
       sodipodi:ry="17.716536"
       sodipodi:rx="30.68594"
       sodipodi:cy="201.96848"
       sodipodi:cx="306.85941"
       id="path110303"
       style="fill:#000000;fill-opacity:1;stroke:none"
       sodipodi:type="arc" />
    <path
       transform="matrix(1.3018108,0,0,2.2548024,240.66125,-377.64121)"
       d="m 337.54535,201.96848 c 0,9.78457 -13.73857,17.71653 -30.68594,17.71653 -16.94738,0 -30.68594,-7.93196 -30.68594,-17.71653 0,-9.78458 13.73856,-17.71654 30.68594,-17.71654 16.94737,0 30.68594,7.93196 30.68594,17.71654 z"
       sodipodi:ry="17.716536"
       sodipodi:rx="30.68594"
       sodipodi:cy="201.96848"
       sodipodi:cx="306.85941"
       id="path110355"
       style="fill:#000000;fill-opacity:1;stroke:none"
       sodipodi:type="arc" />
    <path
       transform="matrix(1.3018108,0,0,2.2548024,240.66125,-238.53171)"
       d="m 337.54535,201.96848 c 0,9.78457 -13.73857,17.71653 -30.68594,17.71653 -16.94738,0 -30.68594,-7.93196 -30.68594,-17.71653 0,-9.78458 13.73856,-17.71654 30.68594,-17.71654 16.94737,0 30.68594,7.93196 30.68594,17.71654 z"
       sodipodi:ry="17.716536"
       sodipodi:rx="30.68594"
       sodipodi:cy="201.96848"
       sodipodi:cx="306.85941"
       id="path110361"
       style="fill:#000000;fill-opacity:1;stroke:none"
       sodipodi:type="arc" />
    <path
       transform="matrix(1.3018108,0,0,2.2548024,200.54147,-308.05659)"
       d="m 337.54535,201.96848 c 0,9.78457 -13.73857,17.71653 -30.68594,17.71653 -16.94738,0 -30.68594,-7.93196 -30.68594,-17.71653 0,-9.78458 13.73856,-17.71654 30.68594,-17.71654 16.94737,0 30.68594,7.93196 30.68594,17.71654 z"
       sodipodi:ry="17.716536"
       sodipodi:rx="30.68594"
       sodipodi:cy="201.96848"
       sodipodi:cx="306.85941"
       id="path110363"
       style="fill:#000000;fill-opacity:1;stroke:none"
       sodipodi:type="arc" />
    <path
       transform="matrix(1.3018108,0,0,2.2548024,240.66125,-99.422189)"
       d="m 337.54535,201.96848 c 0,9.78457 -13.73857,17.71653 -30.68594,17.71653 -16.94738,0 -30.68594,-7.93196 -30.68594,-17.71653 0,-9.78458 13.73856,-17.71654 30.68594,-17.71654 16.94737,0 30.68594,7.93196 30.68594,17.71654 z"
       sodipodi:ry="17.716536"
       sodipodi:rx="30.68594"
       sodipodi:cy="201.96848"
       sodipodi:cx="306.85941"
       id="path110367"
       style="fill:#000000;fill-opacity:1;stroke:none"
       sodipodi:type="arc" />
    <path
       transform="matrix(1.3018108,0,0,2.2548024,200.54147,-168.94707)"
       d="m 337.54535,201.96848 c 0,9.78457 -13.73857,17.71653 -30.68594,17.71653 -16.94738,0 -30.68594,-7.93196 -30.68594,-17.71653 0,-9.78458 13.73856,-17.71654 30.68594,-17.71654 16.94737,0 30.68594,7.93196 30.68594,17.71654 z"
       sodipodi:ry="17.716536"
       sodipodi:rx="30.68594"
       sodipodi:cy="201.96848"
       sodipodi:cx="306.85941"
       id="path110369"
       style="fill:#000000;fill-opacity:1;stroke:none"
       sodipodi:type="arc" />
    <path
       transform="matrix(1.3018108,0,0,2.2548024,240.66125,39.687331)"
       d="m 337.54535,201.96848 c 0,9.78457 -13.73857,17.71653 -30.68594,17.71653 -16.94738,0 -30.68594,-7.93196 -30.68594,-17.71653 0,-9.78458 13.73856,-17.71654 30.68594,-17.71654 16.94737,0 30.68594,7.93196 30.68594,17.71654 z"
       sodipodi:ry="17.716536"
       sodipodi:rx="30.68594"
       sodipodi:cy="201.96848"
       sodipodi:cx="306.85941"
       id="path110373"
       style="fill:#000000;fill-opacity:1;stroke:none"
       sodipodi:type="arc" />
    <path
       transform="matrix(1.3018108,0,0,2.2548024,200.54147,-29.837565)"
       d="m 337.54535,201.96848 c 0,9.78457 -13.73857,17.71653 -30.68594,17.71653 -16.94738,0 -30.68594,-7.93196 -30.68594,-17.71653 0,-9.78458 13.73856,-17.71654 30.68594,-17.71654 16.94737,0 30.68594,7.93196 30.68594,17.71654 z"
       sodipodi:ry="17.716536"
       sodipodi:rx="30.68594"
       sodipodi:cy="201.96848"
       sodipodi:cx="306.85941"
       id="path110375"
       style="fill:#000000;fill-opacity:1;stroke:none"
       sodipodi:type="arc" />
    <path
       transform="matrix(1.3018108,0,0,2.2548024,240.66125,178.79684)"
       d="m 337.54535,201.96848 c 0,9.78457 -13.73857,17.71653 -30.68594,17.71653 -16.94738,0 -30.68594,-7.93196 -30.68594,-17.71653 0,-9.78458 13.73856,-17.71654 30.68594,-17.71654 16.94737,0 30.68594,7.93196 30.68594,17.71654 z"
       sodipodi:ry="17.716536"
       sodipodi:rx="30.68594"
       sodipodi:cy="201.96848"
       sodipodi:cx="306.85941"
       id="path110379"
       style="fill:#000000;fill-opacity:1;stroke:none"
       sodipodi:type="arc" />
    <path
       transform="matrix(1.3018108,0,0,2.2548024,200.54147,109.27196)"
       d="m 337.54535,201.96848 c 0,9.78457 -13.73857,17.71653 -30.68594,17.71653 -16.94738,0 -30.68594,-7.93196 -30.68594,-17.71653 0,-9.78458 13.73856,-17.71654 30.68594,-17.71654 16.94737,0 30.68594,7.93196 30.68594,17.71654 z"
       sodipodi:ry="17.716536"
       sodipodi:rx="30.68594"
       sodipodi:cy="201.96848"
       sodipodi:cx="306.85941"
       id="path110381"
       style="fill:#000000;fill-opacity:1;stroke:none"
       sodipodi:type="arc" />
    <path
       transform="matrix(1.3018108,0,0,2.2548024,240.66125,317.90636)"
       d="m 337.54535,201.96848 c 0,9.78457 -13.73857,17.71653 -30.68594,17.71653 -16.94738,0 -30.68594,-7.93196 -30.68594,-17.71653 0,-9.78458 13.73856,-17.71654 30.68594,-17.71654 16.94737,0 30.68594,7.93196 30.68594,17.71654 z"
       sodipodi:ry="17.716536"
       sodipodi:rx="30.68594"
       sodipodi:cy="201.96848"
       sodipodi:cx="306.85941"
       id="path110385"
       style="fill:#000000;fill-opacity:1;stroke:none"
       sodipodi:type="arc" />
    <path
       transform="matrix(1.3018108,0,0,2.2548024,200.54147,248.38148)"
       d="m 337.54535,201.96848 c 0,9.78457 -13.73857,17.71653 -30.68594,17.71653 -16.94738,0 -30.68594,-7.93196 -30.68594,-17.71653 0,-9.78458 13.73856,-17.71654 30.68594,-17.71654 16.94737,0 30.68594,7.93196 30.68594,17.71654 z"
       sodipodi:ry="17.716536"
       sodipodi:rx="30.68594"
       sodipodi:cy="201.96848"
       sodipodi:cx="306.85941"
       id="path110387"
       style="fill:#000000;fill-opacity:1;stroke:none"
       sodipodi:type="arc" />
    <path
       transform="matrix(1.3018108,0,0,2.2548024,240.66125,457.01589)"
       d="m 337.54535,201.96848 c 0,9.78457 -13.73857,17.71653 -30.68594,17.71653 -16.94738,0 -30.68594,-7.93196 -30.68594,-17.71653 0,-9.78458 13.73856,-17.71654 30.68594,-17.71654 16.94737,0 30.68594,7.93196 30.68594,17.71654 z"
       sodipodi:ry="17.716536"
       sodipodi:rx="30.68594"
       sodipodi:cy="201.96848"
       sodipodi:cx="306.85941"
       id="path110391"
       style="fill:#000000;fill-opacity:1;stroke:none"
       sodipodi:type="arc" />
    <path
       transform="matrix(1.3018108,0,0,2.2548024,200.54147,387.491)"
       d="m 337.54535,201.96848 c 0,9.78457 -13.73857,17.71653 -30.68594,17.71653 -16.94738,0 -30.68594,-7.93196 -30.68594,-17.71653 0,-9.78458 13.73856,-17.71654 30.68594,-17.71654 16.94737,0 30.68594,7.93196 30.68594,17.71654 z"
       sodipodi:ry="17.716536"
       sodipodi:rx="30.68594"
       sodipodi:cy="201.96848"
       sodipodi:cx="306.85941"
       id="path110393"
       style="fill:#000000;fill-opacity:1;stroke:none"
       sodipodi:type="arc" />
    <path
       transform="matrix(1.3018108,0,0,2.2548024,320.67085,-238.53171)"
       d="m 337.54535,201.96848 c 0,9.78457 -13.73857,17.71653 -30.68594,17.71653 -16.94738,0 -30.68594,-7.93196 -30.68594,-17.71653 0,-9.78458 13.73856,-17.71654 30.68594,-17.71654 16.94737,0 30.68594,7.93196 30.68594,17.71654 z"
       sodipodi:ry="17.716536"
       sodipodi:rx="30.68594"
       sodipodi:cy="201.96848"
       sodipodi:cx="306.85941"
       id="path110451"
       style="fill:#000000;fill-opacity:1;stroke:none"
       sodipodi:type="arc" />
    <path
       transform="matrix(1.3018108,0,0,2.2548024,320.67085,-99.422189)"
       d="m 337.54535,201.96848 c 0,9.78457 -13.73857,17.71653 -30.68594,17.71653 -16.94738,0 -30.68594,-7.93196 -30.68594,-17.71653 0,-9.78458 13.73856,-17.71654 30.68594,-17.71654 16.94737,0 30.68594,7.93196 30.68594,17.71654 z"
       sodipodi:ry="17.716536"
       sodipodi:rx="30.68594"
       sodipodi:cy="201.96848"
       sodipodi:cx="306.85941"
       id="path110457"
       style="fill:#000000;fill-opacity:1;stroke:none"
       sodipodi:type="arc" />
    <path
       transform="matrix(1.3018108,0,0,2.2548024,280.55106,-168.94707)"
       d="m 337.54535,201.96848 c 0,9.78457 -13.73857,17.71653 -30.68594,17.71653 -16.94738,0 -30.68594,-7.93196 -30.68594,-17.71653 0,-9.78458 13.73856,-17.71654 30.68594,-17.71654 16.94737,0 30.68594,7.93196 30.68594,17.71654 z"
       sodipodi:ry="17.716536"
       sodipodi:rx="30.68594"
       sodipodi:cy="201.96848"
       sodipodi:cx="306.85941"
       id="path110459"
       style="fill:#000000;fill-opacity:1;stroke:none"
       sodipodi:type="arc" />
    <path
       transform="matrix(1.3018108,0,0,2.2548024,320.67085,39.687331)"
       d="m 337.54535,201.96848 c 0,9.78457 -13.73857,17.71653 -30.68594,17.71653 -16.94738,0 -30.68594,-7.93196 -30.68594,-17.71653 0,-9.78458 13.73856,-17.71654 30.68594,-17.71654 16.94737,0 30.68594,7.93196 30.68594,17.71654 z"
       sodipodi:ry="17.716536"
       sodipodi:rx="30.68594"
       sodipodi:cy="201.96848"
       sodipodi:cx="306.85941"
       id="path110463"
       style="fill:#000000;fill-opacity:1;stroke:none"
       sodipodi:type="arc" />
    <path
       transform="matrix(1.3018108,0,0,2.2548024,280.55106,-29.837565)"
       d="m 337.54535,201.96848 c 0,9.78457 -13.73857,17.71653 -30.68594,17.71653 -16.94738,0 -30.68594,-7.93196 -30.68594,-17.71653 0,-9.78458 13.73856,-17.71654 30.68594,-17.71654 16.94737,0 30.68594,7.93196 30.68594,17.71654 z"
       sodipodi:ry="17.716536"
       sodipodi:rx="30.68594"
       sodipodi:cy="201.96848"
       sodipodi:cx="306.85941"
       id="path110465"
       style="fill:#000000;fill-opacity:1;stroke:none"
       sodipodi:type="arc" />
    <path
       transform="matrix(1.3018108,0,0,2.2548024,320.67085,178.79684)"
       d="m 337.54535,201.96848 c 0,9.78457 -13.73857,17.71653 -30.68594,17.71653 -16.94738,0 -30.68594,-7.93196 -30.68594,-17.71653 0,-9.78458 13.73856,-17.71654 30.68594,-17.71654 16.94737,0 30.68594,7.93196 30.68594,17.71654 z"
       sodipodi:ry="17.716536"
       sodipodi:rx="30.68594"
       sodipodi:cy="201.96848"
       sodipodi:cx="306.85941"
       id="path110469"
       style="fill:#000000;fill-opacity:1;stroke:none"
       sodipodi:type="arc" />
    <path
       transform="matrix(1.3018108,0,0,2.2548024,280.55106,109.27196)"
       d="m 337.54535,201.96848 c 0,9.78457 -13.73857,17.71653 -30.68594,17.71653 -16.94738,0 -30.68594,-7.93196 -30.68594,-17.71653 0,-9.78458 13.73856,-17.71654 30.68594,-17.71654 16.94737,0 30.68594,7.93196 30.68594,17.71654 z"
       sodipodi:ry="17.716536"
       sodipodi:rx="30.68594"
       sodipodi:cy="201.96848"
       sodipodi:cx="306.85941"
       id="path110471"
       style="fill:#000000;fill-opacity:1;stroke:none"
       sodipodi:type="arc" />
    <path
       transform="matrix(1.3018108,0,0,2.2548024,320.67085,317.90636)"
       d="m 337.54535,201.96848 c 0,9.78457 -13.73857,17.71653 -30.68594,17.71653 -16.94738,0 -30.68594,-7.93196 -30.68594,-17.71653 0,-9.78458 13.73856,-17.71654 30.68594,-17.71654 16.94737,0 30.68594,7.93196 30.68594,17.71654 z"
       sodipodi:ry="17.716536"
       sodipodi:rx="30.68594"
       sodipodi:cy="201.96848"
       sodipodi:cx="306.85941"
       id="path110475"
       style="fill:#000000;fill-opacity:1;stroke:none"
       sodipodi:type="arc" />
    <path
       transform="matrix(1.3018108,0,0,2.2548024,280.55106,248.38148)"
       d="m 337.54535,201.96848 c 0,9.78457 -13.73857,17.71653 -30.68594,17.71653 -16.94738,0 -30.68594,-7.93196 -30.68594,-17.71653 0,-9.78458 13.73856,-17.71654 30.68594,-17.71654 16.94737,0 30.68594,7.93196 30.68594,17.71654 z"
       sodipodi:ry="17.716536"
       sodipodi:rx="30.68594"
       sodipodi:cy="201.96848"
       sodipodi:cx="306.85941"
       id="path110477"
       style="fill:#000000;fill-opacity:1;stroke:none"
       sodipodi:type="arc" />
    <path
       transform="matrix(1.3018108,0,0,2.2548024,400.68043,-238.53171)"
       d="m 337.54535,201.96848 c 0,9.78457 -13.73857,17.71653 -30.68594,17.71653 -16.94738,0 -30.68594,-7.93196 -30.68594,-17.71653 0,-9.78458 13.73856,-17.71654 30.68594,-17.71654 16.94737,0 30.68594,7.93196 30.68594,17.71654 z"
       sodipodi:ry="17.716536"
       sodipodi:rx="30.68594"
       sodipodi:cy="201.96848"
       sodipodi:cx="306.85941"
       id="path110541"
       style="fill:#000000;fill-opacity:1;stroke:none"
       sodipodi:type="arc" />
    <path
       transform="matrix(1.3018108,0,0,2.2548024,360.56064,-308.05659)"
       d="m 337.54535,201.96848 c 0,9.78457 -13.73857,17.71653 -30.68594,17.71653 -16.94738,0 -30.68594,-7.93196 -30.68594,-17.71653 0,-9.78458 13.73856,-17.71654 30.68594,-17.71654 16.94737,0 30.68594,7.93196 30.68594,17.71654 z"
       sodipodi:ry="17.716536"
       sodipodi:rx="30.68594"
       sodipodi:cy="201.96848"
       sodipodi:cx="306.85941"
       id="path110543"
       style="fill:#000000;fill-opacity:1;stroke:none"
       sodipodi:type="arc" />
    <path
       transform="matrix(1.3018108,0,0,2.2548024,400.68043,-99.422189)"
       d="m 337.54535,201.96848 c 0,9.78457 -13.73857,17.71653 -30.68594,17.71653 -16.94738,0 -30.68594,-7.93196 -30.68594,-17.71653 0,-9.78458 13.73856,-17.71654 30.68594,-17.71654 16.94737,0 30.68594,7.93196 30.68594,17.71654 z"
       sodipodi:ry="17.716536"
       sodipodi:rx="30.68594"
       sodipodi:cy="201.96848"
       sodipodi:cx="306.85941"
       id="path110547"
       style="fill:#000000;fill-opacity:1;stroke:none"
       sodipodi:type="arc" />
    <path
       transform="matrix(1.3018108,0,0,2.2548024,360.56064,-168.94707)"
       d="m 337.54535,201.96848 c 0,9.78457 -13.73857,17.71653 -30.68594,17.71653 -16.94738,0 -30.68594,-7.93196 -30.68594,-17.71653 0,-9.78458 13.73856,-17.71654 30.68594,-17.71654 16.94737,0 30.68594,7.93196 30.68594,17.71654 z"
       sodipodi:ry="17.716536"
       sodipodi:rx="30.68594"
       sodipodi:cy="201.96848"
       sodipodi:cx="306.85941"
       id="path110549"
       style="fill:#000000;fill-opacity:1;stroke:none"
       sodipodi:type="arc" />
    <path
       transform="matrix(1.3018108,0,0,2.2548024,400.68043,39.687331)"
       d="m 337.54535,201.96848 c 0,9.78457 -13.73857,17.71653 -30.68594,17.71653 -16.94738,0 -30.68594,-7.93196 -30.68594,-17.71653 0,-9.78458 13.73856,-17.71654 30.68594,-17.71654 16.94737,0 30.68594,7.93196 30.68594,17.71654 z"
       sodipodi:ry="17.716536"
       sodipodi:rx="30.68594"
       sodipodi:cy="201.96848"
       sodipodi:cx="306.85941"
       id="path110553"
       style="fill:#000000;fill-opacity:1;stroke:none"
       sodipodi:type="arc" />
    <path
       transform="matrix(1.3018108,0,0,2.2548024,360.56064,-29.837565)"
       d="m 337.54535,201.96848 c 0,9.78457 -13.73857,17.71653 -30.68594,17.71653 -16.94738,0 -30.68594,-7.93196 -30.68594,-17.71653 0,-9.78458 13.73856,-17.71654 30.68594,-17.71654 16.94737,0 30.68594,7.93196 30.68594,17.71654 z"
       sodipodi:ry="17.716536"
       sodipodi:rx="30.68594"
       sodipodi:cy="201.96848"
       sodipodi:cx="306.85941"
       id="path110555"
       style="fill:#000000;fill-opacity:1;stroke:none"
       sodipodi:type="arc" />
    <path
       transform="matrix(1.3018108,0,0,2.2548024,400.68043,178.79684)"
       d="m 337.54535,201.96848 c 0,9.78457 -13.73857,17.71653 -30.68594,17.71653 -16.94738,0 -30.68594,-7.93196 -30.68594,-17.71653 0,-9.78458 13.73856,-17.71654 30.68594,-17.71654 16.94737,0 30.68594,7.93196 30.68594,17.71654 z"
       sodipodi:ry="17.716536"
       sodipodi:rx="30.68594"
       sodipodi:cy="201.96848"
       sodipodi:cx="306.85941"
       id="path110559"
       style="fill:#000000;fill-opacity:1;stroke:none"
       sodipodi:type="arc" />
    <path
       transform="matrix(1.3018108,0,0,2.2548024,360.56064,109.27196)"
       d="m 337.54535,201.96848 c 0,9.78457 -13.73857,17.71653 -30.68594,17.71653 -16.94738,0 -30.68594,-7.93196 -30.68594,-17.71653 0,-9.78458 13.73856,-17.71654 30.68594,-17.71654 16.94737,0 30.68594,7.93196 30.68594,17.71654 z"
       sodipodi:ry="17.716536"
       sodipodi:rx="30.68594"
       sodipodi:cy="201.96848"
       sodipodi:cx="306.85941"
       id="path110561"
       style="fill:#000000;fill-opacity:1;stroke:none"
       sodipodi:type="arc" />
    <path
       transform="matrix(1.3018108,0,0,2.2548024,400.68043,317.90636)"
       d="m 337.54535,201.96848 c 0,9.78457 -13.73857,17.71653 -30.68594,17.71653 -16.94738,0 -30.68594,-7.93196 -30.68594,-17.71653 0,-9.78458 13.73856,-17.71654 30.68594,-17.71654 16.94737,0 30.68594,7.93196 30.68594,17.71654 z"
       sodipodi:ry="17.716536"
       sodipodi:rx="30.68594"
       sodipodi:cy="201.96848"
       sodipodi:cx="306.85941"
       id="path110565"
       style="fill:#000000;fill-opacity:1;stroke:none"
       sodipodi:type="arc" />
    <path
       transform="matrix(1.3018108,0,0,2.2548024,360.56064,248.38148)"
       d="m 337.54535,201.96848 c 0,9.78457 -13.73857,17.71653 -30.68594,17.71653 -16.94738,0 -30.68594,-7.93196 -30.68594,-17.71653 0,-9.78458 13.73856,-17.71654 30.68594,-17.71654 16.94737,0 30.68594,7.93196 30.68594,17.71654 z"
       sodipodi:ry="17.716536"
       sodipodi:rx="30.68594"
       sodipodi:cy="201.96848"
       sodipodi:cx="306.85941"
       id="path110567"
       style="fill:#000000;fill-opacity:1;stroke:none"
       sodipodi:type="arc" />
    <path
       transform="matrix(1.3018108,0,0,2.2548024,360.56064,387.491)"
       d="m 337.54535,201.96848 c 0,9.78457 -13.73857,17.71653 -30.68594,17.71653 -16.94738,0 -30.68594,-7.93196 -30.68594,-17.71653 0,-9.78458 13.73856,-17.71654 30.68594,-17.71654 16.94737,0 30.68594,7.93196 30.68594,17.71654 z"
       sodipodi:ry="17.716536"
       sodipodi:rx="30.68594"
       sodipodi:cy="201.96848"
       sodipodi:cx="306.85941"
       id="path110573"
       style="fill:#000000;fill-opacity:1;stroke:none"
       sodipodi:type="arc" />
    <path
       transform="matrix(1.3018108,0,0,2.2548024,480.69,-99.422189)"
       d="m 337.54535,201.96848 c 0,9.78457 -13.73857,17.71653 -30.68594,17.71653 -16.94738,0 -30.68594,-7.93196 -30.68594,-17.71653 0,-9.78458 13.73856,-17.71654 30.68594,-17.71654 16.94737,0 30.68594,7.93196 30.68594,17.71654 z"
       sodipodi:ry="17.716536"
       sodipodi:rx="30.68594"
       sodipodi:cy="201.96848"
       sodipodi:cx="306.85941"
       id="path110637"
       style="fill:#000000;fill-opacity:1;stroke:none"
       sodipodi:type="arc" />
    <path
       transform="matrix(1.3018108,0,0,2.2548024,440.57021,-168.94707)"
       d="m 337.54535,201.96848 c 0,9.78457 -13.73857,17.71653 -30.68594,17.71653 -16.94738,0 -30.68594,-7.93196 -30.68594,-17.71653 0,-9.78458 13.73856,-17.71654 30.68594,-17.71654 16.94737,0 30.68594,7.93196 30.68594,17.71654 z"
       sodipodi:ry="17.716536"
       sodipodi:rx="30.68594"
       sodipodi:cy="201.96848"
       sodipodi:cx="306.85941"
       id="path110639"
       style="fill:#000000;fill-opacity:1;stroke:none"
       sodipodi:type="arc" />
    <path
       transform="matrix(1.3018108,0,0,2.2548024,440.57021,-29.837565)"
       d="m 337.54535,201.96848 c 0,9.78457 -13.73857,17.71653 -30.68594,17.71653 -16.94738,0 -30.68594,-7.93196 -30.68594,-17.71653 0,-9.78458 13.73856,-17.71654 30.68594,-17.71654 16.94737,0 30.68594,7.93196 30.68594,17.71654 z"
       sodipodi:ry="17.716536"
       sodipodi:rx="30.68594"
       sodipodi:cy="201.96848"
       sodipodi:cx="306.85941"
       id="path110645"
       style="fill:#000000;fill-opacity:1;stroke:none"
       sodipodi:type="arc" />
    <path
       transform="matrix(1.3018108,0,0,2.2548024,480.69,178.79684)"
       d="m 337.54535,201.96848 c 0,9.78457 -13.73857,17.71653 -30.68594,17.71653 -16.94738,0 -30.68594,-7.93196 -30.68594,-17.71653 0,-9.78458 13.73856,-17.71654 30.68594,-17.71654 16.94737,0 30.68594,7.93196 30.68594,17.71654 z"
       sodipodi:ry="17.716536"
       sodipodi:rx="30.68594"
       sodipodi:cy="201.96848"
       sodipodi:cx="306.85941"
       id="path110649"
       style="fill:#000000;fill-opacity:1;stroke:none"
       sodipodi:type="arc" />
    <path
       transform="matrix(1.3018108,0,0,2.2548024,440.57021,109.27196)"
       d="m 337.54535,201.96848 c 0,9.78457 -13.73857,17.71653 -30.68594,17.71653 -16.94738,0 -30.68594,-7.93196 -30.68594,-17.71653 0,-9.78458 13.73856,-17.71654 30.68594,-17.71654 16.94737,0 30.68594,7.93196 30.68594,17.71654 z"
       sodipodi:ry="17.716536"
       sodipodi:rx="30.68594"
       sodipodi:cy="201.96848"
       sodipodi:cx="306.85941"
       id="path110651"
       style="fill:#000000;fill-opacity:1;stroke:none"
       sodipodi:type="arc" />
    <path
       transform="matrix(1.3018108,0,0,2.2548024,440.57021,248.38148)"
       d="m 337.54535,201.96848 c 0,9.78457 -13.73857,17.71653 -30.68594,17.71653 -16.94738,0 -30.68594,-7.93196 -30.68594,-17.71653 0,-9.78458 13.73856,-17.71654 30.68594,-17.71654 16.94737,0 30.68594,7.93196 30.68594,17.71654 z"
       sodipodi:ry="17.716536"
       sodipodi:rx="30.68594"
       sodipodi:cy="201.96848"
       sodipodi:cx="306.85941"
       id="path110657"
       style="fill:#000000;fill-opacity:1;stroke:none"
       sodipodi:type="arc" />
    <path
       transform="matrix(1.3018108,0,0,2.2548024,520.57982,-29.837565)"
       d="m 337.54535,201.96848 c 0,9.78457 -13.73857,17.71653 -30.68594,17.71653 -16.94738,0 -30.68594,-7.93196 -30.68594,-17.71653 0,-9.78458 13.73856,-17.71654 30.68594,-17.71654 16.94737,0 30.68594,7.93196 30.68594,17.71654 z"
       sodipodi:ry="17.716536"
       sodipodi:rx="30.68594"
       sodipodi:cy="201.96848"
       sodipodi:cx="306.85941"
       id="path110735"
       style="fill:#000000;fill-opacity:1;stroke:none"
       sodipodi:type="arc" />
    <path
       transform="matrix(1.3018108,0,0,2.2548024,520.57982,109.27196)"
       d="m 337.54535,201.96848 c 0,9.78457 -13.73857,17.71653 -30.68594,17.71653 -16.94738,0 -30.68594,-7.93196 -30.68594,-17.71653 0,-9.78458 13.73856,-17.71654 30.68594,-17.71654 16.94737,0 30.68594,7.93196 30.68594,17.71654 z"
       sodipodi:ry="17.716536"
       sodipodi:rx="30.68594"
       sodipodi:cy="201.96848"
       sodipodi:cx="306.85941"
       id="path110741"
       style="fill:#000000;fill-opacity:1;stroke:none"
       sodipodi:type="arc" />
    <rect
       style="fill:#000000;fill-opacity:1;stroke:none"
       id="rect4000"
       width="100"
       height="100"
       x="0"
       y="952.36218" />
    <text
       xml:space="preserve"
       style="font-size:40px;font-style:normal;font-variant:normal;font-weight:normal;font-stretch:normal;line-height:125%;letter-spacing:0px;word-spacing:0px;fill:#000000;fill-opacity:1;stroke:none;font-family:Monospace;-inkscape-font-specification:Monospace"
       x="17.301765"
       y="1006.8153"
       id="text3997-0"
       sodipodi:linespacing="125%"><tspan
         sodipodi:role="line"
         x="17.301765"
         y="1006.8153"
         id="tspan4003-4"
         style="font-size:12px;fill:#000000;fill-opacity:1">1 x 1 m^2</tspan></text>
    <text
       xml:space="preserve"
       style="font-size:40px;font-style:normal;font-variant:normal;font-weight:normal;font-stretch:normal;line-height:125%;letter-spacing:0px;word-spacing:0px;fill:#000000;fill-opacity:1;stroke:none;font-family:Monospace;-inkscape-font-specification:Monospace"
       x="110.00001"
       y="1031.5438"
       id="text3997"
       sodipodi:linespacing="125%"><tspan
         sodipodi:role="line"
         id="tspan3999"
         x="110.00001"
         y="1031.5438"
         style="font-size:12px;fill:#000000;fill-opacity:1">CANGAROO III</tspan><tspan
         sodipodi:role="line"
         x="110.00001"
         y="1046.5438"
         style="font-size:12px;fill:#000000;fill-opacity:1"
         id="tspan3886">facets: 80cm diameter</tspan></text>
    <text
       xml:space="preserve"
       style="font-size:40px;font-style:normal;font-variant:normal;font-weight:normal;font-stretch:normal;line-height:125%;letter-spacing:0px;word-spacing:0px;fill:#000000;fill-opacity:1;stroke:none;font-family:Monospace;-inkscape-font-specification:Monospace"
       x="13.558601"
       y="1007.3622"
       id="text3997-7"
       sodipodi:linespacing="125%"><tspan
         sodipodi:role="line"
         x="13.558601"
         y="1007.3622"
         id="tspan4003-2"
         style="font-size:12px;fill:#ffffff;fill-opacity:1">1 x 1 m^2</tspan></text>
  </g>
</svg>
