<?xml version="1.0" encoding="UTF-8" standalone="no"?>
<!-- Created with Inkscape (http://www.inkscape.org/) -->

<svg
   xmlns:dc="http://purl.org/dc/elements/1.1/"
   xmlns:cc="http://creativecommons.org/ns#"
   xmlns:rdf="http://www.w3.org/1999/02/22-rdf-syntax-ns#"
   xmlns:svg="http://www.w3.org/2000/svg"
   xmlns="http://www.w3.org/2000/svg"
   xmlns:sodipodi="http://sodipodi.sourceforge.net/DTD/sodipodi-0.dtd"
   xmlns:inkscape="http://www.inkscape.org/namespaces/inkscape"
   width="550"
   height="584.65662"
   id="svg87156"
   version="1.1"
   inkscape:version="0.48.4 r9939"
   sodipodi:docname="CAT_France_aperture.svg">
  <defs
     id="defs87158" />
  <sodipodi:namedview
     id="base"
     pagecolor="#ffffff"
     bordercolor="#666666"
     borderopacity="1.0"
     inkscape:pageopacity="0.0"
     inkscape:pageshadow="2"
     inkscape:zoom="0.70710678"
     inkscape:cx="545.17227"
     inkscape:cy="407.61076"
     inkscape:document-units="px"
     inkscape:current-layer="layer1"
     showgrid="true"
     showguides="true"
     inkscape:guide-bbox="true"
     inkscape:window-width="960"
     inkscape:window-height="1028"
     inkscape:window-x="960"
     inkscape:window-y="24"
     inkscape:window-maximized="0"
     fit-margin-top="0"
     fit-margin-left="0"
     fit-margin-right="0"
     fit-margin-bottom="0">
    <inkscape:grid
       type="axonomgrid"
       id="grid87164"
       units="cm"
       empspacing="5"
       visible="true"
       enabled="true"
       snapvisiblegridlinesonly="true"
       spacingy="1cm"
       originx="5.1694622e-08cm"
       originy="0cm" />
  </sodipodi:namedview>
  <metadata
     id="metadata87161">
    <rdf:RDF>
      <cc:Work
         rdf:about="">
        <dc:format>image/svg+xml</dc:format>
        <dc:type
           rdf:resource="http://purl.org/dc/dcmitype/StillImage" />
        <dc:title />
      </cc:Work>
    </rdf:RDF>
  </metadata>
  <g
     inkscape:label="Layer 1"
     inkscape:groupmode="layer"
     id="layer1"
     transform="translate(1.8316992e-6,-467.70554)">
    <path
       transform="matrix(0.81364065,0,0,1.409267,-199.63082,381.93416)"
       d="m 337.54535,201.96848 c 0,9.78457 -13.73857,17.71653 -30.68594,17.71653 -16.94738,0 -30.68594,-7.93196 -30.68594,-17.71653 0,-9.78458 13.73856,-17.71654 30.68594,-17.71654 16.94737,0 30.68594,7.93196 30.68594,17.71654 z"
       sodipodi:ry="17.716536"
       sodipodi:rx="30.68594"
       sodipodi:cy="201.96848"
       sodipodi:cx="306.85941"
       id="path33099"
       style="fill:#000000;fill-opacity:1;stroke:none"
       sodipodi:type="arc" />
    <path
       transform="matrix(0.81364065,0,0,1.409267,-199.63082,468.87855)"
       d="m 337.54535,201.96848 c 0,9.78457 -13.73857,17.71653 -30.68594,17.71653 -16.94738,0 -30.68594,-7.93196 -30.68594,-17.71653 0,-9.78458 13.73856,-17.71654 30.68594,-17.71654 16.94737,0 30.68594,7.93196 30.68594,17.71654 z"
       sodipodi:ry="17.716536"
       sodipodi:rx="30.68594"
       sodipodi:cy="201.96848"
       sodipodi:cx="306.85941"
       id="path33105"
       style="fill:#000000;fill-opacity:1;stroke:none"
       sodipodi:type="arc" />
    <path
       transform="matrix(0.81364065,0,0,1.409267,-224.70596,425.42502)"
       d="m 337.54535,201.96848 c 0,9.78457 -13.73857,17.71653 -30.68594,17.71653 -16.94738,0 -30.68594,-7.93196 -30.68594,-17.71653 0,-9.78458 13.73856,-17.71654 30.68594,-17.71654 16.94737,0 30.68594,7.93196 30.68594,17.71654 z"
       sodipodi:ry="17.716536"
       sodipodi:rx="30.68594"
       sodipodi:cy="201.96848"
       sodipodi:cx="306.85941"
       id="path33107"
       style="fill:#000000;fill-opacity:1;stroke:none"
       sodipodi:type="arc" />
    <path
       transform="matrix(0.81364065,0,0,1.409267,-149.62428,294.98976)"
       d="m 337.54535,201.96848 c 0,9.78457 -13.73857,17.71653 -30.68594,17.71653 -16.94738,0 -30.68594,-7.93196 -30.68594,-17.71653 0,-9.78458 13.73856,-17.71654 30.68594,-17.71654 16.94737,0 30.68594,7.93196 30.68594,17.71654 z"
       sodipodi:ry="17.716536"
       sodipodi:rx="30.68594"
       sodipodi:cy="201.96848"
       sodipodi:cx="306.85941"
       id="path33183"
       style="fill:#000000;fill-opacity:1;stroke:none"
       sodipodi:type="arc" />
    <path
       transform="matrix(0.81364065,0,0,1.409267,-149.62428,381.93416)"
       d="m 337.54535,201.96848 c 0,9.78457 -13.73857,17.71653 -30.68594,17.71653 -16.94738,0 -30.68594,-7.93196 -30.68594,-17.71653 0,-9.78458 13.73856,-17.71654 30.68594,-17.71654 16.94737,0 30.68594,7.93196 30.68594,17.71654 z"
       sodipodi:ry="17.716536"
       sodipodi:rx="30.68594"
       sodipodi:cy="201.96848"
       sodipodi:cx="306.85941"
       id="path33189"
       style="fill:#000000;fill-opacity:1;stroke:none"
       sodipodi:type="arc" />
    <path
       transform="matrix(0.81364065,0,0,1.409267,-174.69943,338.48063)"
       d="m 337.54535,201.96848 c 0,9.78457 -13.73857,17.71653 -30.68594,17.71653 -16.94738,0 -30.68594,-7.93196 -30.68594,-17.71653 0,-9.78458 13.73856,-17.71654 30.68594,-17.71654 16.94737,0 30.68594,7.93196 30.68594,17.71654 z"
       sodipodi:ry="17.716536"
       sodipodi:rx="30.68594"
       sodipodi:cy="201.96848"
       sodipodi:cx="306.85941"
       id="path33191"
       style="fill:#000000;fill-opacity:1;stroke:none"
       sodipodi:type="arc" />
    <path
       transform="matrix(0.81364065,0,0,1.409267,-149.62428,468.87855)"
       d="m 337.54535,201.96848 c 0,9.78457 -13.73857,17.71653 -30.68594,17.71653 -16.94738,0 -30.68594,-7.93196 -30.68594,-17.71653 0,-9.78458 13.73856,-17.71654 30.68594,-17.71654 16.94737,0 30.68594,7.93196 30.68594,17.71654 z"
       sodipodi:ry="17.716536"
       sodipodi:rx="30.68594"
       sodipodi:cy="201.96848"
       sodipodi:cx="306.85941"
       id="path33195"
       style="fill:#000000;fill-opacity:1;stroke:none"
       sodipodi:type="arc" />
    <path
       transform="matrix(0.81364065,0,0,1.409267,-174.69943,425.42502)"
       d="m 337.54535,201.96848 c 0,9.78457 -13.73857,17.71653 -30.68594,17.71653 -16.94738,0 -30.68594,-7.93196 -30.68594,-17.71653 0,-9.78458 13.73856,-17.71654 30.68594,-17.71654 16.94737,0 30.68594,7.93196 30.68594,17.71654 z"
       sodipodi:ry="17.716536"
       sodipodi:rx="30.68594"
       sodipodi:cy="201.96848"
       sodipodi:cx="306.85941"
       id="path33197"
       style="fill:#000000;fill-opacity:1;stroke:none"
       sodipodi:type="arc" />
    <path
       transform="matrix(0.81364065,0,0,1.409267,-149.62428,555.82295)"
       d="m 337.54535,201.96848 c 0,9.78457 -13.73857,17.71653 -30.68594,17.71653 -16.94738,0 -30.68594,-7.93196 -30.68594,-17.71653 0,-9.78458 13.73856,-17.71654 30.68594,-17.71654 16.94737,0 30.68594,7.93196 30.68594,17.71654 z"
       sodipodi:ry="17.716536"
       sodipodi:rx="30.68594"
       sodipodi:cy="201.96848"
       sodipodi:cx="306.85941"
       id="path33201"
       style="fill:#000000;fill-opacity:1;stroke:none"
       sodipodi:type="arc" />
    <path
       transform="matrix(0.81364065,0,0,1.409267,-174.69943,512.36942)"
       d="m 337.54535,201.96848 c 0,9.78457 -13.73857,17.71653 -30.68594,17.71653 -16.94738,0 -30.68594,-7.93196 -30.68594,-17.71653 0,-9.78458 13.73856,-17.71654 30.68594,-17.71654 16.94737,0 30.68594,7.93196 30.68594,17.71654 z"
       sodipodi:ry="17.716536"
       sodipodi:rx="30.68594"
       sodipodi:cy="201.96848"
       sodipodi:cx="306.85941"
       id="path33203"
       style="fill:#000000;fill-opacity:1;stroke:none"
       sodipodi:type="arc" />
    <path
       transform="matrix(0.81364065,0,0,1.409267,-99.617745,208.04536)"
       d="m 337.54535,201.96848 c 0,9.78457 -13.73857,17.71653 -30.68594,17.71653 -16.94738,0 -30.68594,-7.93196 -30.68594,-17.71653 0,-9.78458 13.73856,-17.71654 30.68594,-17.71654 16.94737,0 30.68594,7.93196 30.68594,17.71654 z"
       sodipodi:ry="17.716536"
       sodipodi:rx="30.68594"
       sodipodi:cy="201.96848"
       sodipodi:cx="306.85941"
       id="path33267"
       style="fill:#000000;fill-opacity:1;stroke:none"
       sodipodi:type="arc" />
    <path
       transform="matrix(0.81364065,0,0,1.409267,-99.617745,294.98976)"
       d="m 337.54535,201.96848 c 0,9.78457 -13.73857,17.71653 -30.68594,17.71653 -16.94738,0 -30.68594,-7.93196 -30.68594,-17.71653 0,-9.78458 13.73856,-17.71654 30.68594,-17.71654 16.94737,0 30.68594,7.93196 30.68594,17.71654 z"
       sodipodi:ry="17.716536"
       sodipodi:rx="30.68594"
       sodipodi:cy="201.96848"
       sodipodi:cx="306.85941"
       id="path33273"
       style="fill:#000000;fill-opacity:1;stroke:none"
       sodipodi:type="arc" />
    <path
       transform="matrix(0.81364065,0,0,1.409267,-124.69289,251.53623)"
       d="m 337.54535,201.96848 c 0,9.78457 -13.73857,17.71653 -30.68594,17.71653 -16.94738,0 -30.68594,-7.93196 -30.68594,-17.71653 0,-9.78458 13.73856,-17.71654 30.68594,-17.71654 16.94737,0 30.68594,7.93196 30.68594,17.71654 z"
       sodipodi:ry="17.716536"
       sodipodi:rx="30.68594"
       sodipodi:cy="201.96848"
       sodipodi:cx="306.85941"
       id="path33275"
       style="fill:#000000;fill-opacity:1;stroke:none"
       sodipodi:type="arc" />
    <path
       transform="matrix(0.81364065,0,0,1.409267,-99.617745,381.93416)"
       d="m 337.54535,201.96848 c 0,9.78457 -13.73857,17.71653 -30.68594,17.71653 -16.94738,0 -30.68594,-7.93196 -30.68594,-17.71653 0,-9.78458 13.73856,-17.71654 30.68594,-17.71654 16.94737,0 30.68594,7.93196 30.68594,17.71654 z"
       sodipodi:ry="17.716536"
       sodipodi:rx="30.68594"
       sodipodi:cy="201.96848"
       sodipodi:cx="306.85941"
       id="path33279"
       style="fill:#000000;fill-opacity:1;stroke:none"
       sodipodi:type="arc" />
    <path
       transform="matrix(0.81364065,0,0,1.409267,-124.69289,338.48063)"
       d="m 337.54535,201.96848 c 0,9.78457 -13.73857,17.71653 -30.68594,17.71653 -16.94738,0 -30.68594,-7.93196 -30.68594,-17.71653 0,-9.78458 13.73856,-17.71654 30.68594,-17.71654 16.94737,0 30.68594,7.93196 30.68594,17.71654 z"
       sodipodi:ry="17.716536"
       sodipodi:rx="30.68594"
       sodipodi:cy="201.96848"
       sodipodi:cx="306.85941"
       id="path33281"
       style="fill:#000000;fill-opacity:1;stroke:none"
       sodipodi:type="arc" />
    <path
       transform="matrix(0.81364065,0,0,1.409267,-99.617745,468.87855)"
       d="m 337.54535,201.96848 c 0,9.78457 -13.73857,17.71653 -30.68594,17.71653 -16.94738,0 -30.68594,-7.93196 -30.68594,-17.71653 0,-9.78458 13.73856,-17.71654 30.68594,-17.71654 16.94737,0 30.68594,7.93196 30.68594,17.71654 z"
       sodipodi:ry="17.716536"
       sodipodi:rx="30.68594"
       sodipodi:cy="201.96848"
       sodipodi:cx="306.85941"
       id="path33285"
       style="fill:#000000;fill-opacity:1;stroke:none"
       sodipodi:type="arc" />
    <path
       transform="matrix(0.81364065,0,0,1.409267,-124.69289,425.42502)"
       d="m 337.54535,201.96848 c 0,9.78457 -13.73857,17.71653 -30.68594,17.71653 -16.94738,0 -30.68594,-7.93196 -30.68594,-17.71653 0,-9.78458 13.73856,-17.71654 30.68594,-17.71654 16.94737,0 30.68594,7.93196 30.68594,17.71654 z"
       sodipodi:ry="17.716536"
       sodipodi:rx="30.68594"
       sodipodi:cy="201.96848"
       sodipodi:cx="306.85941"
       id="path33287"
       style="fill:#000000;fill-opacity:1;stroke:none"
       sodipodi:type="arc" />
    <path
       transform="matrix(0.81364065,0,0,1.409267,-99.617745,555.82295)"
       d="m 337.54535,201.96848 c 0,9.78457 -13.73857,17.71653 -30.68594,17.71653 -16.94738,0 -30.68594,-7.93196 -30.68594,-17.71653 0,-9.78458 13.73856,-17.71654 30.68594,-17.71654 16.94737,0 30.68594,7.93196 30.68594,17.71654 z"
       sodipodi:ry="17.716536"
       sodipodi:rx="30.68594"
       sodipodi:cy="201.96848"
       sodipodi:cx="306.85941"
       id="path33291"
       style="fill:#000000;fill-opacity:1;stroke:none"
       sodipodi:type="arc" />
    <path
       transform="matrix(0.81364065,0,0,1.409267,-124.69289,512.36942)"
       d="m 337.54535,201.96848 c 0,9.78457 -13.73857,17.71653 -30.68594,17.71653 -16.94738,0 -30.68594,-7.93196 -30.68594,-17.71653 0,-9.78458 13.73856,-17.71654 30.68594,-17.71654 16.94737,0 30.68594,7.93196 30.68594,17.71654 z"
       sodipodi:ry="17.716536"
       sodipodi:rx="30.68594"
       sodipodi:cy="201.96848"
       sodipodi:cx="306.85941"
       id="path33293"
       style="fill:#000000;fill-opacity:1;stroke:none"
       sodipodi:type="arc" />
    <path
       transform="matrix(0.81364065,0,0,1.409267,-99.617745,642.76735)"
       d="m 337.54535,201.96848 c 0,9.78457 -13.73857,17.71653 -30.68594,17.71653 -16.94738,0 -30.68594,-7.93196 -30.68594,-17.71653 0,-9.78458 13.73856,-17.71654 30.68594,-17.71654 16.94737,0 30.68594,7.93196 30.68594,17.71654 z"
       sodipodi:ry="17.716536"
       sodipodi:rx="30.68594"
       sodipodi:cy="201.96848"
       sodipodi:cx="306.85941"
       id="path33297"
       style="fill:#000000;fill-opacity:1;stroke:none"
       sodipodi:type="arc" />
    <path
       transform="matrix(0.81364065,0,0,1.409267,-124.69289,599.31382)"
       d="m 337.54535,201.96848 c 0,9.78457 -13.73857,17.71653 -30.68594,17.71653 -16.94738,0 -30.68594,-7.93196 -30.68594,-17.71653 0,-9.78458 13.73856,-17.71654 30.68594,-17.71654 16.94737,0 30.68594,7.93196 30.68594,17.71654 z"
       sodipodi:ry="17.716536"
       sodipodi:rx="30.68594"
       sodipodi:cy="201.96848"
       sodipodi:cx="306.85941"
       id="path33299"
       style="fill:#000000;fill-opacity:1;stroke:none"
       sodipodi:type="arc" />
    <path
       transform="matrix(0.81364065,0,0,1.409267,-49.611214,208.04536)"
       d="m 337.54535,201.96848 c 0,9.78457 -13.73857,17.71653 -30.68594,17.71653 -16.94738,0 -30.68594,-7.93196 -30.68594,-17.71653 0,-9.78458 13.73856,-17.71654 30.68594,-17.71654 16.94737,0 30.68594,7.93196 30.68594,17.71654 z"
       sodipodi:ry="17.716536"
       sodipodi:rx="30.68594"
       sodipodi:cy="201.96848"
       sodipodi:cx="306.85941"
       id="path33357"
       style="fill:#000000;fill-opacity:1;stroke:none"
       sodipodi:type="arc" />
    <path
       transform="matrix(0.81364065,0,0,1.409267,-49.611214,294.98976)"
       d="m 337.54535,201.96848 c 0,9.78457 -13.73857,17.71653 -30.68594,17.71653 -16.94738,0 -30.68594,-7.93196 -30.68594,-17.71653 0,-9.78458 13.73856,-17.71654 30.68594,-17.71654 16.94737,0 30.68594,7.93196 30.68594,17.71654 z"
       sodipodi:ry="17.716536"
       sodipodi:rx="30.68594"
       sodipodi:cy="201.96848"
       sodipodi:cx="306.85941"
       id="path33363"
       style="fill:#000000;fill-opacity:1;stroke:none"
       sodipodi:type="arc" />
    <path
       transform="matrix(0.81364065,0,0,1.409267,-74.686357,251.53623)"
       d="m 337.54535,201.96848 c 0,9.78457 -13.73857,17.71653 -30.68594,17.71653 -16.94738,0 -30.68594,-7.93196 -30.68594,-17.71653 0,-9.78458 13.73856,-17.71654 30.68594,-17.71654 16.94737,0 30.68594,7.93196 30.68594,17.71654 z"
       sodipodi:ry="17.716536"
       sodipodi:rx="30.68594"
       sodipodi:cy="201.96848"
       sodipodi:cx="306.85941"
       id="path33365"
       style="fill:#000000;fill-opacity:1;stroke:none"
       sodipodi:type="arc" />
    <path
       transform="matrix(0.81364065,0,0,1.409267,-49.611214,381.93416)"
       d="m 337.54535,201.96848 c 0,9.78457 -13.73857,17.71653 -30.68594,17.71653 -16.94738,0 -30.68594,-7.93196 -30.68594,-17.71653 0,-9.78458 13.73856,-17.71654 30.68594,-17.71654 16.94737,0 30.68594,7.93196 30.68594,17.71654 z"
       sodipodi:ry="17.716536"
       sodipodi:rx="30.68594"
       sodipodi:cy="201.96848"
       sodipodi:cx="306.85941"
       id="path33369"
       style="fill:#000000;fill-opacity:1;stroke:none"
       sodipodi:type="arc" />
    <path
       transform="matrix(0.81364065,0,0,1.409267,-74.686357,338.48063)"
       d="m 337.54535,201.96848 c 0,9.78457 -13.73857,17.71653 -30.68594,17.71653 -16.94738,0 -30.68594,-7.93196 -30.68594,-17.71653 0,-9.78458 13.73856,-17.71654 30.68594,-17.71654 16.94737,0 30.68594,7.93196 30.68594,17.71654 z"
       sodipodi:ry="17.716536"
       sodipodi:rx="30.68594"
       sodipodi:cy="201.96848"
       sodipodi:cx="306.85941"
       id="path33371"
       style="fill:#000000;fill-opacity:1;stroke:none"
       sodipodi:type="arc" />
    <path
       transform="matrix(0.81364065,0,0,1.409267,-49.611214,468.87855)"
       d="m 337.54535,201.96848 c 0,9.78457 -13.73857,17.71653 -30.68594,17.71653 -16.94738,0 -30.68594,-7.93196 -30.68594,-17.71653 0,-9.78458 13.73856,-17.71654 30.68594,-17.71654 16.94737,0 30.68594,7.93196 30.68594,17.71654 z"
       sodipodi:ry="17.716536"
       sodipodi:rx="30.68594"
       sodipodi:cy="201.96848"
       sodipodi:cx="306.85941"
       id="path33375"
       style="fill:#000000;fill-opacity:1;stroke:none"
       sodipodi:type="arc" />
    <path
       transform="matrix(0.81364065,0,0,1.409267,-74.686357,425.42502)"
       d="m 337.54535,201.96848 c 0,9.78457 -13.73857,17.71653 -30.68594,17.71653 -16.94738,0 -30.68594,-7.93196 -30.68594,-17.71653 0,-9.78458 13.73856,-17.71654 30.68594,-17.71654 16.94737,0 30.68594,7.93196 30.68594,17.71654 z"
       sodipodi:ry="17.716536"
       sodipodi:rx="30.68594"
       sodipodi:cy="201.96848"
       sodipodi:cx="306.85941"
       id="path33377"
       style="fill:#000000;fill-opacity:1;stroke:none"
       sodipodi:type="arc" />
    <path
       transform="matrix(0.81364065,0,0,1.409267,-49.611214,555.82295)"
       d="m 337.54535,201.96848 c 0,9.78457 -13.73857,17.71653 -30.68594,17.71653 -16.94738,0 -30.68594,-7.93196 -30.68594,-17.71653 0,-9.78458 13.73856,-17.71654 30.68594,-17.71654 16.94737,0 30.68594,7.93196 30.68594,17.71654 z"
       sodipodi:ry="17.716536"
       sodipodi:rx="30.68594"
       sodipodi:cy="201.96848"
       sodipodi:cx="306.85941"
       id="path33381"
       style="fill:#000000;fill-opacity:1;stroke:none"
       sodipodi:type="arc" />
    <path
       transform="matrix(0.81364065,0,0,1.409267,-74.686357,512.36942)"
       d="m 337.54535,201.96848 c 0,9.78457 -13.73857,17.71653 -30.68594,17.71653 -16.94738,0 -30.68594,-7.93196 -30.68594,-17.71653 0,-9.78458 13.73856,-17.71654 30.68594,-17.71654 16.94737,0 30.68594,7.93196 30.68594,17.71654 z"
       sodipodi:ry="17.716536"
       sodipodi:rx="30.68594"
       sodipodi:cy="201.96848"
       sodipodi:cx="306.85941"
       id="path33383"
       style="fill:#000000;fill-opacity:1;stroke:none"
       sodipodi:type="arc" />
    <path
       transform="matrix(0.81364065,0,0,1.409267,-49.611214,642.76735)"
       d="m 337.54535,201.96848 c 0,9.78457 -13.73857,17.71653 -30.68594,17.71653 -16.94738,0 -30.68594,-7.93196 -30.68594,-17.71653 0,-9.78458 13.73856,-17.71654 30.68594,-17.71654 16.94737,0 30.68594,7.93196 30.68594,17.71654 z"
       sodipodi:ry="17.716536"
       sodipodi:rx="30.68594"
       sodipodi:cy="201.96848"
       sodipodi:cx="306.85941"
       id="path33387"
       style="fill:#000000;fill-opacity:1;stroke:none"
       sodipodi:type="arc" />
    <path
       transform="matrix(0.81364065,0,0,1.409267,-74.686357,599.31382)"
       d="m 337.54535,201.96848 c 0,9.78457 -13.73857,17.71653 -30.68594,17.71653 -16.94738,0 -30.68594,-7.93196 -30.68594,-17.71653 0,-9.78458 13.73856,-17.71654 30.68594,-17.71654 16.94737,0 30.68594,7.93196 30.68594,17.71654 z"
       sodipodi:ry="17.716536"
       sodipodi:rx="30.68594"
       sodipodi:cy="201.96848"
       sodipodi:cx="306.85941"
       id="path33389"
       style="fill:#000000;fill-opacity:1;stroke:none"
       sodipodi:type="arc" />
    <path
       transform="matrix(0.81364065,0,0,1.409267,0.39532383,208.04536)"
       d="m 337.54535,201.96848 c 0,9.78457 -13.73857,17.71653 -30.68594,17.71653 -16.94738,0 -30.68594,-7.93196 -30.68594,-17.71653 0,-9.78458 13.73856,-17.71654 30.68594,-17.71654 16.94737,0 30.68594,7.93196 30.68594,17.71654 z"
       sodipodi:ry="17.716536"
       sodipodi:rx="30.68594"
       sodipodi:cy="201.96848"
       sodipodi:cx="306.85941"
       id="path33447"
       style="fill:#000000;fill-opacity:1;stroke:none"
       sodipodi:type="arc" />
    <path
       transform="matrix(0.81364065,0,0,1.409267,0.39532383,294.98976)"
       d="m 337.54535,201.96848 c 0,9.78457 -13.73857,17.71653 -30.68594,17.71653 -16.94738,0 -30.68594,-7.93196 -30.68594,-17.71653 0,-9.78458 13.73856,-17.71654 30.68594,-17.71654 16.94737,0 30.68594,7.93196 30.68594,17.71654 z"
       sodipodi:ry="17.716536"
       sodipodi:rx="30.68594"
       sodipodi:cy="201.96848"
       sodipodi:cx="306.85941"
       id="path33453"
       style="fill:#000000;fill-opacity:1;stroke:none"
       sodipodi:type="arc" />
    <path
       transform="matrix(0.81364065,0,0,1.409267,-24.679818,251.53623)"
       d="m 337.54535,201.96848 c 0,9.78457 -13.73857,17.71653 -30.68594,17.71653 -16.94738,0 -30.68594,-7.93196 -30.68594,-17.71653 0,-9.78458 13.73856,-17.71654 30.68594,-17.71654 16.94737,0 30.68594,7.93196 30.68594,17.71654 z"
       sodipodi:ry="17.716536"
       sodipodi:rx="30.68594"
       sodipodi:cy="201.96848"
       sodipodi:cx="306.85941"
       id="path33455"
       style="fill:#000000;fill-opacity:1;stroke:none"
       sodipodi:type="arc" />
    <path
       transform="matrix(0.81364065,0,0,1.409267,0.39532383,381.93416)"
       d="m 337.54535,201.96848 c 0,9.78457 -13.73857,17.71653 -30.68594,17.71653 -16.94738,0 -30.68594,-7.93196 -30.68594,-17.71653 0,-9.78458 13.73856,-17.71654 30.68594,-17.71654 16.94737,0 30.68594,7.93196 30.68594,17.71654 z"
       sodipodi:ry="17.716536"
       sodipodi:rx="30.68594"
       sodipodi:cy="201.96848"
       sodipodi:cx="306.85941"
       id="path33459"
       style="fill:#000000;fill-opacity:1;stroke:none"
       sodipodi:type="arc" />
    <path
       transform="matrix(0.81364065,0,0,1.409267,-24.679818,338.48063)"
       d="m 337.54535,201.96848 c 0,9.78457 -13.73857,17.71653 -30.68594,17.71653 -16.94738,0 -30.68594,-7.93196 -30.68594,-17.71653 0,-9.78458 13.73856,-17.71654 30.68594,-17.71654 16.94737,0 30.68594,7.93196 30.68594,17.71654 z"
       sodipodi:ry="17.716536"
       sodipodi:rx="30.68594"
       sodipodi:cy="201.96848"
       sodipodi:cx="306.85941"
       id="path33461"
       style="fill:#000000;fill-opacity:1;stroke:none"
       sodipodi:type="arc" />
    <path
       transform="matrix(0.81364065,0,0,1.409267,0.39532383,468.87855)"
       d="m 337.54535,201.96848 c 0,9.78457 -13.73857,17.71653 -30.68594,17.71653 -16.94738,0 -30.68594,-7.93196 -30.68594,-17.71653 0,-9.78458 13.73856,-17.71654 30.68594,-17.71654 16.94737,0 30.68594,7.93196 30.68594,17.71654 z"
       sodipodi:ry="17.716536"
       sodipodi:rx="30.68594"
       sodipodi:cy="201.96848"
       sodipodi:cx="306.85941"
       id="path33465"
       style="fill:#000000;fill-opacity:1;stroke:none"
       sodipodi:type="arc" />
    <path
       transform="matrix(0.81364065,0,0,1.409267,-24.679818,425.42502)"
       d="m 337.54535,201.96848 c 0,9.78457 -13.73857,17.71653 -30.68594,17.71653 -16.94738,0 -30.68594,-7.93196 -30.68594,-17.71653 0,-9.78458 13.73856,-17.71654 30.68594,-17.71654 16.94737,0 30.68594,7.93196 30.68594,17.71654 z"
       sodipodi:ry="17.716536"
       sodipodi:rx="30.68594"
       sodipodi:cy="201.96848"
       sodipodi:cx="306.85941"
       id="path33467"
       style="fill:#000000;fill-opacity:1;stroke:none"
       sodipodi:type="arc" />
    <path
       transform="matrix(0.81364065,0,0,1.409267,0.39532383,555.82295)"
       d="m 337.54535,201.96848 c 0,9.78457 -13.73857,17.71653 -30.68594,17.71653 -16.94738,0 -30.68594,-7.93196 -30.68594,-17.71653 0,-9.78458 13.73856,-17.71654 30.68594,-17.71654 16.94737,0 30.68594,7.93196 30.68594,17.71654 z"
       sodipodi:ry="17.716536"
       sodipodi:rx="30.68594"
       sodipodi:cy="201.96848"
       sodipodi:cx="306.85941"
       id="path33471"
       style="fill:#000000;fill-opacity:1;stroke:none"
       sodipodi:type="arc" />
    <path
       transform="matrix(0.81364065,0,0,1.409267,-24.679818,512.36942)"
       d="m 337.54535,201.96848 c 0,9.78457 -13.73857,17.71653 -30.68594,17.71653 -16.94738,0 -30.68594,-7.93196 -30.68594,-17.71653 0,-9.78458 13.73856,-17.71654 30.68594,-17.71654 16.94737,0 30.68594,7.93196 30.68594,17.71654 z"
       sodipodi:ry="17.716536"
       sodipodi:rx="30.68594"
       sodipodi:cy="201.96848"
       sodipodi:cx="306.85941"
       id="path33473"
       style="fill:#000000;fill-opacity:1;stroke:none"
       sodipodi:type="arc" />
    <path
       transform="matrix(0.81364065,0,0,1.409267,0.39532383,642.76735)"
       d="m 337.54535,201.96848 c 0,9.78457 -13.73857,17.71653 -30.68594,17.71653 -16.94738,0 -30.68594,-7.93196 -30.68594,-17.71653 0,-9.78458 13.73856,-17.71654 30.68594,-17.71654 16.94737,0 30.68594,7.93196 30.68594,17.71654 z"
       sodipodi:ry="17.716536"
       sodipodi:rx="30.68594"
       sodipodi:cy="201.96848"
       sodipodi:cx="306.85941"
       id="path33477"
       style="fill:#000000;fill-opacity:1;stroke:none"
       sodipodi:type="arc" />
    <path
       transform="matrix(0.81364065,0,0,1.409267,-24.679818,599.31382)"
       d="m 337.54535,201.96848 c 0,9.78457 -13.73857,17.71653 -30.68594,17.71653 -16.94738,0 -30.68594,-7.93196 -30.68594,-17.71653 0,-9.78458 13.73856,-17.71654 30.68594,-17.71654 16.94737,0 30.68594,7.93196 30.68594,17.71654 z"
       sodipodi:ry="17.716536"
       sodipodi:rx="30.68594"
       sodipodi:cy="201.96848"
       sodipodi:cx="306.85941"
       id="path33479"
       style="fill:#000000;fill-opacity:1;stroke:none"
       sodipodi:type="arc" />
    <path
       transform="matrix(0.81364065,0,0,1.409267,50.401852,208.04536)"
       d="m 337.54535,201.96848 c 0,9.78457 -13.73857,17.71653 -30.68594,17.71653 -16.94738,0 -30.68594,-7.93196 -30.68594,-17.71653 0,-9.78458 13.73856,-17.71654 30.68594,-17.71654 16.94737,0 30.68594,7.93196 30.68594,17.71654 z"
       sodipodi:ry="17.716536"
       sodipodi:rx="30.68594"
       sodipodi:cy="201.96848"
       sodipodi:cx="306.85941"
       id="path33537"
       style="fill:#000000;fill-opacity:1;stroke:none"
       sodipodi:type="arc" />
    <path
       transform="matrix(0.81364065,0,0,1.409267,50.401852,294.98976)"
       d="m 337.54535,201.96848 c 0,9.78457 -13.73857,17.71653 -30.68594,17.71653 -16.94738,0 -30.68594,-7.93196 -30.68594,-17.71653 0,-9.78458 13.73856,-17.71654 30.68594,-17.71654 16.94737,0 30.68594,7.93196 30.68594,17.71654 z"
       sodipodi:ry="17.716536"
       sodipodi:rx="30.68594"
       sodipodi:cy="201.96848"
       sodipodi:cx="306.85941"
       id="path33543"
       style="fill:#000000;fill-opacity:1;stroke:none"
       sodipodi:type="arc" />
    <path
       transform="matrix(0.81364065,0,0,1.409267,25.326712,251.53623)"
       d="m 337.54535,201.96848 c 0,9.78457 -13.73857,17.71653 -30.68594,17.71653 -16.94738,0 -30.68594,-7.93196 -30.68594,-17.71653 0,-9.78458 13.73856,-17.71654 30.68594,-17.71654 16.94737,0 30.68594,7.93196 30.68594,17.71654 z"
       sodipodi:ry="17.716536"
       sodipodi:rx="30.68594"
       sodipodi:cy="201.96848"
       sodipodi:cx="306.85941"
       id="path33545"
       style="fill:#000000;fill-opacity:1;stroke:none"
       sodipodi:type="arc" />
    <path
       transform="matrix(0.81364065,0,0,1.409267,50.401852,381.93416)"
       d="m 337.54535,201.96848 c 0,9.78457 -13.73857,17.71653 -30.68594,17.71653 -16.94738,0 -30.68594,-7.93196 -30.68594,-17.71653 0,-9.78458 13.73856,-17.71654 30.68594,-17.71654 16.94737,0 30.68594,7.93196 30.68594,17.71654 z"
       sodipodi:ry="17.716536"
       sodipodi:rx="30.68594"
       sodipodi:cy="201.96848"
       sodipodi:cx="306.85941"
       id="path33549"
       style="fill:#000000;fill-opacity:1;stroke:none"
       sodipodi:type="arc" />
    <path
       transform="matrix(0.81364065,0,0,1.409267,25.326712,338.48063)"
       d="m 337.54535,201.96848 c 0,9.78457 -13.73857,17.71653 -30.68594,17.71653 -16.94738,0 -30.68594,-7.93196 -30.68594,-17.71653 0,-9.78458 13.73856,-17.71654 30.68594,-17.71654 16.94737,0 30.68594,7.93196 30.68594,17.71654 z"
       sodipodi:ry="17.716536"
       sodipodi:rx="30.68594"
       sodipodi:cy="201.96848"
       sodipodi:cx="306.85941"
       id="path33551"
       style="fill:#000000;fill-opacity:1;stroke:none"
       sodipodi:type="arc" />
    <path
       transform="matrix(0.81364065,0,0,1.409267,50.401852,468.87855)"
       d="m 337.54535,201.96848 c 0,9.78457 -13.73857,17.71653 -30.68594,17.71653 -16.94738,0 -30.68594,-7.93196 -30.68594,-17.71653 0,-9.78458 13.73856,-17.71654 30.68594,-17.71654 16.94737,0 30.68594,7.93196 30.68594,17.71654 z"
       sodipodi:ry="17.716536"
       sodipodi:rx="30.68594"
       sodipodi:cy="201.96848"
       sodipodi:cx="306.85941"
       id="path33555"
       style="fill:#000000;fill-opacity:1;stroke:none"
       sodipodi:type="arc" />
    <path
       transform="matrix(0.81364065,0,0,1.409267,50.401852,555.82295)"
       d="m 337.54535,201.96848 c 0,9.78457 -13.73857,17.71653 -30.68594,17.71653 -16.94738,0 -30.68594,-7.93196 -30.68594,-17.71653 0,-9.78458 13.73856,-17.71654 30.68594,-17.71654 16.94737,0 30.68594,7.93196 30.68594,17.71654 z"
       sodipodi:ry="17.716536"
       sodipodi:rx="30.68594"
       sodipodi:cy="201.96848"
       sodipodi:cx="306.85941"
       id="path33561"
       style="fill:#000000;fill-opacity:1;stroke:none"
       sodipodi:type="arc" />
    <path
       transform="matrix(0.81364065,0,0,1.409267,25.326712,512.36942)"
       d="m 337.54535,201.96848 c 0,9.78457 -13.73857,17.71653 -30.68594,17.71653 -16.94738,0 -30.68594,-7.93196 -30.68594,-17.71653 0,-9.78458 13.73856,-17.71654 30.68594,-17.71654 16.94737,0 30.68594,7.93196 30.68594,17.71654 z"
       sodipodi:ry="17.716536"
       sodipodi:rx="30.68594"
       sodipodi:cy="201.96848"
       sodipodi:cx="306.85941"
       id="path33563"
       style="fill:#000000;fill-opacity:1;stroke:none"
       sodipodi:type="arc" />
    <path
       transform="matrix(0.81364065,0,0,1.409267,50.401852,642.76735)"
       d="m 337.54535,201.96848 c 0,9.78457 -13.73857,17.71653 -30.68594,17.71653 -16.94738,0 -30.68594,-7.93196 -30.68594,-17.71653 0,-9.78458 13.73856,-17.71654 30.68594,-17.71654 16.94737,0 30.68594,7.93196 30.68594,17.71654 z"
       sodipodi:ry="17.716536"
       sodipodi:rx="30.68594"
       sodipodi:cy="201.96848"
       sodipodi:cx="306.85941"
       id="path33567"
       style="fill:#000000;fill-opacity:1;stroke:none"
       sodipodi:type="arc" />
    <path
       transform="matrix(0.81364065,0,0,1.409267,25.326712,599.31382)"
       d="m 337.54535,201.96848 c 0,9.78457 -13.73857,17.71653 -30.68594,17.71653 -16.94738,0 -30.68594,-7.93196 -30.68594,-17.71653 0,-9.78458 13.73856,-17.71654 30.68594,-17.71654 16.94737,0 30.68594,7.93196 30.68594,17.71654 z"
       sodipodi:ry="17.716536"
       sodipodi:rx="30.68594"
       sodipodi:cy="201.96848"
       sodipodi:cx="306.85941"
       id="path33569"
       style="fill:#000000;fill-opacity:1;stroke:none"
       sodipodi:type="arc" />
    <path
       transform="matrix(0.81364065,0,0,1.409267,100.40839,208.04536)"
       d="m 337.54535,201.96848 c 0,9.78457 -13.73857,17.71653 -30.68594,17.71653 -16.94738,0 -30.68594,-7.93196 -30.68594,-17.71653 0,-9.78458 13.73856,-17.71654 30.68594,-17.71654 16.94737,0 30.68594,7.93196 30.68594,17.71654 z"
       sodipodi:ry="17.716536"
       sodipodi:rx="30.68594"
       sodipodi:cy="201.96848"
       sodipodi:cx="306.85941"
       id="path33627"
       style="fill:#000000;fill-opacity:1;stroke:none"
       sodipodi:type="arc" />
    <path
       transform="matrix(0.81364065,0,0,1.409267,100.40839,294.98976)"
       d="m 337.54535,201.96848 c 0,9.78457 -13.73857,17.71653 -30.68594,17.71653 -16.94738,0 -30.68594,-7.93196 -30.68594,-17.71653 0,-9.78458 13.73856,-17.71654 30.68594,-17.71654 16.94737,0 30.68594,7.93196 30.68594,17.71654 z"
       sodipodi:ry="17.716536"
       sodipodi:rx="30.68594"
       sodipodi:cy="201.96848"
       sodipodi:cx="306.85941"
       id="path33633"
       style="fill:#000000;fill-opacity:1;stroke:none"
       sodipodi:type="arc" />
    <path
       transform="matrix(0.81364065,0,0,1.409267,75.333252,251.53623)"
       d="m 337.54535,201.96848 c 0,9.78457 -13.73857,17.71653 -30.68594,17.71653 -16.94738,0 -30.68594,-7.93196 -30.68594,-17.71653 0,-9.78458 13.73856,-17.71654 30.68594,-17.71654 16.94737,0 30.68594,7.93196 30.68594,17.71654 z"
       sodipodi:ry="17.716536"
       sodipodi:rx="30.68594"
       sodipodi:cy="201.96848"
       sodipodi:cx="306.85941"
       id="path33635"
       style="fill:#000000;fill-opacity:1;stroke:none"
       sodipodi:type="arc" />
    <path
       transform="matrix(0.81364065,0,0,1.409267,100.40839,381.93416)"
       d="m 337.54535,201.96848 c 0,9.78457 -13.73857,17.71653 -30.68594,17.71653 -16.94738,0 -30.68594,-7.93196 -30.68594,-17.71653 0,-9.78458 13.73856,-17.71654 30.68594,-17.71654 16.94737,0 30.68594,7.93196 30.68594,17.71654 z"
       sodipodi:ry="17.716536"
       sodipodi:rx="30.68594"
       sodipodi:cy="201.96848"
       sodipodi:cx="306.85941"
       id="path33639"
       style="fill:#000000;fill-opacity:1;stroke:none"
       sodipodi:type="arc" />
    <path
       transform="matrix(0.81364065,0,0,1.409267,75.333252,338.48063)"
       d="m 337.54535,201.96848 c 0,9.78457 -13.73857,17.71653 -30.68594,17.71653 -16.94738,0 -30.68594,-7.93196 -30.68594,-17.71653 0,-9.78458 13.73856,-17.71654 30.68594,-17.71654 16.94737,0 30.68594,7.93196 30.68594,17.71654 z"
       sodipodi:ry="17.716536"
       sodipodi:rx="30.68594"
       sodipodi:cy="201.96848"
       sodipodi:cx="306.85941"
       id="path33641"
       style="fill:#000000;fill-opacity:1;stroke:none"
       sodipodi:type="arc" />
    <path
       transform="matrix(0.81364065,0,0,1.409267,100.40839,468.87855)"
       d="m 337.54535,201.96848 c 0,9.78457 -13.73857,17.71653 -30.68594,17.71653 -16.94738,0 -30.68594,-7.93196 -30.68594,-17.71653 0,-9.78458 13.73856,-17.71654 30.68594,-17.71654 16.94737,0 30.68594,7.93196 30.68594,17.71654 z"
       sodipodi:ry="17.716536"
       sodipodi:rx="30.68594"
       sodipodi:cy="201.96848"
       sodipodi:cx="306.85941"
       id="path33645"
       style="fill:#000000;fill-opacity:1;stroke:none"
       sodipodi:type="arc" />
    <path
       transform="matrix(0.81364065,0,0,1.409267,75.333252,425.42502)"
       d="m 337.54535,201.96848 c 0,9.78457 -13.73857,17.71653 -30.68594,17.71653 -16.94738,0 -30.68594,-7.93196 -30.68594,-17.71653 0,-9.78458 13.73856,-17.71654 30.68594,-17.71654 16.94737,0 30.68594,7.93196 30.68594,17.71654 z"
       sodipodi:ry="17.716536"
       sodipodi:rx="30.68594"
       sodipodi:cy="201.96848"
       sodipodi:cx="306.85941"
       id="path33647"
       style="fill:#000000;fill-opacity:1;stroke:none"
       sodipodi:type="arc" />
    <path
       transform="matrix(0.81364065,0,0,1.409267,100.40839,555.82295)"
       d="m 337.54535,201.96848 c 0,9.78457 -13.73857,17.71653 -30.68594,17.71653 -16.94738,0 -30.68594,-7.93196 -30.68594,-17.71653 0,-9.78458 13.73856,-17.71654 30.68594,-17.71654 16.94737,0 30.68594,7.93196 30.68594,17.71654 z"
       sodipodi:ry="17.716536"
       sodipodi:rx="30.68594"
       sodipodi:cy="201.96848"
       sodipodi:cx="306.85941"
       id="path33651"
       style="fill:#000000;fill-opacity:1;stroke:none"
       sodipodi:type="arc" />
    <path
       transform="matrix(0.81364065,0,0,1.409267,75.333252,512.36942)"
       d="m 337.54535,201.96848 c 0,9.78457 -13.73857,17.71653 -30.68594,17.71653 -16.94738,0 -30.68594,-7.93196 -30.68594,-17.71653 0,-9.78458 13.73856,-17.71654 30.68594,-17.71654 16.94737,0 30.68594,7.93196 30.68594,17.71654 z"
       sodipodi:ry="17.716536"
       sodipodi:rx="30.68594"
       sodipodi:cy="201.96848"
       sodipodi:cx="306.85941"
       id="path33653"
       style="fill:#000000;fill-opacity:1;stroke:none"
       sodipodi:type="arc" />
    <path
       transform="matrix(0.81364065,0,0,1.409267,100.40839,642.76735)"
       d="m 337.54535,201.96848 c 0,9.78457 -13.73857,17.71653 -30.68594,17.71653 -16.94738,0 -30.68594,-7.93196 -30.68594,-17.71653 0,-9.78458 13.73856,-17.71654 30.68594,-17.71654 16.94737,0 30.68594,7.93196 30.68594,17.71654 z"
       sodipodi:ry="17.716536"
       sodipodi:rx="30.68594"
       sodipodi:cy="201.96848"
       sodipodi:cx="306.85941"
       id="path33657"
       style="fill:#000000;fill-opacity:1;stroke:none"
       sodipodi:type="arc" />
    <path
       transform="matrix(0.81364065,0,0,1.409267,75.333252,599.31382)"
       d="m 337.54535,201.96848 c 0,9.78457 -13.73857,17.71653 -30.68594,17.71653 -16.94738,0 -30.68594,-7.93196 -30.68594,-17.71653 0,-9.78458 13.73856,-17.71654 30.68594,-17.71654 16.94737,0 30.68594,7.93196 30.68594,17.71654 z"
       sodipodi:ry="17.716536"
       sodipodi:rx="30.68594"
       sodipodi:cy="201.96848"
       sodipodi:cx="306.85941"
       id="path33659"
       style="fill:#000000;fill-opacity:1;stroke:none"
       sodipodi:type="arc" />
    <path
       transform="matrix(0.81364065,0,0,1.409267,150.41493,208.04536)"
       d="m 337.54535,201.96848 c 0,9.78457 -13.73857,17.71653 -30.68594,17.71653 -16.94738,0 -30.68594,-7.93196 -30.68594,-17.71653 0,-9.78458 13.73856,-17.71654 30.68594,-17.71654 16.94737,0 30.68594,7.93196 30.68594,17.71654 z"
       sodipodi:ry="17.716536"
       sodipodi:rx="30.68594"
       sodipodi:cy="201.96848"
       sodipodi:cx="306.85941"
       id="path33717"
       style="fill:#000000;fill-opacity:1;stroke:none"
       sodipodi:type="arc" />
    <path
       transform="matrix(0.81364065,0,0,1.409267,150.41493,294.98976)"
       d="m 337.54535,201.96848 c 0,9.78457 -13.73857,17.71653 -30.68594,17.71653 -16.94738,0 -30.68594,-7.93196 -30.68594,-17.71653 0,-9.78458 13.73856,-17.71654 30.68594,-17.71654 16.94737,0 30.68594,7.93196 30.68594,17.71654 z"
       sodipodi:ry="17.716536"
       sodipodi:rx="30.68594"
       sodipodi:cy="201.96848"
       sodipodi:cx="306.85941"
       id="path33723"
       style="fill:#000000;fill-opacity:1;stroke:none"
       sodipodi:type="arc" />
    <path
       transform="matrix(0.81364065,0,0,1.409267,125.33979,251.53623)"
       d="m 337.54535,201.96848 c 0,9.78457 -13.73857,17.71653 -30.68594,17.71653 -16.94738,0 -30.68594,-7.93196 -30.68594,-17.71653 0,-9.78458 13.73856,-17.71654 30.68594,-17.71654 16.94737,0 30.68594,7.93196 30.68594,17.71654 z"
       sodipodi:ry="17.716536"
       sodipodi:rx="30.68594"
       sodipodi:cy="201.96848"
       sodipodi:cx="306.85941"
       id="path33725"
       style="fill:#000000;fill-opacity:1;stroke:none"
       sodipodi:type="arc" />
    <path
       transform="matrix(0.81364065,0,0,1.409267,150.41493,381.93416)"
       d="m 337.54535,201.96848 c 0,9.78457 -13.73857,17.71653 -30.68594,17.71653 -16.94738,0 -30.68594,-7.93196 -30.68594,-17.71653 0,-9.78458 13.73856,-17.71654 30.68594,-17.71654 16.94737,0 30.68594,7.93196 30.68594,17.71654 z"
       sodipodi:ry="17.716536"
       sodipodi:rx="30.68594"
       sodipodi:cy="201.96848"
       sodipodi:cx="306.85941"
       id="path33729"
       style="fill:#000000;fill-opacity:1;stroke:none"
       sodipodi:type="arc" />
    <path
       transform="matrix(0.81364065,0,0,1.409267,125.33979,338.48063)"
       d="m 337.54535,201.96848 c 0,9.78457 -13.73857,17.71653 -30.68594,17.71653 -16.94738,0 -30.68594,-7.93196 -30.68594,-17.71653 0,-9.78458 13.73856,-17.71654 30.68594,-17.71654 16.94737,0 30.68594,7.93196 30.68594,17.71654 z"
       sodipodi:ry="17.716536"
       sodipodi:rx="30.68594"
       sodipodi:cy="201.96848"
       sodipodi:cx="306.85941"
       id="path33731"
       style="fill:#000000;fill-opacity:1;stroke:none"
       sodipodi:type="arc" />
    <path
       transform="matrix(0.81364065,0,0,1.409267,150.41493,468.87855)"
       d="m 337.54535,201.96848 c 0,9.78457 -13.73857,17.71653 -30.68594,17.71653 -16.94738,0 -30.68594,-7.93196 -30.68594,-17.71653 0,-9.78458 13.73856,-17.71654 30.68594,-17.71654 16.94737,0 30.68594,7.93196 30.68594,17.71654 z"
       sodipodi:ry="17.716536"
       sodipodi:rx="30.68594"
       sodipodi:cy="201.96848"
       sodipodi:cx="306.85941"
       id="path33735"
       style="fill:#000000;fill-opacity:1;stroke:none"
       sodipodi:type="arc" />
    <path
       transform="matrix(0.81364065,0,0,1.409267,125.33979,425.42502)"
       d="m 337.54535,201.96848 c 0,9.78457 -13.73857,17.71653 -30.68594,17.71653 -16.94738,0 -30.68594,-7.93196 -30.68594,-17.71653 0,-9.78458 13.73856,-17.71654 30.68594,-17.71654 16.94737,0 30.68594,7.93196 30.68594,17.71654 z"
       sodipodi:ry="17.716536"
       sodipodi:rx="30.68594"
       sodipodi:cy="201.96848"
       sodipodi:cx="306.85941"
       id="path33737"
       style="fill:#000000;fill-opacity:1;stroke:none"
       sodipodi:type="arc" />
    <path
       transform="matrix(0.81364065,0,0,1.409267,150.41493,555.82295)"
       d="m 337.54535,201.96848 c 0,9.78457 -13.73857,17.71653 -30.68594,17.71653 -16.94738,0 -30.68594,-7.93196 -30.68594,-17.71653 0,-9.78458 13.73856,-17.71654 30.68594,-17.71654 16.94737,0 30.68594,7.93196 30.68594,17.71654 z"
       sodipodi:ry="17.716536"
       sodipodi:rx="30.68594"
       sodipodi:cy="201.96848"
       sodipodi:cx="306.85941"
       id="path33741"
       style="fill:#000000;fill-opacity:1;stroke:none"
       sodipodi:type="arc" />
    <path
       transform="matrix(0.81364065,0,0,1.409267,125.33979,512.36942)"
       d="m 337.54535,201.96848 c 0,9.78457 -13.73857,17.71653 -30.68594,17.71653 -16.94738,0 -30.68594,-7.93196 -30.68594,-17.71653 0,-9.78458 13.73856,-17.71654 30.68594,-17.71654 16.94737,0 30.68594,7.93196 30.68594,17.71654 z"
       sodipodi:ry="17.716536"
       sodipodi:rx="30.68594"
       sodipodi:cy="201.96848"
       sodipodi:cx="306.85941"
       id="path33743"
       style="fill:#000000;fill-opacity:1;stroke:none"
       sodipodi:type="arc" />
    <path
       transform="matrix(0.81364065,0,0,1.409267,150.41493,642.76735)"
       d="m 337.54535,201.96848 c 0,9.78457 -13.73857,17.71653 -30.68594,17.71653 -16.94738,0 -30.68594,-7.93196 -30.68594,-17.71653 0,-9.78458 13.73856,-17.71654 30.68594,-17.71654 16.94737,0 30.68594,7.93196 30.68594,17.71654 z"
       sodipodi:ry="17.716536"
       sodipodi:rx="30.68594"
       sodipodi:cy="201.96848"
       sodipodi:cx="306.85941"
       id="path33747"
       style="fill:#000000;fill-opacity:1;stroke:none"
       sodipodi:type="arc" />
    <path
       transform="matrix(0.81364065,0,0,1.409267,125.33979,599.31382)"
       d="m 337.54535,201.96848 c 0,9.78457 -13.73857,17.71653 -30.68594,17.71653 -16.94738,0 -30.68594,-7.93196 -30.68594,-17.71653 0,-9.78458 13.73856,-17.71654 30.68594,-17.71654 16.94737,0 30.68594,7.93196 30.68594,17.71654 z"
       sodipodi:ry="17.716536"
       sodipodi:rx="30.68594"
       sodipodi:cy="201.96848"
       sodipodi:cx="306.85941"
       id="path33749"
       style="fill:#000000;fill-opacity:1;stroke:none"
       sodipodi:type="arc" />
    <path
       transform="matrix(0.81364065,0,0,1.409267,200.42146,294.98976)"
       d="m 337.54535,201.96848 c 0,9.78457 -13.73857,17.71653 -30.68594,17.71653 -16.94738,0 -30.68594,-7.93196 -30.68594,-17.71653 0,-9.78458 13.73856,-17.71654 30.68594,-17.71654 16.94737,0 30.68594,7.93196 30.68594,17.71654 z"
       sodipodi:ry="17.716536"
       sodipodi:rx="30.68594"
       sodipodi:cy="201.96848"
       sodipodi:cx="306.85941"
       id="path33813"
       style="fill:#000000;fill-opacity:1;stroke:none"
       sodipodi:type="arc" />
    <path
       transform="matrix(0.81364065,0,0,1.409267,175.34632,251.53623)"
       d="m 337.54535,201.96848 c 0,9.78457 -13.73857,17.71653 -30.68594,17.71653 -16.94738,0 -30.68594,-7.93196 -30.68594,-17.71653 0,-9.78458 13.73856,-17.71654 30.68594,-17.71654 16.94737,0 30.68594,7.93196 30.68594,17.71654 z"
       sodipodi:ry="17.716536"
       sodipodi:rx="30.68594"
       sodipodi:cy="201.96848"
       sodipodi:cx="306.85941"
       id="path33815"
       style="fill:#000000;fill-opacity:1;stroke:none"
       sodipodi:type="arc" />
    <path
       transform="matrix(0.81364065,0,0,1.409267,200.42146,381.93416)"
       d="m 337.54535,201.96848 c 0,9.78457 -13.73857,17.71653 -30.68594,17.71653 -16.94738,0 -30.68594,-7.93196 -30.68594,-17.71653 0,-9.78458 13.73856,-17.71654 30.68594,-17.71654 16.94737,0 30.68594,7.93196 30.68594,17.71654 z"
       sodipodi:ry="17.716536"
       sodipodi:rx="30.68594"
       sodipodi:cy="201.96848"
       sodipodi:cx="306.85941"
       id="path33819"
       style="fill:#000000;fill-opacity:1;stroke:none"
       sodipodi:type="arc" />
    <path
       transform="matrix(0.81364065,0,0,1.409267,175.34632,338.48063)"
       d="m 337.54535,201.96848 c 0,9.78457 -13.73857,17.71653 -30.68594,17.71653 -16.94738,0 -30.68594,-7.93196 -30.68594,-17.71653 0,-9.78458 13.73856,-17.71654 30.68594,-17.71654 16.94737,0 30.68594,7.93196 30.68594,17.71654 z"
       sodipodi:ry="17.716536"
       sodipodi:rx="30.68594"
       sodipodi:cy="201.96848"
       sodipodi:cx="306.85941"
       id="path33821"
       style="fill:#000000;fill-opacity:1;stroke:none"
       sodipodi:type="arc" />
    <path
       transform="matrix(0.81364065,0,0,1.409267,200.42146,468.87855)"
       d="m 337.54535,201.96848 c 0,9.78457 -13.73857,17.71653 -30.68594,17.71653 -16.94738,0 -30.68594,-7.93196 -30.68594,-17.71653 0,-9.78458 13.73856,-17.71654 30.68594,-17.71654 16.94737,0 30.68594,7.93196 30.68594,17.71654 z"
       sodipodi:ry="17.716536"
       sodipodi:rx="30.68594"
       sodipodi:cy="201.96848"
       sodipodi:cx="306.85941"
       id="path33825"
       style="fill:#000000;fill-opacity:1;stroke:none"
       sodipodi:type="arc" />
    <path
       transform="matrix(0.81364065,0,0,1.409267,175.34632,425.42502)"
       d="m 337.54535,201.96848 c 0,9.78457 -13.73857,17.71653 -30.68594,17.71653 -16.94738,0 -30.68594,-7.93196 -30.68594,-17.71653 0,-9.78458 13.73856,-17.71654 30.68594,-17.71654 16.94737,0 30.68594,7.93196 30.68594,17.71654 z"
       sodipodi:ry="17.716536"
       sodipodi:rx="30.68594"
       sodipodi:cy="201.96848"
       sodipodi:cx="306.85941"
       id="path33827"
       style="fill:#000000;fill-opacity:1;stroke:none"
       sodipodi:type="arc" />
    <path
       transform="matrix(0.81364065,0,0,1.409267,200.42146,555.82295)"
       d="m 337.54535,201.96848 c 0,9.78457 -13.73857,17.71653 -30.68594,17.71653 -16.94738,0 -30.68594,-7.93196 -30.68594,-17.71653 0,-9.78458 13.73856,-17.71654 30.68594,-17.71654 16.94737,0 30.68594,7.93196 30.68594,17.71654 z"
       sodipodi:ry="17.716536"
       sodipodi:rx="30.68594"
       sodipodi:cy="201.96848"
       sodipodi:cx="306.85941"
       id="path33831"
       style="fill:#000000;fill-opacity:1;stroke:none"
       sodipodi:type="arc" />
    <path
       transform="matrix(0.81364065,0,0,1.409267,175.34632,512.36942)"
       d="m 337.54535,201.96848 c 0,9.78457 -13.73857,17.71653 -30.68594,17.71653 -16.94738,0 -30.68594,-7.93196 -30.68594,-17.71653 0,-9.78458 13.73856,-17.71654 30.68594,-17.71654 16.94737,0 30.68594,7.93196 30.68594,17.71654 z"
       sodipodi:ry="17.716536"
       sodipodi:rx="30.68594"
       sodipodi:cy="201.96848"
       sodipodi:cx="306.85941"
       id="path33833"
       style="fill:#000000;fill-opacity:1;stroke:none"
       sodipodi:type="arc" />
    <path
       transform="matrix(0.81364065,0,0,1.409267,175.34632,599.31382)"
       d="m 337.54535,201.96848 c 0,9.78457 -13.73857,17.71653 -30.68594,17.71653 -16.94738,0 -30.68594,-7.93196 -30.68594,-17.71653 0,-9.78458 13.73856,-17.71654 30.68594,-17.71654 16.94737,0 30.68594,7.93196 30.68594,17.71654 z"
       sodipodi:ry="17.716536"
       sodipodi:rx="30.68594"
       sodipodi:cy="201.96848"
       sodipodi:cx="306.85941"
       id="path33839"
       style="fill:#000000;fill-opacity:1;stroke:none"
       sodipodi:type="arc" />
    <path
       transform="matrix(0.81364065,0,0,1.409267,250.428,381.93416)"
       d="m 337.54535,201.96848 c 0,9.78457 -13.73857,17.71653 -30.68594,17.71653 -16.94738,0 -30.68594,-7.93196 -30.68594,-17.71653 0,-9.78458 13.73856,-17.71654 30.68594,-17.71654 16.94737,0 30.68594,7.93196 30.68594,17.71654 z"
       sodipodi:ry="17.716536"
       sodipodi:rx="30.68594"
       sodipodi:cy="201.96848"
       sodipodi:cx="306.85941"
       id="path33909"
       style="fill:#000000;fill-opacity:1;stroke:none"
       sodipodi:type="arc" />
    <path
       transform="matrix(0.81364065,0,0,1.409267,225.35286,338.48063)"
       d="m 337.54535,201.96848 c 0,9.78457 -13.73857,17.71653 -30.68594,17.71653 -16.94738,0 -30.68594,-7.93196 -30.68594,-17.71653 0,-9.78458 13.73856,-17.71654 30.68594,-17.71654 16.94737,0 30.68594,7.93196 30.68594,17.71654 z"
       sodipodi:ry="17.716536"
       sodipodi:rx="30.68594"
       sodipodi:cy="201.96848"
       sodipodi:cx="306.85941"
       id="path33911"
       style="fill:#000000;fill-opacity:1;stroke:none"
       sodipodi:type="arc" />
    <path
       transform="matrix(0.81364065,0,0,1.409267,250.428,468.87855)"
       d="m 337.54535,201.96848 c 0,9.78457 -13.73857,17.71653 -30.68594,17.71653 -16.94738,0 -30.68594,-7.93196 -30.68594,-17.71653 0,-9.78458 13.73856,-17.71654 30.68594,-17.71654 16.94737,0 30.68594,7.93196 30.68594,17.71654 z"
       sodipodi:ry="17.716536"
       sodipodi:rx="30.68594"
       sodipodi:cy="201.96848"
       sodipodi:cx="306.85941"
       id="path33915"
       style="fill:#000000;fill-opacity:1;stroke:none"
       sodipodi:type="arc" />
    <path
       transform="matrix(0.81364065,0,0,1.409267,225.35286,425.42502)"
       d="m 337.54535,201.96848 c 0,9.78457 -13.73857,17.71653 -30.68594,17.71653 -16.94738,0 -30.68594,-7.93196 -30.68594,-17.71653 0,-9.78458 13.73856,-17.71654 30.68594,-17.71654 16.94737,0 30.68594,7.93196 30.68594,17.71654 z"
       sodipodi:ry="17.716536"
       sodipodi:rx="30.68594"
       sodipodi:cy="201.96848"
       sodipodi:cx="306.85941"
       id="path33917"
       style="fill:#000000;fill-opacity:1;stroke:none"
       sodipodi:type="arc" />
    <path
       transform="matrix(0.81364065,0,0,1.409267,225.35286,512.36942)"
       d="m 337.54535,201.96848 c 0,9.78457 -13.73857,17.71653 -30.68594,17.71653 -16.94738,0 -30.68594,-7.93196 -30.68594,-17.71653 0,-9.78458 13.73856,-17.71654 30.68594,-17.71654 16.94737,0 30.68594,7.93196 30.68594,17.71654 z"
       sodipodi:ry="17.716536"
       sodipodi:rx="30.68594"
       sodipodi:cy="201.96848"
       sodipodi:cx="306.85941"
       id="path33923"
       style="fill:#000000;fill-opacity:1;stroke:none"
       sodipodi:type="arc" />
    <path
       transform="matrix(0.81364065,0,0,1.409267,275.35939,425.42502)"
       d="m 337.54535,201.96848 c 0,9.78457 -13.73857,17.71653 -30.68594,17.71653 -16.94738,0 -30.68594,-7.93196 -30.68594,-17.71653 0,-9.78458 13.73856,-17.71654 30.68594,-17.71654 16.94737,0 30.68594,7.93196 30.68594,17.71654 z"
       sodipodi:ry="17.716536"
       sodipodi:rx="30.68594"
       sodipodi:cy="201.96848"
       sodipodi:cx="306.85941"
       id="path34007"
       style="fill:#000000;fill-opacity:1;stroke:none"
       sodipodi:type="arc" />
    <rect
       style="fill:#000000;fill-opacity:1;stroke:none"
       id="rect4000"
       width="100"
       height="100"
       x="0"
       y="952.36218" />
    <text
       xml:space="preserve"
       style="font-size:40px;font-style:normal;font-variant:normal;font-weight:normal;font-stretch:normal;line-height:125%;letter-spacing:0px;word-spacing:0px;fill:#000000;fill-opacity:1;stroke:none;font-family:Monospace;-inkscape-font-specification:Monospace"
       x="17.301758"
       y="1006.8153"
       id="text3997-0"
       sodipodi:linespacing="125%"><tspan
         sodipodi:role="line"
         x="17.301758"
         y="1006.8153"
         id="tspan4003-4"
         style="font-size:12px;fill:#000000;fill-opacity:1">1 x 1 m^2</tspan></text>
    <text
       xml:space="preserve"
       style="font-size:40px;font-style:normal;font-variant:normal;font-weight:normal;font-stretch:normal;line-height:125%;letter-spacing:0px;word-spacing:0px;fill:#000000;fill-opacity:1;stroke:none;font-family:Monospace;-inkscape-font-specification:Monospace"
       x="110"
       y="1031.5438"
       id="text3997"
       sodipodi:linespacing="125%"><tspan
         sodipodi:role="line"
         id="tspan3999"
         x="110"
         y="1031.5438"
         style="font-size:12px;fill:#000000;fill-opacity:1">CAT France</tspan><tspan
         sodipodi:role="line"
         x="110"
         y="1046.5438"
         style="font-size:12px;fill:#000000;fill-opacity:1"
         id="tspan3862">facets: 50cm diameter</tspan></text>
    <text
       xml:space="preserve"
       style="font-size:40px;font-style:normal;font-variant:normal;font-weight:normal;font-stretch:normal;line-height:125%;letter-spacing:0px;word-spacing:0px;fill:#000000;fill-opacity:1;stroke:none;font-family:Monospace;-inkscape-font-specification:Monospace"
       x="13.558594"
       y="1007.3622"
       id="text3997-7"
       sodipodi:linespacing="125%"><tspan
         sodipodi:role="line"
         x="13.558594"
         y="1007.3622"
         id="tspan4003-2"
         style="font-size:12px;fill:#ffffff;fill-opacity:1">1 x 1 m^2</tspan></text>
  </g>
</svg>
