<?xml version="1.0" encoding="UTF-8" standalone="no"?>
<!-- Created with Inkscape (http://www.inkscape.org/) -->

<svg
   xmlns:dc="http://purl.org/dc/elements/1.1/"
   xmlns:cc="http://creativecommons.org/ns#"
   xmlns:rdf="http://www.w3.org/1999/02/22-rdf-syntax-ns#"
   xmlns:svg="http://www.w3.org/2000/svg"
   xmlns="http://www.w3.org/2000/svg"
   xmlns:sodipodi="http://sodipodi.sourceforge.net/DTD/sodipodi-0.dtd"
   xmlns:inkscape="http://www.inkscape.org/namespaces/inkscape"
   width="368.35938"
   height="480.39764"
   id="svg2"
   version="1.1"
   inkscape:version="0.48.4 r9939"
   sodipodi:docname="New document 1">
  <defs
     id="defs4" />
  <sodipodi:namedview
     id="base"
     pagecolor="#ffffff"
     bordercolor="#666666"
     borderopacity="1.0"
     inkscape:pageopacity="0.0"
     inkscape:pageshadow="2"
     inkscape:zoom="1.4"
     inkscape:cx="213.48679"
     inkscape:cy="222.7744"
     inkscape:document-units="px"
     inkscape:current-layer="layer1"
     showgrid="true"
     inkscape:snap-bbox="true"
     inkscape:snap-bbox-midpoints="true"
     inkscape:snap-bbox-edge-midpoints="true"
     inkscape:bbox-paths="true"
     inkscape:snap-object-midpoints="true"
     fit-margin-top="0"
     fit-margin-left="0"
     fit-margin-right="0"
     fit-margin-bottom="0"
     inkscape:window-width="960"
     inkscape:window-height="1028"
     inkscape:window-x="960"
     inkscape:window-y="24"
     inkscape:window-maximized="0">
    <inkscape:grid
       type="axonomgrid"
       id="grid2985"
       units="cm"
       empspacing="5"
       visible="true"
       enabled="true"
       snapvisiblegridlinesonly="true"
       spacingy="1cm"
       originx="6.142233e-08cm"
       originy="0cm" />
  </sodipodi:namedview>
  <metadata
     id="metadata7">
    <rdf:RDF>
      <cc:Work
         rdf:about="">
        <dc:format>image/svg+xml</dc:format>
        <dc:type
           rdf:resource="http://purl.org/dc/dcmitype/StillImage" />
        <dc:title></dc:title>
      </cc:Work>
    </rdf:RDF>
  </metadata>
  <g
     inkscape:label="Layer 1"
     inkscape:groupmode="layer"
     id="layer1"
     transform="translate(2.1763818e-6,-571.96455)">
    <g
       id="g3758"
       transform="translate(-122.6797,507.04528)">
      <path
         transform="matrix(0.66805843,0,0,1.1571111,61.179693,-9.3318886)"
         d="m 184.11564,228.54329 c 0,14.67686 -20.60785,26.5748 -46.02891,26.5748 -25.42106,0 -46.028907,-11.89794 -46.028907,-26.5748 0,-14.67686 20.607847,-26.5748 46.028907,-26.5748 25.42106,0 46.02891,11.89794 46.02891,26.5748 z"
         sodipodi:ry="26.574802"
         sodipodi:rx="46.028908"
         sodipodi:cy="228.54329"
         sodipodi:cx="138.08673"
         id="path2987"
         style="fill:#000000;fill-opacity:1;stroke:none"
         sodipodi:type="arc" />
      <path
         transform="matrix(0.66805843,0,0,1.1571111,122.55157,-9.3318886)"
         d="m 184.11564,228.54329 c 0,14.67686 -20.60785,26.5748 -46.02891,26.5748 -25.42106,0 -46.028907,-11.89794 -46.028907,-26.5748 0,-14.67686 20.607847,-26.5748 46.028907,-26.5748 25.42106,0 46.02891,11.89794 46.02891,26.5748 z"
         sodipodi:ry="26.574802"
         sodipodi:rx="46.028908"
         sodipodi:cy="228.54329"
         sodipodi:cx="138.08673"
         id="path2987-8"
         style="fill:#000000;fill-opacity:1;stroke:none"
         sodipodi:type="arc" />
      <path
         transform="matrix(0.66805843,0,0,1.1571111,183.92345,-9.3318886)"
         d="m 184.11564,228.54329 c 0,14.67686 -20.60785,26.5748 -46.02891,26.5748 -25.42106,0 -46.028907,-11.89794 -46.028907,-26.5748 0,-14.67686 20.607847,-26.5748 46.028907,-26.5748 25.42106,0 46.02891,11.89794 46.02891,26.5748 z"
         sodipodi:ry="26.574802"
         sodipodi:rx="46.028908"
         sodipodi:cy="228.54329"
         sodipodi:cx="138.08673"
         id="path2987-8-5"
         style="fill:#000000;fill-opacity:1;stroke:none"
         sodipodi:type="arc" />
      <path
         transform="matrix(0.66805843,0,0,1.1571111,245.29533,-9.3318886)"
         d="m 184.11564,228.54329 c 0,14.67686 -20.60785,26.5748 -46.02891,26.5748 -25.42106,0 -46.028907,-11.89794 -46.028907,-26.5748 0,-14.67686 20.607847,-26.5748 46.028907,-26.5748 25.42106,0 46.02891,11.89794 46.02891,26.5748 z"
         sodipodi:ry="26.574802"
         sodipodi:rx="46.028908"
         sodipodi:cy="228.54329"
         sodipodi:cx="138.08673"
         id="path2987-2"
         style="fill:#000000;fill-opacity:1;stroke:none"
         sodipodi:type="arc" />
      <path
         transform="matrix(0.66805843,0,0,1.1571111,306.66721,-9.3318886)"
         d="m 184.11564,228.54329 c 0,14.67686 -20.60785,26.5748 -46.02891,26.5748 -25.42106,0 -46.028907,-11.89794 -46.028907,-26.5748 0,-14.67686 20.607847,-26.5748 46.028907,-26.5748 25.42106,0 46.02891,11.89794 46.02891,26.5748 z"
         sodipodi:ry="26.574802"
         sodipodi:rx="46.028908"
         sodipodi:cy="228.54329"
         sodipodi:cx="138.08673"
         id="path2987-8-58"
         style="fill:#000000;fill-opacity:1;stroke:none"
         sodipodi:type="arc" />
      <path
         transform="matrix(0.66805843,0,0,1.1571111,368.03908,-9.3318886)"
         d="m 184.11564,228.54329 c 0,14.67686 -20.60785,26.5748 -46.02891,26.5748 -25.42106,0 -46.028907,-11.89794 -46.028907,-26.5748 0,-14.67686 20.607847,-26.5748 46.028907,-26.5748 25.42106,0 46.02891,11.89794 46.02891,26.5748 z"
         sodipodi:ry="26.574802"
         sodipodi:rx="46.028908"
         sodipodi:cy="228.54329"
         sodipodi:cx="138.08673"
         id="path2987-8-5-8"
         style="fill:#000000;fill-opacity:1;stroke:none"
         sodipodi:type="arc" />
      <path
         transform="matrix(0.66805843,0,0,1.1571111,91.865626,43.817718)"
         d="m 184.11564,228.54329 c 0,14.67686 -20.60785,26.5748 -46.02891,26.5748 -25.42106,0 -46.028907,-11.89794 -46.028907,-26.5748 0,-14.67686 20.607847,-26.5748 46.028907,-26.5748 25.42106,0 46.02891,11.89794 46.02891,26.5748 z"
         sodipodi:ry="26.574802"
         sodipodi:rx="46.028908"
         sodipodi:cy="228.54329"
         sodipodi:cx="138.08673"
         id="path2987-8-53"
         style="fill:#000000;fill-opacity:1;stroke:none"
         sodipodi:type="arc" />
      <path
         transform="matrix(0.66805843,0,0,1.1571111,153.23751,43.817718)"
         d="m 184.11564,228.54329 c 0,14.67686 -20.60785,26.5748 -46.02891,26.5748 -25.42106,0 -46.028907,-11.89794 -46.028907,-26.5748 0,-14.67686 20.607847,-26.5748 46.028907,-26.5748 25.42106,0 46.02891,11.89794 46.02891,26.5748 z"
         sodipodi:ry="26.574802"
         sodipodi:rx="46.028908"
         sodipodi:cy="228.54329"
         sodipodi:cx="138.08673"
         id="path2987-8-5-0"
         style="fill:#000000;fill-opacity:1;stroke:none"
         sodipodi:type="arc" />
      <path
         transform="matrix(0.66805843,0,0,1.1571111,214.60939,43.817718)"
         d="m 184.11564,228.54329 c 0,14.67686 -20.60785,26.5748 -46.02891,26.5748 -25.42106,0 -46.028907,-11.89794 -46.028907,-26.5748 0,-14.67686 20.607847,-26.5748 46.028907,-26.5748 25.42106,0 46.02891,11.89794 46.02891,26.5748 z"
         sodipodi:ry="26.574802"
         sodipodi:rx="46.028908"
         sodipodi:cy="228.54329"
         sodipodi:cx="138.08673"
         id="path2987-2-3"
         style="fill:#000000;fill-opacity:1;stroke:none"
         sodipodi:type="arc" />
      <path
         transform="matrix(0.66805843,0,0,1.1571111,275.98127,43.817718)"
         d="m 184.11564,228.54329 c 0,14.67686 -20.60785,26.5748 -46.02891,26.5748 -25.42106,0 -46.028907,-11.89794 -46.028907,-26.5748 0,-14.67686 20.607847,-26.5748 46.028907,-26.5748 25.42106,0 46.02891,11.89794 46.02891,26.5748 z"
         sodipodi:ry="26.574802"
         sodipodi:rx="46.028908"
         sodipodi:cy="228.54329"
         sodipodi:cx="138.08673"
         id="path2987-8-58-7"
         style="fill:#000000;fill-opacity:1;stroke:none"
         sodipodi:type="arc" />
      <path
         transform="matrix(0.66805843,0,0,1.1571111,337.35314,43.817718)"
         d="m 184.11564,228.54329 c 0,14.67686 -20.60785,26.5748 -46.02891,26.5748 -25.42106,0 -46.028907,-11.89794 -46.028907,-26.5748 0,-14.67686 20.607847,-26.5748 46.028907,-26.5748 25.42106,0 46.02891,11.89794 46.02891,26.5748 z"
         sodipodi:ry="26.574802"
         sodipodi:rx="46.028908"
         sodipodi:cy="228.54329"
         sodipodi:cx="138.08673"
         id="path2987-8-5-8-5"
         style="fill:#000000;fill-opacity:1;stroke:none"
         sodipodi:type="arc" />
      <path
         transform="matrix(0.66805843,0,0,1.1571111,91.865622,-62.481495)"
         d="m 184.11564,228.54329 c 0,14.67686 -20.60785,26.5748 -46.02891,26.5748 -25.42106,0 -46.028907,-11.89794 -46.028907,-26.5748 0,-14.67686 20.607847,-26.5748 46.028907,-26.5748 25.42106,0 46.02891,11.89794 46.02891,26.5748 z"
         sodipodi:ry="26.574802"
         sodipodi:rx="46.028908"
         sodipodi:cy="228.54329"
         sodipodi:cx="138.08673"
         id="path2987-8-53-0"
         style="fill:#000000;fill-opacity:1;stroke:none"
         sodipodi:type="arc" />
      <path
         transform="matrix(0.66805843,0,0,1.1571111,153.23751,-62.481495)"
         d="m 184.11564,228.54329 c 0,14.67686 -20.60785,26.5748 -46.02891,26.5748 -25.42106,0 -46.028907,-11.89794 -46.028907,-26.5748 0,-14.67686 20.607847,-26.5748 46.028907,-26.5748 25.42106,0 46.02891,11.89794 46.02891,26.5748 z"
         sodipodi:ry="26.574802"
         sodipodi:rx="46.028908"
         sodipodi:cy="228.54329"
         sodipodi:cx="138.08673"
         id="path2987-8-5-0-2"
         style="fill:#000000;fill-opacity:1;stroke:none"
         sodipodi:type="arc" />
      <path
         transform="matrix(0.66805843,0,0,1.1571111,214.60939,-62.481495)"
         d="m 184.11564,228.54329 c 0,14.67686 -20.60785,26.5748 -46.02891,26.5748 -25.42106,0 -46.028907,-11.89794 -46.028907,-26.5748 0,-14.67686 20.607847,-26.5748 46.028907,-26.5748 25.42106,0 46.02891,11.89794 46.02891,26.5748 z"
         sodipodi:ry="26.574802"
         sodipodi:rx="46.028908"
         sodipodi:cy="228.54329"
         sodipodi:cx="138.08673"
         id="path2987-2-3-1"
         style="fill:#000000;fill-opacity:1;stroke:none"
         sodipodi:type="arc" />
      <path
         transform="matrix(0.66805843,0,0,1.1571111,275.98127,-62.481495)"
         d="m 184.11564,228.54329 c 0,14.67686 -20.60785,26.5748 -46.02891,26.5748 -25.42106,0 -46.028907,-11.89794 -46.028907,-26.5748 0,-14.67686 20.607847,-26.5748 46.028907,-26.5748 25.42106,0 46.02891,11.89794 46.02891,26.5748 z"
         sodipodi:ry="26.574802"
         sodipodi:rx="46.028908"
         sodipodi:cy="228.54329"
         sodipodi:cx="138.08673"
         id="path2987-8-58-7-2"
         style="fill:#000000;fill-opacity:1;stroke:none"
         sodipodi:type="arc" />
      <path
         transform="matrix(0.66805843,0,0,1.1571111,337.35314,-62.481495)"
         d="m 184.11564,228.54329 c 0,14.67686 -20.60785,26.5748 -46.02891,26.5748 -25.42106,0 -46.028907,-11.89794 -46.028907,-26.5748 0,-14.67686 20.607847,-26.5748 46.028907,-26.5748 25.42106,0 46.02891,11.89794 46.02891,26.5748 z"
         sodipodi:ry="26.574802"
         sodipodi:rx="46.028908"
         sodipodi:cy="228.54329"
         sodipodi:cx="138.08673"
         id="path2987-8-5-8-5-0"
         style="fill:#000000;fill-opacity:1;stroke:none"
         sodipodi:type="arc" />
      <path
         transform="matrix(0.66805843,0,0,1.1571111,61.179696,-115.6311)"
         d="m 184.11564,228.54329 c 0,14.67686 -20.60785,26.5748 -46.02891,26.5748 -25.42106,0 -46.028907,-11.89794 -46.028907,-26.5748 0,-14.67686 20.607847,-26.5748 46.028907,-26.5748 25.42106,0 46.02891,11.89794 46.02891,26.5748 z"
         sodipodi:ry="26.574802"
         sodipodi:rx="46.028908"
         sodipodi:cy="228.54329"
         sodipodi:cx="138.08673"
         id="path2987-24"
         style="fill:#000000;fill-opacity:1;stroke:none"
         sodipodi:type="arc" />
      <path
         transform="matrix(0.66805843,0,0,1.1571111,122.55157,-115.6311)"
         d="m 184.11564,228.54329 c 0,14.67686 -20.60785,26.5748 -46.02891,26.5748 -25.42106,0 -46.028907,-11.89794 -46.028907,-26.5748 0,-14.67686 20.607847,-26.5748 46.028907,-26.5748 25.42106,0 46.02891,11.89794 46.02891,26.5748 z"
         sodipodi:ry="26.574802"
         sodipodi:rx="46.028908"
         sodipodi:cy="228.54329"
         sodipodi:cx="138.08673"
         id="path2987-8-0"
         style="fill:#000000;fill-opacity:1;stroke:none"
         sodipodi:type="arc" />
      <path
         transform="matrix(0.66805843,0,0,1.1571111,183.92345,-115.6311)"
         d="m 184.11564,228.54329 c 0,14.67686 -20.60785,26.5748 -46.02891,26.5748 -25.42106,0 -46.028907,-11.89794 -46.028907,-26.5748 0,-14.67686 20.607847,-26.5748 46.028907,-26.5748 25.42106,0 46.02891,11.89794 46.02891,26.5748 z"
         sodipodi:ry="26.574802"
         sodipodi:rx="46.028908"
         sodipodi:cy="228.54329"
         sodipodi:cx="138.08673"
         id="path2987-8-5-4"
         style="fill:#000000;fill-opacity:1;stroke:none"
         sodipodi:type="arc" />
      <path
         transform="matrix(0.66805843,0,0,1.1571111,245.29533,-115.6311)"
         d="m 184.11564,228.54329 c 0,14.67686 -20.60785,26.5748 -46.02891,26.5748 -25.42106,0 -46.028907,-11.89794 -46.028907,-26.5748 0,-14.67686 20.607847,-26.5748 46.028907,-26.5748 25.42106,0 46.02891,11.89794 46.02891,26.5748 z"
         sodipodi:ry="26.574802"
         sodipodi:rx="46.028908"
         sodipodi:cy="228.54329"
         sodipodi:cx="138.08673"
         id="path2987-2-9"
         style="fill:#000000;fill-opacity:1;stroke:none"
         sodipodi:type="arc" />
      <path
         transform="matrix(0.66805843,0,0,1.1571111,306.66721,-115.6311)"
         d="m 184.11564,228.54329 c 0,14.67686 -20.60785,26.5748 -46.02891,26.5748 -25.42106,0 -46.028907,-11.89794 -46.028907,-26.5748 0,-14.67686 20.607847,-26.5748 46.028907,-26.5748 25.42106,0 46.02891,11.89794 46.02891,26.5748 z"
         sodipodi:ry="26.574802"
         sodipodi:rx="46.028908"
         sodipodi:cy="228.54329"
         sodipodi:cx="138.08673"
         id="path2987-8-58-1"
         style="fill:#000000;fill-opacity:1;stroke:none"
         sodipodi:type="arc" />
      <path
         transform="matrix(0.66805843,0,0,1.1571111,368.03908,-115.6311)"
         d="m 184.11564,228.54329 c 0,14.67686 -20.60785,26.5748 -46.02891,26.5748 -25.42106,0 -46.028907,-11.89794 -46.028907,-26.5748 0,-14.67686 20.607847,-26.5748 46.028907,-26.5748 25.42106,0 46.02891,11.89794 46.02891,26.5748 z"
         sodipodi:ry="26.574802"
         sodipodi:rx="46.028908"
         sodipodi:cy="228.54329"
         sodipodi:cx="138.08673"
         id="path2987-8-5-8-8"
         style="fill:#000000;fill-opacity:1;stroke:none"
         sodipodi:type="arc" />
      <path
         transform="matrix(0.66805843,0,0,1.1571111,61.179697,96.967324)"
         d="m 184.11564,228.54329 c 0,14.67686 -20.60785,26.5748 -46.02891,26.5748 -25.42106,0 -46.028907,-11.89794 -46.028907,-26.5748 0,-14.67686 20.607847,-26.5748 46.028907,-26.5748 25.42106,0 46.02891,11.89794 46.02891,26.5748 z"
         sodipodi:ry="26.574802"
         sodipodi:rx="46.028908"
         sodipodi:cy="228.54329"
         sodipodi:cx="138.08673"
         id="path2987-4"
         style="fill:#000000;fill-opacity:1;stroke:none"
         sodipodi:type="arc" />
      <path
         transform="matrix(0.66805843,0,0,1.1571111,122.55157,96.967324)"
         d="m 184.11564,228.54329 c 0,14.67686 -20.60785,26.5748 -46.02891,26.5748 -25.42106,0 -46.028907,-11.89794 -46.028907,-26.5748 0,-14.67686 20.607847,-26.5748 46.028907,-26.5748 25.42106,0 46.02891,11.89794 46.02891,26.5748 z"
         sodipodi:ry="26.574802"
         sodipodi:rx="46.028908"
         sodipodi:cy="228.54329"
         sodipodi:cx="138.08673"
         id="path2987-8-6"
         style="fill:#000000;fill-opacity:1;stroke:none"
         sodipodi:type="arc" />
      <path
         transform="matrix(0.66805843,0,0,1.1571111,183.92345,96.967324)"
         d="m 184.11564,228.54329 c 0,14.67686 -20.60785,26.5748 -46.02891,26.5748 -25.42106,0 -46.028907,-11.89794 -46.028907,-26.5748 0,-14.67686 20.607847,-26.5748 46.028907,-26.5748 25.42106,0 46.02891,11.89794 46.02891,26.5748 z"
         sodipodi:ry="26.574802"
         sodipodi:rx="46.028908"
         sodipodi:cy="228.54329"
         sodipodi:cx="138.08673"
         id="path2987-8-5-85"
         style="fill:#000000;fill-opacity:1;stroke:none"
         sodipodi:type="arc" />
      <path
         transform="matrix(0.66805843,0,0,1.1571111,245.29533,96.967324)"
         d="m 184.11564,228.54329 c 0,14.67686 -20.60785,26.5748 -46.02891,26.5748 -25.42106,0 -46.028907,-11.89794 -46.028907,-26.5748 0,-14.67686 20.607847,-26.5748 46.028907,-26.5748 25.42106,0 46.02891,11.89794 46.02891,26.5748 z"
         sodipodi:ry="26.574802"
         sodipodi:rx="46.028908"
         sodipodi:cy="228.54329"
         sodipodi:cx="138.08673"
         id="path2987-2-1"
         style="fill:#000000;fill-opacity:1;stroke:none"
         sodipodi:type="arc" />
      <path
         transform="matrix(0.66805843,0,0,1.1571111,306.66721,96.967324)"
         d="m 184.11564,228.54329 c 0,14.67686 -20.60785,26.5748 -46.02891,26.5748 -25.42106,0 -46.028907,-11.89794 -46.028907,-26.5748 0,-14.67686 20.607847,-26.5748 46.028907,-26.5748 25.42106,0 46.02891,11.89794 46.02891,26.5748 z"
         sodipodi:ry="26.574802"
         sodipodi:rx="46.028908"
         sodipodi:cy="228.54329"
         sodipodi:cx="138.08673"
         id="path2987-8-58-3"
         style="fill:#000000;fill-opacity:1;stroke:none"
         sodipodi:type="arc" />
      <path
         transform="matrix(0.66805843,0,0,1.1571111,368.03908,96.967324)"
         d="m 184.11564,228.54329 c 0,14.67686 -20.60785,26.5748 -46.02891,26.5748 -25.42106,0 -46.028907,-11.89794 -46.028907,-26.5748 0,-14.67686 20.607847,-26.5748 46.028907,-26.5748 25.42106,0 46.02891,11.89794 46.02891,26.5748 z"
         sodipodi:ry="26.574802"
         sodipodi:rx="46.028908"
         sodipodi:cy="228.54329"
         sodipodi:cx="138.08673"
         id="path2987-8-5-8-9"
         style="fill:#000000;fill-opacity:1;stroke:none"
         sodipodi:type="arc" />
      <path
         transform="matrix(0.66805843,0,0,1.1571111,153.23751,-168.78071)"
         d="m 184.11564,228.54329 c 0,14.67686 -20.60785,26.5748 -46.02891,26.5748 -25.42106,0 -46.028907,-11.89794 -46.028907,-26.5748 0,-14.67686 20.607847,-26.5748 46.028907,-26.5748 25.42106,0 46.02891,11.89794 46.02891,26.5748 z"
         sodipodi:ry="26.574802"
         sodipodi:rx="46.028908"
         sodipodi:cy="228.54329"
         sodipodi:cx="138.08673"
         id="path2987-2-9-2"
         style="fill:#000000;fill-opacity:1;stroke:none"
         sodipodi:type="arc" />
      <path
         transform="matrix(0.66805843,0,0,1.1571111,214.60939,-168.78071)"
         d="m 184.11564,228.54329 c 0,14.67686 -20.60785,26.5748 -46.02891,26.5748 -25.42106,0 -46.028907,-11.89794 -46.028907,-26.5748 0,-14.67686 20.607847,-26.5748 46.028907,-26.5748 25.42106,0 46.02891,11.89794 46.02891,26.5748 z"
         sodipodi:ry="26.574802"
         sodipodi:rx="46.028908"
         sodipodi:cy="228.54329"
         sodipodi:cx="138.08673"
         id="path2987-8-58-1-1"
         style="fill:#000000;fill-opacity:1;stroke:none"
         sodipodi:type="arc" />
      <path
         transform="matrix(0.66805843,0,0,1.1571111,275.98126,-168.78071)"
         d="m 184.11564,228.54329 c 0,14.67686 -20.60785,26.5748 -46.02891,26.5748 -25.42106,0 -46.028907,-11.89794 -46.028907,-26.5748 0,-14.67686 20.607847,-26.5748 46.028907,-26.5748 25.42106,0 46.02891,11.89794 46.02891,26.5748 z"
         sodipodi:ry="26.574802"
         sodipodi:rx="46.028908"
         sodipodi:cy="228.54329"
         sodipodi:cx="138.08673"
         id="path2987-8-5-8-8-1"
         style="fill:#000000;fill-opacity:1;stroke:none"
         sodipodi:type="arc" />
      <path
         transform="matrix(0.66805843,0,0,1.1571111,153.23751,150.11693)"
         d="m 184.11564,228.54329 c 0,14.67686 -20.60785,26.5748 -46.02891,26.5748 -25.42106,0 -46.028907,-11.89794 -46.028907,-26.5748 0,-14.67686 20.607847,-26.5748 46.028907,-26.5748 25.42106,0 46.02891,11.89794 46.02891,26.5748 z"
         sodipodi:ry="26.574802"
         sodipodi:rx="46.028908"
         sodipodi:cy="228.54329"
         sodipodi:cx="138.08673"
         id="path2987-2-9-7"
         style="fill:#000000;fill-opacity:1;stroke:none"
         sodipodi:type="arc" />
      <path
         transform="matrix(0.66805843,0,0,1.1571111,214.60939,150.11693)"
         d="m 184.11564,228.54329 c 0,14.67686 -20.60785,26.5748 -46.02891,26.5748 -25.42106,0 -46.028907,-11.89794 -46.028907,-26.5748 0,-14.67686 20.607847,-26.5748 46.028907,-26.5748 25.42106,0 46.02891,11.89794 46.02891,26.5748 z"
         sodipodi:ry="26.574802"
         sodipodi:rx="46.028908"
         sodipodi:cy="228.54329"
         sodipodi:cx="138.08673"
         id="path2987-8-58-1-9"
         style="fill:#000000;fill-opacity:1;stroke:none"
         sodipodi:type="arc" />
      <path
         transform="matrix(0.66805843,0,0,1.1571111,275.98126,150.11693)"
         d="m 184.11564,228.54329 c 0,14.67686 -20.60785,26.5748 -46.02891,26.5748 -25.42106,0 -46.028907,-11.89794 -46.028907,-26.5748 0,-14.67686 20.607847,-26.5748 46.028907,-26.5748 25.42106,0 46.02891,11.89794 46.02891,26.5748 z"
         sodipodi:ry="26.574802"
         sodipodi:rx="46.028908"
         sodipodi:cy="228.54329"
         sodipodi:cx="138.08673"
         id="path2987-8-5-8-8-15"
         style="fill:#000000;fill-opacity:1;stroke:none"
         sodipodi:type="arc" />
    </g>
    <text
       xml:space="preserve"
       style="font-size:40px;font-style:normal;font-variant:normal;font-weight:normal;font-stretch:normal;line-height:125%;letter-spacing:0px;word-spacing:0px;fill:#000000;fill-opacity:1;stroke:none;font-family:Monospace;-inkscape-font-specification:Monospace"
       x="122.46837"
       y="1026.0463"
       id="text3997"
       sodipodi:linespacing="125%"><tspan
         sodipodi:role="line"
         id="tspan3999"
         x="122.46837"
         y="1026.0463"
         style="font-size:12px">Tactic</tspan><tspan
         sodipodi:role="line"
         x="122.46837"
         y="1041.0463"
         id="tspan4003"
         style="font-size:12px">facets diameter: 61.5cm</tspan></text>
    <rect
       style="fill:#000000;fill-opacity:1;stroke:none"
       id="rect4000"
       width="100"
       height="100"
       x="0"
       y="952.36218" />
    <text
       xml:space="preserve"
       style="font-size:40px;font-style:normal;font-variant:normal;font-weight:normal;font-stretch:normal;line-height:125%;letter-spacing:0px;word-spacing:0px;fill:#000000;fill-opacity:1;stroke:none;font-family:Monospace;-inkscape-font-specification:Monospace"
       x="17.301758"
       y="1006.8153"
       id="text3997-0"
       sodipodi:linespacing="125%"><tspan
         sodipodi:role="line"
         x="17.301758"
         y="1006.8153"
         id="tspan4003-4"
         style="font-size:12px;fill:#ffffff;fill-opacity:1">1 x 1 m^2</tspan></text>
  </g>
</svg>
