<?xml version="1.0" encoding="UTF-8" standalone="no"?>
<!-- Created with Inkscape (http://www.inkscape.org/) -->

<svg
   xmlns:dc="http://purl.org/dc/elements/1.1/"
   xmlns:cc="http://creativecommons.org/ns#"
   xmlns:rdf="http://www.w3.org/1999/02/22-rdf-syntax-ns#"
   xmlns:svg="http://www.w3.org/2000/svg"
   xmlns="http://www.w3.org/2000/svg"
   xmlns:sodipodi="http://sodipodi.sourceforge.net/DTD/sodipodi-0.dtd"
   xmlns:inkscape="http://www.inkscape.org/namespaces/inkscape"
   width="325.10953"
   height="180.5051"
   id="svg2"
   version="1.1"
   inkscape:version="0.48.4 r9939"
   sodipodi:docname="human.svg">
  <defs
     id="defs4" />
  <sodipodi:namedview
     id="base"
     pagecolor="#ffffff"
     bordercolor="#666666"
     borderopacity="1.0"
     inkscape:pageopacity="0.0"
     inkscape:pageshadow="2"
     inkscape:zoom="0.98994949"
     inkscape:cx="286.74857"
     inkscape:cy="316.41983"
     inkscape:document-units="px"
     inkscape:current-layer="layer1"
     showgrid="false"
     inkscape:snap-bbox="true"
     inkscape:bbox-nodes="true"
     inkscape:snap-center="true"
     inkscape:bbox-paths="true"
     inkscape:snap-bbox-edge-midpoints="true"
     inkscape:snap-bbox-midpoints="true"
     inkscape:window-width="960"
     inkscape:window-height="1028"
     inkscape:window-x="0"
     inkscape:window-y="24"
     inkscape:window-maximized="0"
     fit-margin-top="0"
     fit-margin-left="0"
     fit-margin-right="0"
     fit-margin-bottom="0" />
  <metadata
     id="metadata7">
    <rdf:RDF>
      <cc:Work
         rdf:about="">
        <dc:format>image/svg+xml</dc:format>
        <dc:type
           rdf:resource="http://purl.org/dc/dcmitype/StillImage" />
        <dc:title></dc:title>
      </cc:Work>
    </rdf:RDF>
  </metadata>
  <g
     inkscape:label="Layer 1"
     inkscape:groupmode="layer"
     id="layer1"
     transform="translate(0,-871.85709)">
    <rect
       style="fill:#000000;fill-opacity:1;stroke:none"
       id="rect3332"
       width="100"
       height="100"
       x="0"
       y="952.36218" />
    <text
       xml:space="preserve"
       style="font-size:40px;font-style:normal;font-variant:normal;font-weight:normal;font-stretch:normal;line-height:125%;letter-spacing:0px;word-spacing:0px;fill:#000000;fill-opacity:1;stroke:none;font-family:Monospace;-inkscape-font-specification:Monospace"
       x="16.472717"
       y="1009.8156"
       id="text4097-0"
       sodipodi:linespacing="125%"><tspan
         sodipodi:role="line"
         x="16.472717"
         y="1009.8156"
         id="tspan4101-2"
         style="font-size:12px;fill:#ffffff;fill-opacity:1">1 x 1 m^2</tspan></text>
    <path
       sodipodi:type="arc"
       style="fill:#000000;fill-opacity:1;stroke:none"
       id="path2996"
       sodipodi:cx="191.67645"
       sodipodi:cy="913.71875"
       sodipodi:rx="15.909903"
       sodipodi:ry="20.455589"
       d="m 207.58636,913.71875 c 0,11.29731 -7.12311,20.45559 -15.90991,20.45559 -8.78679,0 -15.9099,-9.15828 -15.9099,-20.45559 0,-11.29731 7.12311,-20.45559 15.9099,-20.45559 8.7868,0 15.90991,9.15828 15.90991,20.45559 z"
       transform="matrix(0.97275036,0,0,0.92179932,7.3498714,48.447713)" />
    <path
       style="fill:#000000;fill-opacity:1;stroke:none"
       d="m 191.44354,1051.8571 -26.53306,-139.50776 57.08955,0.0715 z"
       id="path2998"
       inkscape:connector-curvature="0"
       sodipodi:nodetypes="cccc" />
    <path
       sodipodi:type="arc"
       style="fill:#000000;fill-opacity:1;stroke:none"
       id="path2996-9"
       sodipodi:cx="191.67645"
       sodipodi:cy="913.71875"
       sodipodi:rx="15.909903"
       sodipodi:ry="20.455589"
       d="m 207.58636,913.71875 c 0,11.29731 -7.12311,20.45559 -15.90991,20.45559 -8.78679,0 -15.9099,-9.15828 -15.9099,-20.45559 0,-11.29731 7.12311,-20.45559 15.9099,-20.45559 8.7868,0 15.90991,9.15828 15.90991,20.45559 z"
       transform="matrix(0.97275036,0,0,0.92179932,108.37861,52.091559)" />
    <rect
       style="fill:#000000;fill-opacity:1;stroke:none"
       id="rect3804"
       width="29.7995"
       height="74.751289"
       x="279.81226"
       y="913.46625" />
    <rect
       style="fill:#000000;fill-opacity:1;stroke:none"
       id="rect3804-2"
       width="13.638785"
       height="56.983433"
       x="279.81226"
       y="988.21753" />
    <rect
       style="fill:#000000;fill-opacity:1;stroke:none"
       id="rect3804-2-4-2"
       width="13.638785"
       height="46.89415"
       x="913.21283"
       y="-318.27902"
       transform="matrix(0,1,-1,0,0,0)" />
    <path
       sodipodi:type="arc"
       style="fill:#000000;fill-opacity:1;stroke:none"
       id="path3878"
       sodipodi:cx="283.61606"
       sodipodi:cy="1052.8533"
       sodipodi:rx="7.4553571"
       sodipodi:ry="7.9017859"
       d="m 291.07142,1052.8533 c 0,4.364 -3.33788,7.9018 -7.45536,7.9018 -4.11748,0 -7.45536,-3.5378 -7.45536,-7.9018 0,-4.3641 3.33788,-7.9018 7.45536,-7.9018 4.11748,0 7.45536,3.5377 7.45536,7.9018 z"
       transform="matrix(0.91618683,0,0,0.86442484,26.775244,135.08844)" />
    <rect
       style="fill:#000000;fill-opacity:1;stroke:none"
       id="rect3804-2-1"
       width="13.638785"
       height="61.894146"
       x="311.45963"
       y="920.03223" />
    <path
       sodipodi:type="arc"
       style="fill:#000000;fill-opacity:1;stroke:none"
       id="path3878-2"
       sodipodi:cx="283.61606"
       sodipodi:cy="1052.8533"
       sodipodi:rx="7.4553571"
       sodipodi:ry="7.9017859"
       d="m 291.07142,1052.8533 c 0,4.364 -3.33788,7.9018 -7.45536,7.9018 -4.11748,0 -7.45536,-3.5378 -7.45536,-7.9018 0,-4.3641 3.33788,-7.9018 7.45536,-7.9018 4.11748,0 7.45536,3.5377 7.45536,7.9018 z"
       transform="matrix(0.91618683,0,0,0.86442484,58.43372,71.813852)" />
    <path
       sodipodi:type="arc"
       style="fill:#000000;fill-opacity:1;stroke:none"
       id="path3878-2-1"
       sodipodi:cx="283.61606"
       sodipodi:cy="1052.8533"
       sodipodi:rx="7.4553571"
       sodipodi:ry="7.9017859"
       d="m 291.07142,1052.8533 c 0,4.364 -3.33788,7.9018 -7.45536,7.9018 -4.11748,0 -7.45536,-3.5378 -7.45536,-7.9018 0,-4.3641 3.33788,-7.9018 7.45536,-7.9018 4.11748,0 7.45536,3.5377 7.45536,7.9018 z"
       transform="matrix(0.91618683,0,0,0.86442484,58.433725,9.9197015)" />
    <rect
       style="fill:#000000;fill-opacity:1;stroke:none"
       id="rect3804-2-1-8"
       width="13.638785"
       height="61.894146"
       x="264.56546"
       y="920.02112" />
    <path
       sodipodi:type="arc"
       style="fill:#000000;fill-opacity:1;stroke:none"
       id="path3878-2-7"
       sodipodi:cx="283.61606"
       sodipodi:cy="1052.8533"
       sodipodi:rx="7.4553571"
       sodipodi:ry="7.9017859"
       d="m 291.07142,1052.8533 c 0,4.364 -3.33788,7.9018 -7.45536,7.9018 -4.11748,0 -7.45536,-3.5378 -7.45536,-7.9018 0,-4.3641 3.33788,-7.9018 7.45536,-7.9018 4.11748,0 7.45536,3.5377 7.45536,7.9018 z"
       transform="matrix(0.91618683,0,0,0.86442484,11.539565,71.802744)" />
    <path
       sodipodi:type="arc"
       style="fill:#000000;fill-opacity:1;stroke:none"
       id="path3878-2-1-5"
       sodipodi:cx="283.61606"
       sodipodi:cy="1052.8533"
       sodipodi:rx="7.4553571"
       sodipodi:ry="7.9017859"
       d="m 291.07142,1052.8533 c 0,4.364 -3.33788,7.9018 -7.45536,7.9018 -4.11748,0 -7.45536,-3.5378 -7.45536,-7.9018 0,-4.3641 3.33788,-7.9018 7.45536,-7.9018 4.11748,0 7.45536,3.5377 7.45536,7.9018 z"
       transform="matrix(0.91618683,0,0,0.86442484,11.539575,9.9085942)" />
    <rect
       style="fill:#000000;fill-opacity:1;stroke:none"
       id="rect3804-2-5"
       width="13.638785"
       height="56.983433"
       x="295.97296"
       y="988.21753" />
    <path
       sodipodi:type="arc"
       style="fill:#000000;fill-opacity:1;stroke:none"
       id="path3878-5"
       sodipodi:cx="283.61606"
       sodipodi:cy="1052.8533"
       sodipodi:rx="7.4553571"
       sodipodi:ry="7.9017859"
       d="m 291.07142,1052.8533 c 0,4.364 -3.33788,7.9018 -7.45536,7.9018 -4.11748,0 -7.45536,-3.5378 -7.45536,-7.9018 0,-4.3641 3.33788,-7.9018 7.45536,-7.9018 4.11748,0 7.45536,3.5377 7.45536,7.9018 z"
       transform="matrix(0.91618683,0,0,0.86442484,42.935956,135.08842)" />
  </g>
</svg>
